PTS55F.ufo
<glyph name="exclam" format="1">
  <advance width="305"/>
  <unicode hex="0021"/>
  <outline>
    <contour>
      <point x="127" y="700" type="line"/>
      <point x="210" y="700" type="line"/>
      <point x="210" y="353" type="line"/>
      <point x="193" y="177" type="line"/>
      <point x="144" y="177" type="line"/>
      <point x="127" y="353" type="line"/>
    </contour>
    <contour>
      <point x="110" y="46" type="curve" smooth="yes"/>
      <point x="110" y="82"/>
      <point x="132" y="104"/>
      <point x="167" y="104" type="curve" smooth="yes"/>
      <point x="203" y="104"/>
      <point x="226" y="82"/>
      <point x="226" y="46" type="curve" smooth="yes"/>
      <point x="226" y="11"/>
      <point x="203" y="-12"/>
      <point x="167" y="-12" type="curve" smooth="yes"/>
      <point x="132" y="-12"/>
      <point x="110" y="11"/>
    </contour>
  </outline>
</glyph>
<glyph name="dollar" format="1">
  <advance width="545"/>
  <unicode hex="0024"/>
  <outline>
    <contour>
      <point x="242" y="-12" type="line"/>
      <point x="169" y="-11"/>
      <point x="111" y="1"/>
      <point x="76" y="20" type="curve"/>
      <point x="103" y="93" type="line"/>
      <point x="130" y="77"/>
      <point x="175" y="61"/>
      <point x="242" y="60" type="curve"/>
      <point x="242" y="330" type="line"/>
      <point x="161" y="370"/>
      <point x="79" y="415"/>
      <point x="79" y="534" type="curve" smooth="yes"/>
      <point x="79" y="630"/>
      <point x="133" y="694"/>
      <point x="242" y="709" type="curve"/>
      <point x="242" y="800" type="line"/>
      <point x="310" y="800" type="line"/>
      <point x="310" y="712" type="line"/>
      <point x="378" y="709"/>
      <point x="417" y="699"/>
      <point x="452" y="683" type="curve"/>
      <point x="428" y="613" type="line"/>
      <point x="401" y="626"/>
      <point x="366" y="637"/>
      <point x="310" y="640" type="curve"/>
      <point x="310" y="393" type="line"/>
      <point x="394" y="350"/>
      <point x="482" y="300"/>
      <point x="482" y="185" type="curve" smooth="yes"/>
      <point x="482" y="81"/>
      <point x="423" y="11"/>
      <point x="310" y="-8" type="curve"/>
      <point x="310" y="-100" type="line"/>
      <point x="242" y="-100" type="line"/>
    </contour>
    <contour>
      <point x="399" y="178" type="curve" smooth="yes"/>
      <point x="399" y="243"/>
      <point x="352" y="276"/>
      <point x="294" y="305" type="curve"/>
      <point x="294" y="62" type="line"/>
      <point x="355" y="71"/>
      <point x="399" y="109"/>
    </contour>
    <contour>
      <point x="162" y="539" type="curve" smooth="yes"/>
      <point x="162" y="482"/>
      <point x="203" y="449"/>
      <point x="258" y="420" type="curve"/>
      <point x="258" y="639" type="line"/>
      <point x="187" y="631"/>
      <point x="162" y="587"/>
    </contour>
  </outline>
</glyph>
<glyph name="ampersand" format="1">
  <advance width="814"/>
  <unicode hex="0026"/>
  <outline>
    <contour>
      <point x="118" y="187" type="curve" smooth="yes"/>
      <point x="118" y="295"/>
      <point x="200" y="381"/>
      <point x="288" y="434" type="curve"/>
      <point x="256" y="482"/>
      <point x="229" y="528"/>
      <point x="229" y="584" type="curve" smooth="yes"/>
      <point x="229" y="648"/>
      <point x="270" y="712"/>
      <point x="374" y="712" type="curve" smooth="yes"/>
      <point x="483" y="712"/>
      <point x="520" y="651"/>
      <point x="520" y="593" type="curve" smooth="yes"/>
      <point x="520" y="537"/>
      <point x="478" y="476"/>
      <point x="385" y="421" type="curve"/>
      <point x="427" y="345"/>
      <point x="501" y="253"/>
      <point x="567" y="187" type="curve"/>
      <point x="597" y="220"/>
      <point x="626" y="288"/>
      <point x="645" y="341" type="curve"/>
      <point x="707" y="312" type="line"/>
      <point x="691" y="267"/>
      <point x="644" y="179"/>
      <point x="612" y="139" type="curve"/>
      <point x="668" y="85"/>
      <point x="699" y="66"/>
      <point x="737" y="44" type="curve"/>
      <point x="687" y="-12" type="line"/>
      <point x="652" y="5"/>
      <point x="611" y="36"/>
      <point x="566" y="81" type="curve"/>
      <point x="519" y="34"/>
      <point x="451" y="-12"/>
      <point x="347" y="-12" type="curve" smooth="yes"/>
      <point x="223" y="-12"/>
      <point x="118" y="59"/>
    </contour>
    <contour>
      <point x="519" y="131" type="curve"/>
      <point x="442" y="208"/>
      <point x="365" y="319"/>
      <point x="325" y="383" type="curve"/>
      <point x="253" y="330"/>
      <point x="198" y="273"/>
      <point x="198" y="189" type="curve" smooth="yes"/>
      <point x="198" y="106"/>
      <point x="274" y="58"/>
      <point x="359" y="58" type="curve" smooth="yes"/>
      <point x="423" y="58"/>
      <point x="490" y="94"/>
    </contour>
    <contour>
      <point x="307" y="584" type="curve" smooth="yes"/>
      <point x="307" y="544"/>
      <point x="325" y="505"/>
      <point x="352" y="466" type="curve"/>
      <point x="423" y="511"/>
      <point x="446" y="549"/>
      <point x="446" y="577" type="curve" smooth="yes"/>
      <point x="446" y="620"/>
      <point x="428" y="649"/>
      <point x="377" y="649" type="curve" smooth="yes"/>
      <point x="329" y="649"/>
      <point x="307" y="623"/>
    </contour>
  </outline>
</glyph>
<glyph name="parenleft" format="1">
  <advance width="280"/>
  <unicode hex="0028"/>
  <outline>
    <contour>
      <point x="227" y="-220" type="line"/>
      <point x="104" y="-92"/>
      <point x="60" y="93"/>
      <point x="60" y="243" type="curve" smooth="yes"/>
      <point x="60" y="390"/>
      <point x="105" y="576"/>
      <point x="230" y="712" type="curve"/>
      <point x="278" y="677" type="line"/>
      <point x="172" y="542"/>
      <point x="140" y="380"/>
      <point x="140" y="243" type="curve" smooth="yes"/>
      <point x="140" y="113"/>
      <point x="179" y="-65"/>
      <point x="278" y="-183" type="curve"/>
    </contour>
  </outline>
</glyph>
<glyph name="parenright" format="1">
  <advance width="280"/>
  <unicode hex="0029"/>
  <outline>
    <contour>
      <point x="53" y="712" type="line"/>
      <point x="176" y="584"/>
      <point x="220" y="399"/>
      <point x="220" y="249" type="curve" smooth="yes"/>
      <point x="220" y="102"/>
      <point x="175" y="-84"/>
      <point x="50" y="-220" type="curve"/>
      <point x="2" y="-185" type="line"/>
      <point x="109" y="-48"/>
      <point x="140" y="112"/>
      <point x="140" y="249" type="curve" smooth="yes"/>
      <point x="140" y="376"/>
      <point x="100" y="558"/>
      <point x="2" y="675" type="curve"/>
    </contour>
  </outline>
</glyph>
<glyph name="comma" format="1">
  <advance width="195"/>
  <unicode hex="002C"/>
  <outline>
    <contour>
      <point x="49" y="43" type="curve" smooth="yes"/>
      <point x="49" y="75"/>
      <point x="73" y="97"/>
      <point x="106" y="97" type="curve" smooth="yes"/>
      <point x="147" y="97"/>
      <point x="176" y="67"/>
      <point x="176" y="11" type="curve" smooth="yes"/>
      <point x="176" y="-84"/>
      <point x="117" y="-133"/>
      <point x="67" y="-149" type="curve"/>
      <point x="42" y="-110" type="line"/>
      <point x="90" y="-91"/>
      <point x="113" y="-47"/>
      <point x="113" y="-7" type="curve"/>
      <point x="107" y="-9"/>
      <point x="101" y="-10"/>
      <point x="96" y="-10" type="curve" smooth="yes"/>
      <point x="69" y="-10"/>
      <point x="49" y="8"/>
    </contour>
  </outline>
</glyph>
<glyph name="period" format="1">
  <advance width="214"/>
  <unicode hex="002E"/>
  <outline>
    <contour>
      <point x="49" y="46" type="curve" smooth="yes"/>
      <point x="49" y="82"/>
      <point x="71" y="104"/>
      <point x="106" y="104" type="curve" smooth="yes"/>
      <point x="142" y="104"/>
      <point x="165" y="82"/>
      <point x="165" y="46" type="curve" smooth="yes"/>
      <point x="165" y="11"/>
      <point x="142" y="-12"/>
      <point x="106" y="-12" type="curve" smooth="yes"/>
      <point x="71" y="-12"/>
      <point x="49" y="11"/>
    </contour>
  </outline>
</glyph>
<glyph name="zero" format="1">
  <advance width="545"/>
  <unicode hex="0030"/>
  <outline>
    <contour>
      <point x="43" y="350" type="curve" smooth="yes"/>
      <point x="43" y="590"/>
      <point x="123" y="712"/>
      <point x="272" y="712" type="curve" smooth="yes"/>
      <point x="433" y="712"/>
      <point x="502" y="594"/>
      <point x="502" y="350" type="curve" smooth="yes"/>
      <point x="502" y="110"/>
      <point x="423" y="-12"/>
      <point x="272" y="-12" type="curve" smooth="yes"/>
      <point x="113" y="-12"/>
      <point x="43" y="121"/>
    </contour>
    <contour>
      <point x="126" y="350" type="curve" smooth="yes"/>
      <point x="126" y="178"/>
      <point x="171" y="58"/>
      <point x="272" y="58" type="curve" smooth="yes"/>
      <point x="373" y="58"/>
      <point x="419" y="149"/>
      <point x="419" y="350" type="curve" smooth="yes"/>
      <point x="419" y="523"/>
      <point x="381" y="642"/>
      <point x="272" y="642" type="curve" smooth="yes"/>
      <point x="172" y="642"/>
      <point x="126" y="550"/>
    </contour>
  </outline>
</glyph>
<glyph name="two" format="1">
  <advance width="545"/>
  <unicode hex="0032"/>
  <outline>
    <contour>
      <point x="446" y="541" type="curve" smooth="yes"/>
      <point x="446" y="401"/>
      <point x="331" y="238"/>
      <point x="227" y="110" type="curve"/>
      <point x="178" y="67" type="line"/>
      <point x="178" y="63" type="line"/>
      <point x="242" y="74" type="line"/>
      <point x="460" y="74" type="line"/>
      <point x="460" y="0" type="line"/>
      <point x="62" y="0" type="line"/>
      <point x="62" y="29" type="line"/>
      <point x="150" y="121"/>
      <point x="363" y="359"/>
      <point x="363" y="528" type="curve" smooth="yes"/>
      <point x="363" y="593"/>
      <point x="326" y="642"/>
      <point x="250" y="642" type="curve" smooth="yes"/>
      <point x="199" y="642"/>
      <point x="149" y="618"/>
      <point x="114" y="591" type="curve"/>
      <point x="81" y="648" type="line"/>
      <point x="128" y="688"/>
      <point x="194" y="712"/>
      <point x="267" y="712" type="curve" smooth="yes"/>
      <point x="381" y="712"/>
      <point x="446" y="641"/>
    </contour>
  </outline>
</glyph>
<glyph name="three" format="1">
  <advance width="545"/>
  <unicode hex="0033"/>
  <outline>
    <contour>
      <point x="234" y="58" type="curve" smooth="yes"/>
      <point x="325" y="58"/>
      <point x="392" y="116"/>
      <point x="392" y="203" type="curve" smooth="yes"/>
      <point x="392" y="296"/>
      <point x="333" y="341"/>
      <point x="236" y="341" type="curve" smooth="yes"/>
      <point x="162" y="341" type="line"/>
      <point x="162" y="370" type="line"/>
      <point x="306" y="592" type="line"/>
      <point x="352" y="636" type="line"/>
      <point x="287" y="626" type="line"/>
      <point x="89" y="626" type="line"/>
      <point x="89" y="700" type="line"/>
      <point x="446" y="700" type="line"/>
      <point x="446" y="671" type="line"/>
      <point x="287" y="432" type="line"/>
      <point x="252" y="403" type="line"/>
      <point x="252" y="401" type="line"/>
      <point x="286" y="408" type="line"/>
      <point x="393" y="405"/>
      <point x="472" y="333"/>
      <point x="472" y="213" type="curve" smooth="yes"/>
      <point x="472" y="69"/>
      <point x="364" y="-12"/>
      <point x="232" y="-12" type="curve" smooth="yes"/>
      <point x="172" y="-12"/>
      <point x="124" y="-2"/>
      <point x="88" y="13" type="curve"/>
      <point x="109" y="84" type="line"/>
      <point x="140" y="69"/>
      <point x="182" y="58"/>
    </contour>
  </outline>
</glyph>
<glyph name="five" format="1">
  <advance width="545"/>
  <unicode hex="0035"/>
  <outline>
    <contour>
      <point x="213" y="58" type="curve" smooth="yes"/>
      <point x="305" y="58"/>
      <point x="372" y="113"/>
      <point x="372" y="214" type="curve" smooth="yes"/>
      <point x="372" y="311"/>
      <point x="309" y="359"/>
      <point x="205" y="359" type="curve"/>
      <point x="121" y="354" type="line"/>
      <point x="121" y="700" type="line"/>
      <point x="433" y="700" type="line"/>
      <point x="433" y="626" type="line"/>
      <point x="196" y="626" type="line"/>
      <point x="196" y="427" type="line"/>
      <point x="239" y="429" type="line"/>
      <point x="371" y="428"/>
      <point x="452" y="354"/>
      <point x="452" y="219" type="curve" smooth="yes"/>
      <point x="452" y="69"/>
      <point x="344" y="-12"/>
      <point x="211" y="-12" type="curve" smooth="yes"/>
      <point x="151" y="-12"/>
      <point x="113" y="-5"/>
      <point x="77" y="8" type="curve"/>
      <point x="98" y="76" type="line"/>
      <point x="129" y="64"/>
      <point x="161" y="58"/>
    </contour>
  </outline>
</glyph>
<glyph name="six" format="1">
  <advance width="545"/>
  <unicode hex="0036"/>
  <outline>
    <contour>
      <point x="492" y="211" type="curve" smooth="yes"/>
      <point x="492" y="88"/>
      <point x="416" y="-12"/>
      <point x="279" y="-12" type="curve" smooth="yes"/>
      <point x="147" y="-12"/>
      <point x="60" y="75"/>
      <point x="60" y="235" type="curve" smooth="yes"/>
      <point x="60" y="500"/>
      <point x="204" y="685"/>
      <point x="396" y="712" type="curve"/>
      <point x="413" y="648" type="line"/>
      <point x="264" y="621"/>
      <point x="166" y="490"/>
      <point x="144" y="344" type="curve"/>
      <point x="165" y="380"/>
      <point x="218" y="416"/>
      <point x="291" y="416" type="curve" smooth="yes"/>
      <point x="416" y="416"/>
      <point x="492" y="340"/>
    </contour>
    <contour>
      <point x="409" y="203" type="curve" smooth="yes"/>
      <point x="409" y="298"/>
      <point x="366" y="346"/>
      <point x="274" y="346" type="curve" smooth="yes"/>
      <point x="209" y="346"/>
      <point x="159" y="308"/>
      <point x="140" y="268" type="curve"/>
      <point x="137" y="249"/>
      <point x="138" y="240"/>
      <point x="138" y="225" type="curve" smooth="yes"/>
      <point x="138" y="142"/>
      <point x="184" y="58"/>
      <point x="280" y="58" type="curve" smooth="yes"/>
      <point x="356" y="58"/>
      <point x="409" y="119"/>
    </contour>
  </outline>
</glyph>
<glyph name="eight" format="1">
  <advance width="545"/>
  <unicode hex="0038"/>
  <outline>
    <contour>
      <point x="68" y="167" type="curve" smooth="yes"/>
      <point x="68" y="251"/>
      <point x="111" y="310"/>
      <point x="204" y="361" type="curve"/>
      <point x="138" y="400"/>
      <point x="84" y="447"/>
      <point x="84" y="537" type="curve" smooth="yes"/>
      <point x="84" y="640"/>
      <point x="159" y="712"/>
      <point x="278" y="712" type="curve" smooth="yes"/>
      <point x="390" y="712"/>
      <point x="461" y="645"/>
      <point x="461" y="553" type="curve" smooth="yes"/>
      <point x="461" y="477"/>
      <point x="429" y="423"/>
      <point x="349" y="367" type="curve"/>
      <point x="419" y="326"/>
      <point x="477" y="275"/>
      <point x="477" y="182" type="curve" smooth="yes"/>
      <point x="477" y="68"/>
      <point x="400" y="-12"/>
      <point x="267" y="-12" type="curve" smooth="yes"/>
      <point x="139" y="-12"/>
      <point x="68" y="67"/>
    </contour>
    <contour>
      <point x="399" y="177" type="curve" smooth="yes"/>
      <point x="399" y="256"/>
      <point x="330" y="296"/>
      <point x="259" y="333" type="curve"/>
      <point x="178" y="288"/>
      <point x="146" y="228"/>
      <point x="146" y="177" type="curve" smooth="yes"/>
      <point x="146" y="112"/>
      <point x="189" y="58"/>
      <point x="272" y="58" type="curve" smooth="yes"/>
      <point x="339" y="58"/>
      <point x="399" y="97"/>
    </contour>
    <contour>
      <point x="162" y="539" type="curve" smooth="yes"/>
      <point x="162" y="465"/>
      <point x="225" y="427"/>
      <point x="295" y="392" type="curve"/>
      <point x="355" y="439"/>
      <point x="383" y="481"/>
      <point x="383" y="536" type="curve" smooth="yes"/>
      <point x="383" y="604"/>
      <point x="335" y="642"/>
      <point x="276" y="642" type="curve" smooth="yes"/>
      <point x="204" y="642"/>
      <point x="162" y="591"/>
    </contour>
  </outline>
</glyph>
<glyph name="nine" format="1">
  <advance width="545"/>
  <unicode hex="0039"/>
  <outline>
    <contour>
      <point x="52" y="488" type="curve" smooth="yes"/>
      <point x="52" y="616"/>
      <point x="126" y="712"/>
      <point x="269" y="712" type="curve" smooth="yes"/>
      <point x="405" y="712"/>
      <point x="485" y="620"/>
      <point x="485" y="460" type="curve" smooth="yes"/>
      <point x="485" y="159"/>
      <point x="341" y="12"/>
      <point x="149" y="-12" type="curve"/>
      <point x="131" y="52" type="line"/>
      <point x="287" y="76"/>
      <point x="378" y="190"/>
      <point x="399" y="341" type="curve"/>
      <point x="363" y="298"/>
      <point x="325" y="284"/>
      <point x="254" y="284" type="curve" smooth="yes"/>
      <point x="145" y="284"/>
      <point x="52" y="357"/>
    </contour>
    <contour>
      <point x="135" y="496" type="curve" smooth="yes"/>
      <point x="135" y="401"/>
      <point x="190" y="354"/>
      <point x="271" y="354" type="curve" smooth="yes"/>
      <point x="336" y="354"/>
      <point x="385" y="377"/>
      <point x="405" y="412" type="curve"/>
      <point x="408" y="429"/>
      <point x="407" y="441"/>
      <point x="407" y="456" type="curve" smooth="yes"/>
      <point x="407" y="553"/>
      <point x="364" y="642"/>
      <point x="264" y="642" type="curve" smooth="yes"/>
      <point x="183" y="642"/>
      <point x="135" y="588"/>
    </contour>
  </outline>
</glyph>
<glyph name="colon" format="1">
  <advance width="219"/>
  <unicode hex="003A"/>
  <outline>
    <contour>
      <point x="91" y="449" type="curve" smooth="yes"/>
      <point x="91" y="485"/>
      <point x="113" y="507"/>
      <point x="148" y="507" type="curve" smooth="yes"/>
      <point x="184" y="507"/>
      <point x="207" y="485"/>
      <point x="207" y="449" type="curve" smooth="yes"/>
      <point x="207" y="414"/>
      <point x="184" y="391"/>
      <point x="148" y="391" type="curve" smooth="yes"/>
      <point x="113" y="391"/>
      <point x="91" y="414"/>
    </contour>
    <contour>
      <point x="91" y="46" type="curve" smooth="yes"/>
      <point x="91" y="82"/>
      <point x="113" y="104"/>
      <point x="148" y="104" type="curve" smooth="yes"/>
      <point x="184" y="104"/>
      <point x="207" y="82"/>
      <point x="207" y="46" type="curve" smooth="yes"/>
      <point x="207" y="11"/>
      <point x="184" y="-12"/>
      <point x="148" y="-12" type="curve" smooth="yes"/>
      <point x="113" y="-12"/>
      <point x="91" y="11"/>
    </contour>
  </outline>
</glyph>
<glyph name="semicolon" format="1">
  <advance width="256"/>
  <unicode hex="003B"/>
  <outline>
    <contour>
      <point x="89" y="43" type="curve" smooth="yes"/>
      <point x="89" y="75"/>
      <point x="113" y="97"/>
      <point x="146" y="97" type="curve" smooth="yes"/>
      <point x="187" y="97"/>
      <point x="216" y="67"/>
      <point x="216" y="11" type="curve" smooth="yes"/>
      <point x="216" y="-84"/>
      <point x="157" y="-133"/>
      <point x="107" y="-149" type="curve"/>
      <point x="82" y="-110" type="line"/>
      <point x="130" y="-91"/>
      <point x="153" y="-47"/>
      <point x="153" y="-7" type="curve"/>
      <point x="147" y="-9"/>
      <point x="141" y="-10"/>
      <point x="136" y="-10" type="curve" smooth="yes"/>
      <point x="109" y="-10"/>
      <point x="89" y="8"/>
    </contour>
    <contour>
      <point x="96" y="449" type="curve" smooth="yes"/>
      <point x="96" y="485"/>
      <point x="118" y="507"/>
      <point x="153" y="507" type="curve" smooth="yes"/>
      <point x="189" y="507"/>
      <point x="212" y="485"/>
      <point x="212" y="449" type="curve" smooth="yes"/>
      <point x="212" y="414"/>
      <point x="189" y="391"/>
      <point x="153" y="391" type="curve" smooth="yes"/>
      <point x="118" y="391"/>
      <point x="96" y="414"/>
    </contour>
  </outline>
</glyph>
<glyph name="question" format="1">
  <advance width="436"/>
  <unicode hex="003F"/>
  <outline>
    <contour>
      <point x="150" y="177" type="line"/>
      <point x="149" y="184"/>
      <point x="149" y="192"/>
      <point x="149" y="199" type="curve" smooth="yes"/>
      <point x="149" y="367"/>
      <point x="316" y="403"/>
      <point x="316" y="538" type="curve" smooth="yes"/>
      <point x="316" y="599"/>
      <point x="284" y="642"/>
      <point x="201" y="642" type="curve" smooth="yes"/>
      <point x="153" y="642"/>
      <point x="100" y="623"/>
      <point x="64" y="600" type="curve"/>
      <point x="37" y="662" type="line"/>
      <point x="88" y="693"/>
      <point x="138" y="712"/>
      <point x="221" y="712" type="curve" smooth="yes"/>
      <point x="339" y="712"/>
      <point x="399" y="641"/>
      <point x="399" y="549" type="curve" smooth="yes"/>
      <point x="399" y="369"/>
      <point x="216" y="344"/>
      <point x="216" y="177" type="curve"/>
    </contour>
    <contour>
      <point x="130" y="46" type="curve" smooth="yes"/>
      <point x="130" y="82"/>
      <point x="152" y="104"/>
      <point x="187" y="104" type="curve" smooth="yes"/>
      <point x="223" y="104"/>
      <point x="246" y="82"/>
      <point x="246" y="46" type="curve" smooth="yes"/>
      <point x="246" y="11"/>
      <point x="223" y="-12"/>
      <point x="187" y="-12" type="curve" smooth="yes"/>
      <point x="152" y="-12"/>
      <point x="130" y="11"/>
    </contour>
  </outline>
</glyph>
<glyph name="at" format="1">
  <advance width="1064"/>
  <unicode hex="0040"/>
  <outline>
    <contour>
      <point x="707" y="491" type="line"/>
      <point x="741" y="491" type="line"/>
      <point x="690" y="204" type="line"/>
      <point x="683" y="169"/>
      <point x="680" y="142"/>
      <point x="680" y="121" type="curve" smooth="yes"/>
      <point x="680" y="88"/>
      <point x="690" y="73"/>
      <point x="718" y="73" type="curve" smooth="yes"/>
      <point x="809" y="73"/>
      <point x="904" y="172"/>
      <point x="904" y="326" type="curve" smooth="yes"/>
      <point x="904" y="530"/>
      <point x="758" y="644"/>
      <point x="550" y="644" type="curve" smooth="yes"/>
      <point x="333" y="644"/>
      <point x="160" y="476"/>
      <point x="160" y="243" type="curve" smooth="yes"/>
      <point x="160" y="5"/>
      <point x="314" y="-132"/>
      <point x="546" y="-132" type="curve" smooth="yes"/>
      <point x="585" y="-132"/>
      <point x="639" y="-124"/>
      <point x="679" y="-104" type="curve"/>
      <point x="699" y="-168" type="line"/>
      <point x="639" y="-193"/>
      <point x="593" y="-200"/>
      <point x="534" y="-200" type="curve" smooth="yes"/>
      <point x="286" y="-200"/>
      <point x="87" y="-49"/>
      <point x="87" y="236" type="curve" smooth="yes"/>
      <point x="87" y="527"/>
      <point x="302" y="712"/>
      <point x="555" y="712" type="curve" smooth="yes"/>
      <point x="794" y="712"/>
      <point x="977" y="568"/>
      <point x="977" y="326" type="curve" smooth="yes"/>
      <point x="977" y="155"/>
      <point x="851" y="4"/>
      <point x="702" y="4" type="curve" smooth="yes"/>
      <point x="646" y="4"/>
      <point x="610" y="24"/>
      <point x="610" y="89" type="curve" smooth="yes"/>
      <point x="610" y="101"/>
      <point x="611" y="115"/>
      <point x="614" y="131" type="curve"/>
      <point x="610" y="131" type="line"/>
      <point x="573" y="71"/>
      <point x="506" y="4"/>
      <point x="429" y="4" type="curve" smooth="yes"/>
      <point x="364" y="4"/>
      <point x="310" y="63"/>
      <point x="310" y="155" type="curve" smooth="yes"/>
      <point x="310" y="327"/>
      <point x="430" y="498"/>
      <point x="571" y="498" type="curve" smooth="yes"/>
      <point x="620" y="498"/>
      <point x="645" y="481"/>
      <point x="673" y="460" type="curve"/>
    </contour>
    <contour>
      <point x="650" y="393" type="line"/>
      <point x="627" y="420"/>
      <point x="608" y="428"/>
      <point x="573" y="428" type="curve" smooth="yes"/>
      <point x="469" y="428"/>
      <point x="388" y="289"/>
      <point x="388" y="168" type="curve" smooth="yes"/>
      <point x="388" y="116"/>
      <point x="406" y="74"/>
      <point x="462" y="74" type="curve" smooth="yes"/>
      <point x="516" y="74"/>
      <point x="580" y="152"/>
      <point x="620" y="230" type="curve"/>
    </contour>
  </outline>
</glyph>
<glyph name="B" format="1">
  <advance width="579"/>
  <unicode hex="0042"/>
  <outline>
    <contour>
      <point x="502" y="540" type="curve" smooth="yes"/>
      <point x="502" y="471"/>
      <point x="461" y="399"/>
      <point x="370" y="375" type="curve"/>
      <point x="370" y="371" type="line"/>
      <point x="449" y="358"/>
      <point x="523" y="308"/>
      <point x="523" y="199" type="curve" smooth="yes"/>
      <point x="523" y="54"/>
      <point x="393" y="-8"/>
      <point x="262" y="-8" type="curve" smooth="yes"/>
      <point x="218" y="-8"/>
      <point x="132" y="-9"/>
      <point x="80" y="5" type="curve"/>
      <point x="80" y="694" type="line"/>
      <point x="129" y="702"/>
      <point x="196" y="708"/>
      <point x="273" y="708" type="curve" smooth="yes"/>
      <point x="376" y="708"/>
      <point x="502" y="680"/>
    </contour>
    <contour>
      <point x="270" y="64" type="curve" smooth="yes"/>
      <point x="356" y="64"/>
      <point x="435" y="105"/>
      <point x="435" y="193" type="curve" smooth="yes"/>
      <point x="435" y="301"/>
      <point x="338" y="322"/>
      <point x="250" y="322" type="curve" smooth="yes"/>
      <point x="163" y="322" type="line"/>
      <point x="163" y="71" type="line"/>
      <point x="181" y="66"/>
      <point x="237" y="64"/>
    </contour>
    <contour>
      <point x="215" y="392" type="line" smooth="yes"/>
      <point x="238" y="392"/>
      <point x="275" y="393"/>
      <point x="296" y="396" type="curve"/>
      <point x="359" y="417"/>
      <point x="414" y="457"/>
      <point x="414" y="523" type="curve" smooth="yes"/>
      <point x="414" y="610"/>
      <point x="341" y="636"/>
      <point x="265" y="636" type="curve" smooth="yes"/>
      <point x="221" y="636"/>
      <point x="182" y="634"/>
      <point x="163" y="630" type="curve"/>
      <point x="163" y="392" type="line"/>
    </contour>
  </outline>
</glyph>
<glyph name="C" format="1">
  <advance width="575"/>
  <unicode hex="0043"/>
  <outline>
    <contour>
      <point x="537" y="29" type="line"/>
      <point x="497" y="-2"/>
      <point x="432" y="-12"/>
      <point x="363" y="-12" type="curve" smooth="yes"/>
      <point x="196" y="-12"/>
      <point x="60" y="99"/>
      <point x="60" y="350" type="curve" smooth="yes"/>
      <point x="60" y="610"/>
      <point x="216" y="712"/>
      <point x="364" y="712" type="curve" smooth="yes"/>
      <point x="444" y="712"/>
      <point x="491" y="703"/>
      <point x="527" y="688" type="curve"/>
      <point x="507" y="615" type="line"/>
      <point x="475" y="630"/>
      <point x="429" y="638"/>
      <point x="370" y="638" type="curve" smooth="yes"/>
      <point x="260" y="638"/>
      <point x="148" y="563"/>
      <point x="148" y="350" type="curve" smooth="yes"/>
      <point x="148" y="158"/>
      <point x="250" y="62"/>
      <point x="382" y="62" type="curve" smooth="yes"/>
      <point x="442" y="62"/>
      <point x="486" y="75"/>
      <point x="517" y="94" type="curve"/>
    </contour>
  </outline>
</glyph>
<glyph name="D" format="1">
  <advance width="653.0"/>
  <unicode hex="0044"/>
  <outline>
    <contour>
      <point x="80" y="700" type="line"/>
      <point x="130" y="708"/>
      <point x="212" y="708"/>
      <point x="267" y="708" type="curve" smooth="yes"/>
      <point x="491" y="708"/>
      <point x="593" y="563"/>
      <point x="593" y="355" type="curve" smooth="yes"/>
      <point x="593" y="167"/>
      <point x="500" y="-9"/>
      <point x="257" y="-9" type="curve" smooth="yes"/>
      <point x="216" y="-9"/>
      <point x="106" y="-6"/>
      <point x="80" y="-1" type="curve"/>
    </contour>
    <contour>
      <point x="269" y="634" type="curve" smooth="yes"/>
      <point x="234" y="634"/>
      <point x="182" y="632"/>
      <point x="163" y="629" type="curve"/>
      <point x="163" y="69" type="line"/>
      <point x="177" y="66"/>
      <point x="245" y="65"/>
      <point x="259" y="65" type="curve" smooth="yes"/>
      <point x="447" y="65"/>
      <point x="505" y="205"/>
      <point x="505" y="355" type="curve" smooth="yes"/>
      <point x="505" y="485"/>
      <point x="453" y="634"/>
    </contour>
  </outline>
</glyph>
<glyph name="E" format="1">
  <advance width="531"/>
  <unicode hex="0045"/>
  <outline>
    <contour>
      <point x="80" y="700" type="line"/>
      <point x="461" y="700" type="line"/>
      <point x="461" y="626" type="line"/>
      <point x="163" y="626" type="line"/>
      <point x="163" y="397" type="line"/>
      <point x="436" y="397" type="line"/>
      <point x="436" y="323" type="line"/>
      <point x="163" y="323" type="line"/>
      <point x="163" y="74" type="line"/>
      <point x="466" y="74" type="line"/>
      <point x="466" y="0" type="line"/>
      <point x="80" y="0" type="line"/>
    </contour>
  </outline>
</glyph>
<glyph name="F" format="1">
  <advance width="512"/>
  <unicode hex="0046"/>
  <outline>
    <contour>
      <point x="80" y="700" type="line"/>
      <point x="461" y="700" type="line"/>
      <point x="461" y="626" type="line"/>
      <point x="163" y="626" type="line"/>
      <point x="163" y="387" type="line"/>
      <point x="441" y="387" type="line"/>
      <point x="441" y="313" type="line"/>
      <point x="163" y="313" type="line"/>
      <point x="163" y="0" type="line"/>
      <point x="80" y="0" type="line"/>
    </contour>
  </outline>
</glyph>
<glyph name="G" format="1">
  <advance width="616"/>
  <unicode hex="0047"/>
  <outline>
    <contour>
      <point x="325" y="349" type="line"/>
      <point x="560" y="349" type="line"/>
      <point x="560" y="41" type="line"/>
      <point x="516" y="8"/>
      <point x="437" y="-12"/>
      <point x="367" y="-12" type="curve" smooth="yes"/>
      <point x="189" y="-12"/>
      <point x="60" y="101"/>
      <point x="60" y="350" type="curve" smooth="yes"/>
      <point x="60" y="610"/>
      <point x="225" y="712"/>
      <point x="374" y="712" type="curve" smooth="yes"/>
      <point x="454" y="712"/>
      <point x="503" y="703"/>
      <point x="539" y="688" type="curve"/>
      <point x="518" y="615" type="line"/>
      <point x="486" y="630"/>
      <point x="440" y="638"/>
      <point x="381" y="638" type="curve" smooth="yes"/>
      <point x="270" y="638"/>
      <point x="148" y="566"/>
      <point x="148" y="350" type="curve" smooth="yes"/>
      <point x="148" y="154"/>
      <point x="243" y="62"/>
      <point x="380" y="62" type="curve" smooth="yes"/>
      <point x="423" y="62"/>
      <point x="459" y="70"/>
      <point x="489" y="87" type="curve"/>
      <point x="489" y="282" type="line"/>
      <point x="325" y="302" type="line"/>
    </contour>
  </outline>
</glyph>
<glyph name="H" format="1">
  <advance width="662.0"/>
  <unicode hex="0048"/>
  <outline>
    <contour>
      <point x="499" y="321" type="line"/>
      <point x="163" y="321" type="line"/>
      <point x="163" y="0" type="line"/>
      <point x="80" y="0" type="line"/>
      <point x="80" y="700" type="line"/>
      <point x="163" y="700" type="line"/>
      <point x="163" y="395" type="line"/>
      <point x="499" y="395" type="line"/>
      <point x="499" y="700" type="line"/>
      <point x="582" y="700" type="line"/>
      <point x="582" y="0" type="line"/>
      <point x="499" y="0" type="line"/>
    </contour>
  </outline>
</glyph>
<glyph name="I" format="1">
  <advance width="243.0"/>
  <unicode hex="0049"/>
  <outline>
    <contour>
      <point x="80" y="700" type="line"/>
      <point x="163" y="700" type="line"/>
      <point x="163" y="0" type="line"/>
      <point x="80" y="0" type="line"/>
    </contour>
  </outline>
</glyph>
<glyph name="J" format="1">
  <advance width="291"/>
  <unicode hex="004A"/>
  <outline>
    <contour>
      <point x="112" y="700" type="line"/>
      <point x="195" y="700" type="line"/>
      <point x="195" y="154" type="line" smooth="yes"/>
      <point x="195" y="47"/>
      <point x="148" y="-10"/>
      <point x="52" y="-10" type="curve" smooth="yes"/>
      <point x="30" y="-10"/>
      <point x="-15" y="-5"/>
      <point x="-34" y="6" type="curve"/>
      <point x="-18" y="77" type="line"/>
      <point x="1" y="68"/>
      <point x="21" y="64"/>
      <point x="43" y="64" type="curve" smooth="yes"/>
      <point x="99" y="64"/>
      <point x="112" y="106"/>
      <point x="112" y="174" type="curve" smooth="yes"/>
    </contour>
  </outline>
</glyph>
<glyph name="K" format="1">
  <advance width="605"/>
  <unicode hex="004B"/>
  <outline>
    <contour>
      <point x="210" y="324" type="line"/>
      <point x="163" y="324" type="line"/>
      <point x="163" y="0" type="line"/>
      <point x="80" y="0" type="line"/>
      <point x="80" y="700" type="line"/>
      <point x="163" y="700" type="line"/>
      <point x="163" y="374" type="line"/>
      <point x="208" y="388" type="line"/>
      <point x="443" y="700" type="line"/>
      <point x="539" y="700" type="line"/>
      <point x="305" y="399" type="line"/>
      <point x="263" y="366" type="line"/>
      <point x="314" y="326" type="line"/>
      <point x="570" y="0" type="line"/>
      <point x="465" y="0" type="line"/>
    </contour>
  </outline>
</glyph>
<glyph name="M" format="1">
  <advance width="781.0"/>
  <unicode hex="004D"/>
  <outline>
    <contour>
      <point x="618" y="470" type="line"/>
      <point x="628" y="575" type="line"/>
      <point x="623" y="575" type="line"/>
      <point x="585" y="479" type="line"/>
      <point x="403" y="163" type="line"/>
      <point x="378" y="163" type="line"/>
      <point x="185" y="480" type="line"/>
      <point x="149" y="575" type="line"/>
      <point x="144" y="575" type="line"/>
      <point x="158" y="471" type="line"/>
      <point x="158" y="0" type="line"/>
      <point x="80" y="0" type="line"/>
      <point x="80" y="700" type="line"/>
      <point x="142" y="700" type="line"/>
      <point x="361" y="342" type="line"/>
      <point x="394" y="264" type="line"/>
      <point x="396" y="264" type="line"/>
      <point x="427" y="344" type="line"/>
      <point x="636" y="700" type="line"/>
      <point x="701" y="700" type="line"/>
      <point x="701" y="0" type="line"/>
      <point x="618" y="0" type="line"/>
    </contour>
  </outline>
</glyph>
<glyph name="N" format="1">
  <advance width="663.0"/>
  <unicode hex="004E"/>
  <outline>
    <contour>
      <point x="206" y="458" type="line"/>
      <point x="152" y="559" type="line"/>
      <point x="148" y="559" type="line"/>
      <point x="158" y="458" type="line"/>
      <point x="158" y="0" type="line"/>
      <point x="80" y="0" type="line"/>
      <point x="80" y="711" type="line"/>
      <point x="124" y="711" type="line"/>
      <point x="459" y="244" type="line"/>
      <point x="511" y="148" type="line"/>
      <point x="516" y="148" type="line"/>
      <point x="505" y="244" type="line"/>
      <point x="505" y="700" type="line"/>
      <point x="583" y="700" type="line"/>
      <point x="583" y="-11" type="line"/>
      <point x="539" y="-11" type="line"/>
    </contour>
  </outline>
</glyph>
<glyph name="O" format="1">
  <advance width="684"/>
  <unicode hex="004F"/>
  <outline>
    <contour>
      <point x="56" y="350" type="curve" smooth="yes"/>
      <point x="56" y="583"/>
      <point x="158" y="712"/>
      <point x="341" y="712" type="curve" smooth="yes"/>
      <point x="538" y="712"/>
      <point x="628" y="568"/>
      <point x="628" y="350" type="curve" smooth="yes"/>
      <point x="628" y="117"/>
      <point x="525" y="-12"/>
      <point x="341" y="-12" type="curve" smooth="yes"/>
      <point x="146" y="-12"/>
      <point x="56" y="132"/>
    </contour>
    <contour>
      <point x="144" y="350" type="curve" smooth="yes"/>
      <point x="144" y="196"/>
      <point x="204" y="62"/>
      <point x="341" y="62" type="curve" smooth="yes"/>
      <point x="465" y="62"/>
      <point x="540" y="154"/>
      <point x="540" y="350" type="curve" smooth="yes"/>
      <point x="540" y="503"/>
      <point x="480" y="638"/>
      <point x="341" y="638" type="curve" smooth="yes"/>
      <point x="218" y="638"/>
      <point x="144" y="546"/>
    </contour>
  </outline>
</glyph>
<glyph name="P" format="1">
  <advance width="554"/>
  <unicode hex="0050"/>
  <outline>
    <contour>
      <point x="80" y="693" type="line"/>
      <point x="131" y="705"/>
      <point x="192" y="708"/>
      <point x="249" y="708" type="curve" smooth="yes"/>
      <point x="372" y="708"/>
      <point x="517" y="667"/>
      <point x="517" y="493" type="curve" smooth="yes"/>
      <point x="517" y="322"/>
      <point x="384" y="262"/>
      <point x="245" y="262" type="curve" smooth="yes"/>
      <point x="231" y="262"/>
      <point x="178" y="263"/>
      <point x="163" y="266" type="curve"/>
      <point x="163" y="0" type="line"/>
      <point x="80" y="0" type="line"/>
    </contour>
    <contour>
      <point x="251" y="636" type="curve" smooth="yes"/>
      <point x="216" y="636"/>
      <point x="182" y="635"/>
      <point x="163" y="630" type="curve"/>
      <point x="163" y="340" type="line"/>
      <point x="176" y="335"/>
      <point x="228" y="336"/>
      <point x="241" y="336" type="curve" smooth="yes"/>
      <point x="332" y="336"/>
      <point x="429" y="364"/>
      <point x="429" y="493" type="curve" smooth="yes"/>
      <point x="429" y="602"/>
      <point x="337" y="636"/>
    </contour>
  </outline>
</glyph>
<glyph name="Q" format="1">
  <advance width="684"/>
  <unicode hex="0051"/>
  <outline>
    <contour>
      <point x="704" y="-171" type="line"/>
      <point x="672" y="-180"/>
      <point x="642" y="-183"/>
      <point x="611" y="-183" type="curve" smooth="yes"/>
      <point x="478" y="-183"/>
      <point x="357" y="-116"/>
      <point x="258" y="-116" type="curve" smooth="yes"/>
      <point x="242" y="-116"/>
      <point x="227" y="-118"/>
      <point x="212" y="-122" type="curve"/>
      <point x="212" y="-49" type="line"/>
      <point x="231" y="-45"/>
      <point x="247" y="-42"/>
      <point x="266" y="-42" type="curve" smooth="yes"/>
      <point x="378" y="-42"/>
      <point x="485" y="-109"/>
      <point x="617" y="-109" type="curve" smooth="yes"/>
      <point x="646" y="-109"/>
      <point x="675" y="-106"/>
      <point x="704" y="-99" type="curve"/>
    </contour>
    <contour>
      <point x="56" y="350" type="curve" smooth="yes"/>
      <point x="56" y="583"/>
      <point x="158" y="712"/>
      <point x="341" y="712" type="curve" smooth="yes"/>
      <point x="538" y="712"/>
      <point x="628" y="568"/>
      <point x="628" y="350" type="curve" smooth="yes"/>
      <point x="628" y="117"/>
      <point x="525" y="-12"/>
      <point x="341" y="-12" type="curve" smooth="yes"/>
      <point x="146" y="-12"/>
      <point x="56" y="132"/>
    </contour>
    <contour>
      <point x="144" y="350" type="curve" smooth="yes"/>
      <point x="144" y="196"/>
      <point x="204" y="62"/>
      <point x="341" y="62" type="curve" smooth="yes"/>
      <point x="465" y="62"/>
      <point x="540" y="154"/>
      <point x="540" y="350" type="curve" smooth="yes"/>
      <point x="540" y="503"/>
      <point x="480" y="638"/>
      <point x="341" y="638" type="curve" smooth="yes"/>
      <point x="218" y="638"/>
      <point x="144" y="546"/>
    </contour>
  </outline>
</glyph>
<glyph name="R" format="1">
  <advance width="590"/>
  <unicode hex="0052"/>
  <outline>
    <contour>
      <point x="80" y="693" type="line"/>
      <point x="131" y="702"/>
      <point x="203" y="708"/>
      <point x="258" y="708" type="curve" smooth="yes"/>
      <point x="380" y="708"/>
      <point x="488" y="657"/>
      <point x="488" y="515" type="curve" smooth="yes"/>
      <point x="488" y="406"/>
      <point x="421" y="337"/>
      <point x="329" y="314" type="curve"/>
      <point x="377" y="277" type="line"/>
      <point x="551" y="0" type="line"/>
      <point x="454" y="0" type="line"/>
      <point x="261" y="302" type="line"/>
      <point x="163" y="317" type="line"/>
      <point x="163" y="0" type="line"/>
      <point x="80" y="0" type="line"/>
    </contour>
    <contour>
      <point x="260" y="636" type="curve" smooth="yes"/>
      <point x="226" y="636"/>
      <point x="182" y="636"/>
      <point x="163" y="630" type="curve"/>
      <point x="163" y="372" type="line"/>
      <point x="241" y="372" type="line" smooth="yes"/>
      <point x="333" y="372"/>
      <point x="400" y="416"/>
      <point x="400" y="512" type="curve" smooth="yes"/>
      <point x="400" y="584"/>
      <point x="348" y="636"/>
    </contour>
  </outline>
</glyph>
<glyph name="S" format="1">
  <advance width="531"/>
  <unicode hex="0053"/>
  <outline>
    <contour>
      <point x="401" y="178" type="curve" smooth="yes"/>
      <point x="401" y="346"/>
      <point x="63" y="301"/>
      <point x="63" y="534" type="curve" smooth="yes"/>
      <point x="63" y="643"/>
      <point x="142" y="712"/>
      <point x="282" y="712" type="curve" smooth="yes"/>
      <point x="363" y="712"/>
      <point x="434" y="699"/>
      <point x="471" y="680" type="curve"/>
      <point x="446" y="607" type="line"/>
      <point x="415" y="622"/>
      <point x="353" y="638"/>
      <point x="278" y="638" type="curve" smooth="yes"/>
      <point x="190" y="638"/>
      <point x="146" y="592"/>
      <point x="146" y="539" type="curve" smooth="yes"/>
      <point x="146" y="384"/>
      <point x="484" y="406"/>
      <point x="484" y="185" type="curve" smooth="yes"/>
      <point x="484" y="66"/>
      <point x="395" y="-12"/>
      <point x="246" y="-12" type="curve" smooth="yes"/>
      <point x="146" y="-12"/>
      <point x="82" y="6"/>
      <point x="46" y="25" type="curve"/>
      <point x="74" y="100" type="line"/>
      <point x="105" y="83"/>
      <point x="168" y="62"/>
      <point x="243" y="62" type="curve" smooth="yes"/>
      <point x="331" y="62"/>
      <point x="401" y="97"/>
    </contour>
  </outline>
</glyph>
<glyph name="U" format="1">
  <advance width="652"/>
  <unicode hex="0055"/>
  <outline>
    <contour>
      <point x="487" y="700" type="line"/>
      <point x="567" y="700" type="line"/>
      <point x="567" y="233" type="line" smooth="yes"/>
      <point x="567" y="64"/>
      <point x="475" y="-9"/>
      <point x="335" y="-9" type="curve" smooth="yes"/>
      <point x="170" y="-9"/>
      <point x="85" y="65"/>
      <point x="85" y="217" type="curve" smooth="yes"/>
      <point x="85" y="700" type="line"/>
      <point x="168" y="700" type="line"/>
      <point x="168" y="256" type="line" smooth="yes"/>
      <point x="168" y="115"/>
      <point x="224" y="65"/>
      <point x="336" y="65" type="curve" smooth="yes"/>
      <point x="444" y="65"/>
      <point x="487" y="120"/>
      <point x="487" y="256" type="curve" smooth="yes"/>
    </contour>
  </outline>
</glyph>
<glyph name="a" format="1">
  <advance width="496"/>
  <unicode hex="0061"/>
  <outline>
    <contour>
      <point x="69" y="463" type="line"/>
      <point x="120" y="494"/>
      <point x="190" y="508"/>
      <point x="263" y="508" type="curve" smooth="yes"/>
      <point x="402" y="508"/>
      <point x="422" y="425"/>
      <point x="422" y="354" type="curve" smooth="yes"/>
      <point x="422" y="274"/>
      <point x="416" y="197"/>
      <point x="416" y="129" type="curve" smooth="yes"/>
      <point x="416" y="80"/>
      <point x="419" y="35"/>
      <point x="430" y="-2" type="curve"/>
      <point x="371" y="-2" type="line"/>
      <point x="350" y="68" type="line"/>
      <point x="345" y="68" type="line"/>
      <point x="321" y="31"/>
      <point x="274" y="-8"/>
      <point x="189" y="-8" type="curve" smooth="yes"/>
      <point x="104" y="-8"/>
      <point x="39" y="47"/>
      <point x="39" y="134" type="curve" smooth="yes"/>
      <point x="39" y="251"/>
      <point x="139" y="287"/>
      <point x="286" y="287" type="curve" smooth="yes"/>
      <point x="305" y="287"/>
      <point x="322" y="288"/>
      <point x="341" y="285" type="curve"/>
      <point x="343" y="305"/>
      <point x="344" y="323"/>
      <point x="344" y="339" type="curve" smooth="yes"/>
      <point x="344" y="412"/>
      <point x="319" y="438"/>
      <point x="242" y="438" type="curve" smooth="yes"/>
      <point x="198" y="438"/>
      <point x="131" y="424"/>
      <point x="94" y="403" type="curve"/>
    </contour>
    <contour>
      <point x="211" y="62" type="curve" smooth="yes"/>
      <point x="286" y="62"/>
      <point x="328" y="106"/>
      <point x="341" y="141" type="curve"/>
      <point x="341" y="224" type="line"/>
      <point x="322" y="225"/>
      <point x="303" y="226"/>
      <point x="284" y="226" type="curve" smooth="yes"/>
      <point x="200" y="226"/>
      <point x="122" y="210"/>
      <point x="122" y="142" type="curve" smooth="yes"/>
      <point x="122" y="95"/>
      <point x="159" y="62"/>
    </contour>
  </outline>
</glyph>
<glyph name="b" format="1">
  <advance width="540"/>
  <unicode hex="0062"/>
  <outline>
    <contour>
      <point x="77" y="700" type="line"/>
      <point x="157" y="700" type="line"/>
      <point x="157" y="451" type="line"/>
      <point x="161" y="451" type="line"/>
      <point x="192" y="490"/>
      <point x="241" y="512"/>
      <point x="297" y="512" type="curve" smooth="yes"/>
      <point x="426" y="512"/>
      <point x="491" y="431"/>
      <point x="491" y="258" type="curve" smooth="yes"/>
      <point x="491" y="83"/>
      <point x="402" y="-9"/>
      <point x="247" y="-9" type="curve" smooth="yes"/>
      <point x="172" y="-9"/>
      <point x="108" y="10"/>
      <point x="77" y="29" type="curve"/>
    </contour>
    <contour>
      <point x="283" y="442" type="curve" smooth="yes"/>
      <point x="216" y="442"/>
      <point x="176" y="403"/>
      <point x="157" y="335" type="curve"/>
      <point x="157" y="83" type="line"/>
      <point x="182" y="68"/>
      <point x="220" y="61"/>
      <point x="259" y="61" type="curve" smooth="yes"/>
      <point x="350" y="61"/>
      <point x="408" y="123"/>
      <point x="408" y="259" type="curve" smooth="yes"/>
      <point x="408" y="364"/>
      <point x="373" y="442"/>
    </contour>
  </outline>
</glyph>
<glyph name="c" format="1">
  <advance width="451"/>
  <unicode hex="0063"/>
  <outline>
    <contour>
      <point x="418" y="33" type="line"/>
      <point x="378" y="4"/>
      <point x="321" y="-12"/>
      <point x="261" y="-12" type="curve" smooth="yes"/>
      <point x="107" y="-12"/>
      <point x="49" y="92"/>
      <point x="49" y="250" type="curve" smooth="yes"/>
      <point x="49" y="419"/>
      <point x="126" y="512"/>
      <point x="266" y="512" type="curve" smooth="yes"/>
      <point x="330" y="512"/>
      <point x="372" y="502"/>
      <point x="408" y="483" type="curve"/>
      <point x="385" y="414" type="line"/>
      <point x="354" y="431"/>
      <point x="317" y="442"/>
      <point x="274" y="442" type="curve" smooth="yes"/>
      <point x="179" y="442"/>
      <point x="132" y="378"/>
      <point x="132" y="250" type="curve" smooth="yes"/>
      <point x="132" y="150"/>
      <point x="169" y="58"/>
      <point x="281" y="58" type="curve" smooth="yes"/>
      <point x="329" y="58"/>
      <point x="368" y="75"/>
      <point x="392" y="94" type="curve"/>
    </contour>
  </outline>
</glyph>
<glyph name="d" format="1">
  <advance width="538"/>
  <unicode hex="0064"/>
  <outline>
    <contour>
      <point x="461" y="172" type="line" smooth="yes"/>
      <point x="461" y="104"/>
      <point x="460" y="51"/>
      <point x="471" y="-2" type="curve"/>
      <point x="417" y="-2" type="line"/>
      <point x="397" y="69" type="line"/>
      <point x="393" y="69" type="line"/>
      <point x="366" y="22"/>
      <point x="314" y="-12"/>
      <point x="246" y="-12" type="curve" smooth="yes"/>
      <point x="113" y="-12"/>
      <point x="49" y="69"/>
      <point x="49" y="248" type="curve" smooth="yes"/>
      <point x="49" y="419"/>
      <point x="135" y="509"/>
      <point x="276" y="509" type="curve" smooth="yes"/>
      <point x="325" y="509"/>
      <point x="348" y="504"/>
      <point x="381" y="492" type="curve"/>
      <point x="381" y="700" type="line"/>
      <point x="461" y="700" type="line"/>
    </contour>
    <contour>
      <point x="259" y="58" type="curve" smooth="yes"/>
      <point x="327" y="58"/>
      <point x="366" y="93"/>
      <point x="381" y="165" type="curve"/>
      <point x="381" y="413" type="line"/>
      <point x="357" y="432"/>
      <point x="330" y="439"/>
      <point x="279" y="439" type="curve" smooth="yes"/>
      <point x="187" y="439"/>
      <point x="132" y="381"/>
      <point x="132" y="248" type="curve" smooth="yes"/>
      <point x="132" y="139"/>
      <point x="165" y="58"/>
    </contour>
  </outline>
</glyph>
<glyph name="e" format="1">
  <advance width="508"/>
  <unicode hex="0065"/>
  <outline>
    <contour>
      <point x="442" y="40" type="line"/>
      <point x="402" y="8"/>
      <point x="338" y="-12"/>
      <point x="270" y="-12" type="curve" smooth="yes"/>
      <point x="117" y="-12"/>
      <point x="49" y="91"/>
      <point x="49" y="250" type="curve" smooth="yes"/>
      <point x="49" y="421"/>
      <point x="128" y="512"/>
      <point x="269" y="512" type="curve" smooth="yes"/>
      <point x="360" y="512"/>
      <point x="459" y="482"/>
      <point x="459" y="315" type="curve" smooth="yes"/>
      <point x="459" y="293"/>
      <point x="457" y="269"/>
      <point x="453" y="242" type="curve"/>
      <point x="132" y="242" type="line"/>
      <point x="132" y="126"/>
      <point x="177" y="58"/>
      <point x="293" y="58" type="curve" smooth="yes"/>
      <point x="338" y="58"/>
      <point x="389" y="77"/>
      <point x="412" y="98" type="curve"/>
    </contour>
    <contour>
      <point x="270" y="442" type="curve" smooth="yes"/>
      <point x="191" y="442"/>
      <point x="142" y="405"/>
      <point x="133" y="305" type="curve"/>
      <point x="381" y="305" type="line"/>
      <point x="381" y="406"/>
      <point x="341" y="442"/>
    </contour>
  </outline>
</glyph>
<glyph name="f" format="1">
  <advance width="319"/>
  <unicode hex="0066"/>
  <outline>
    <contour>
      <point x="22" y="500" type="line"/>
      <point x="100" y="500" type="line"/>
      <point x="100" y="528" type="line" smooth="yes"/>
      <point x="100" y="652"/>
      <point x="137" y="706"/>
      <point x="243" y="706" type="curve" smooth="yes"/>
      <point x="286" y="706"/>
      <point x="315" y="702"/>
      <point x="351" y="687" type="curve"/>
      <point x="333" y="620" type="line"/>
      <point x="302" y="633"/>
      <point x="275" y="636"/>
      <point x="251" y="636" type="curve" smooth="yes"/>
      <point x="182" y="636"/>
      <point x="180" y="593"/>
      <point x="180" y="514" type="curve" smooth="yes"/>
      <point x="180" y="500" type="line"/>
      <point x="313" y="500" type="line"/>
      <point x="313" y="430" type="line"/>
      <point x="180" y="430" type="line"/>
      <point x="180" y="0" type="line"/>
      <point x="100" y="0" type="line"/>
      <point x="100" y="430" type="line"/>
      <point x="22" y="430" type="line"/>
    </contour>
  </outline>
</glyph>
<glyph name="g" format="1">
  <advance width="537"/>
  <unicode hex="0067"/>
  <outline>
    <contour>
      <point x="460" y="-23" type="line" smooth="yes"/>
      <point x="460" y="-152"/>
      <point x="391" y="-212"/>
      <point x="256" y="-212" type="curve" smooth="yes"/>
      <point x="176" y="-212"/>
      <point x="132" y="-201"/>
      <point x="97" y="-185" type="curve"/>
      <point x="118" y="-117" type="line"/>
      <point x="149" y="-129"/>
      <point x="182" y="-142"/>
      <point x="242" y="-142" type="curve" smooth="yes"/>
      <point x="353" y="-142"/>
      <point x="381" y="-102"/>
      <point x="381" y="1" type="curve" smooth="yes"/>
      <point x="381" y="49" type="line"/>
      <point x="377" y="49" type="line"/>
      <point x="350" y="10"/>
      <point x="312" y="-11"/>
      <point x="245" y="-11" type="curve" smooth="yes"/>
      <point x="110" y="-11"/>
      <point x="49" y="71"/>
      <point x="49" y="248" type="curve" smooth="yes"/>
      <point x="49" y="419"/>
      <point x="131" y="509"/>
      <point x="290" y="509" type="curve" smooth="yes"/>
      <point x="366" y="509"/>
      <point x="417" y="495"/>
      <point x="460" y="479" type="curve"/>
    </contour>
    <contour>
      <point x="259" y="59" type="curve" smooth="yes"/>
      <point x="327" y="59"/>
      <point x="364" y="92"/>
      <point x="380" y="164" type="curve"/>
      <point x="380" y="420" type="line"/>
      <point x="353" y="433"/>
      <point x="319" y="439"/>
      <point x="278" y="439" type="curve" smooth="yes"/>
      <point x="187" y="439"/>
      <point x="132" y="380"/>
      <point x="132" y="249" type="curve" smooth="yes"/>
      <point x="132" y="137"/>
      <point x="167" y="59"/>
    </contour>
  </outline>
</glyph>
<glyph name="i" format="1">
  <advance width="268"/>
  <unicode hex="0069"/>
  <outline>
    <contour>
      <point x="94" y="500" type="line"/>
      <point x="174" y="500" type="line"/>
      <point x="174" y="0" type="line"/>
      <point x="94" y="0" type="line"/>
    </contour>
    <contour>
      <point x="77" y="652" type="curve" smooth="yes"/>
      <point x="77" y="683"/>
      <point x="100" y="708"/>
      <point x="132" y="708" type="curve" smooth="yes"/>
      <point x="164" y="708"/>
      <point x="190" y="683"/>
      <point x="190" y="652" type="curve" smooth="yes"/>
      <point x="190" y="621"/>
      <point x="164" y="599"/>
      <point x="132" y="599" type="curve" smooth="yes"/>
      <point x="100" y="599"/>
      <point x="77" y="621"/>
    </contour>
  </outline>
</glyph>
<glyph name="j" format="1">
  <advance width="267"/>
  <unicode hex="006A"/>
  <outline>
    <contour>
      <point x="93" y="500" type="line"/>
      <point x="173" y="500" type="line"/>
      <point x="173" y="-27" type="line" smooth="yes"/>
      <point x="173" y="-151"/>
      <point x="132" y="-212"/>
      <point x="39" y="-212" type="curve" smooth="yes"/>
      <point x="28" y="-212"/>
      <point x="20" y="-211"/>
      <point x="9" y="-210" type="curve"/>
      <point x="9" y="-142" type="line"/>
      <point x="84" y="-142"/>
      <point x="93" y="-97"/>
      <point x="93" y="3" type="curve" smooth="yes"/>
    </contour>
    <contour>
      <point x="76" y="652" type="curve" smooth="yes"/>
      <point x="76" y="683"/>
      <point x="99" y="708"/>
      <point x="131" y="708" type="curve" smooth="yes"/>
      <point x="163" y="708"/>
      <point x="189" y="683"/>
      <point x="189" y="652" type="curve" smooth="yes"/>
      <point x="189" y="621"/>
      <point x="163" y="599"/>
      <point x="131" y="599" type="curve" smooth="yes"/>
      <point x="99" y="599"/>
      <point x="76" y="621"/>
    </contour>
  </outline>
</glyph>
<glyph name="m" format="1">
  <advance width="812"/>
  <unicode hex="006D"/>
  <outline>
    <contour>
      <point x="370" y="0" type="line"/>
      <point x="370" y="283" type="line" smooth="yes"/>
      <point x="370" y="389"/>
      <point x="356" y="442"/>
      <point x="276" y="442" type="curve" smooth="yes"/>
      <point x="215" y="442"/>
      <point x="173" y="400"/>
      <point x="157" y="344" type="curve"/>
      <point x="157" y="0" type="line"/>
      <point x="77" y="0" type="line"/>
      <point x="77" y="500" type="line"/>
      <point x="133" y="500" type="line"/>
      <point x="148" y="439" type="line"/>
      <point x="152" y="439" type="line"/>
      <point x="188" y="482"/>
      <point x="231" y="512"/>
      <point x="307" y="512" type="curve" smooth="yes"/>
      <point x="371" y="512"/>
      <point x="410" y="490"/>
      <point x="433" y="429" type="curve"/>
      <point x="464" y="481"/>
      <point x="520" y="512"/>
      <point x="588" y="512" type="curve" smooth="yes"/>
      <point x="699" y="512"/>
      <point x="743" y="468"/>
      <point x="743" y="300" type="curve" smooth="yes"/>
      <point x="743" y="0" type="line"/>
      <point x="663" y="0" type="line"/>
      <point x="663" y="301" type="line" smooth="yes"/>
      <point x="663" y="397"/>
      <point x="648" y="442"/>
      <point x="568" y="442" type="curve" smooth="yes"/>
      <point x="501" y="442"/>
      <point x="466" y="403"/>
      <point x="450" y="334" type="curve"/>
      <point x="450" y="0" type="line"/>
    </contour>
  </outline>
</glyph>
<glyph name="n" format="1">
  <advance width="547"/>
  <unicode hex="006E"/>
  <outline>
    <contour>
      <point x="398" y="0" type="line"/>
      <point x="398" y="285" type="line" smooth="yes"/>
      <point x="398" y="389"/>
      <point x="373" y="442"/>
      <point x="293" y="442" type="curve" smooth="yes"/>
      <point x="222" y="442"/>
      <point x="176" y="399"/>
      <point x="157" y="342" type="curve"/>
      <point x="157" y="0" type="line"/>
      <point x="77" y="0" type="line"/>
      <point x="77" y="500" type="line"/>
      <point x="133" y="500" type="line"/>
      <point x="148" y="439" type="line"/>
      <point x="152" y="439" type="line"/>
      <point x="184" y="482"/>
      <point x="238" y="512"/>
      <point x="313" y="512" type="curve" smooth="yes"/>
      <point x="422" y="512"/>
      <point x="478" y="467"/>
      <point x="478" y="302" type="curve" smooth="yes"/>
      <point x="478" y="0" type="line"/>
    </contour>
  </outline>
</glyph>
<glyph name="o" format="1">
  <advance width="536"/>
  <unicode hex="006F"/>
  <outline>
    <contour>
      <point x="49" y="250" type="curve" smooth="yes"/>
      <point x="49" y="419"/>
      <point x="127" y="512"/>
      <point x="268" y="512" type="curve" smooth="yes"/>
      <point x="418" y="512"/>
      <point x="487" y="408"/>
      <point x="487" y="250" type="curve" smooth="yes"/>
      <point x="487" y="81"/>
      <point x="409" y="-12"/>
      <point x="268" y="-12" type="curve" smooth="yes"/>
      <point x="118" y="-12"/>
      <point x="49" y="92"/>
    </contour>
    <contour>
      <point x="132" y="250" type="curve" smooth="yes"/>
      <point x="132" y="148"/>
      <point x="169" y="58"/>
      <point x="268" y="58" type="curve"/>
      <point x="359" y="57"/>
      <point x="404" y="121"/>
      <point x="404" y="250" type="curve" smooth="yes"/>
      <point x="404" y="354"/>
      <point x="367" y="442"/>
      <point x="268" y="442" type="curve"/>
      <point x="177" y="443"/>
      <point x="132" y="379"/>
    </contour>
  </outline>
</glyph>
<glyph name="p" format="1">
  <advance width="541"/>
  <unicode hex="0070"/>
  <outline>
    <contour>
      <point x="77" y="500" type="line"/>
      <point x="132" y="500" type="line"/>
      <point x="147" y="440" type="line"/>
      <point x="151" y="440" type="line"/>
      <point x="182" y="487"/>
      <point x="231" y="512"/>
      <point x="294" y="512" type="curve" smooth="yes"/>
      <point x="427" y="512"/>
      <point x="492" y="439"/>
      <point x="492" y="260" type="curve" smooth="yes"/>
      <point x="492" y="92"/>
      <point x="401" y="-12"/>
      <point x="262" y="-12" type="curve" smooth="yes"/>
      <point x="213" y="-12"/>
      <point x="190" y="-7"/>
      <point x="157" y="8" type="curve"/>
      <point x="157" y="-200" type="line"/>
      <point x="77" y="-200" type="line"/>
    </contour>
    <contour>
      <point x="279" y="442" type="curve" smooth="yes"/>
      <point x="211" y="442"/>
      <point x="173" y="407"/>
      <point x="157" y="335" type="curve"/>
      <point x="157" y="87" type="line"/>
      <point x="181" y="68"/>
      <point x="208" y="58"/>
      <point x="259" y="58" type="curve" smooth="yes"/>
      <point x="351" y="58"/>
      <point x="409" y="128"/>
      <point x="409" y="261" type="curve" smooth="yes"/>
      <point x="409" y="370"/>
      <point x="374" y="442"/>
    </contour>
  </outline>
</glyph>
<glyph name="q" format="1">
  <advance width="537"/>
  <unicode hex="0071"/>
  <outline>
    <contour>
      <point x="460" y="-200" type="line"/>
      <point x="380" y="-200" type="line"/>
      <point x="380" y="50" type="line"/>
      <point x="376" y="50" type="line"/>
      <point x="349" y="10"/>
      <point x="312" y="-12"/>
      <point x="245" y="-12" type="curve" smooth="yes"/>
      <point x="112" y="-12"/>
      <point x="49" y="71"/>
      <point x="49" y="248" type="curve" smooth="yes"/>
      <point x="49" y="420"/>
      <point x="133" y="509"/>
      <point x="292" y="509" type="curve" smooth="yes"/>
      <point x="363" y="509"/>
      <point x="431" y="493"/>
      <point x="460" y="478" type="curve"/>
    </contour>
    <contour>
      <point x="259" y="58" type="curve" smooth="yes"/>
      <point x="327" y="58"/>
      <point x="364" y="92"/>
      <point x="380" y="164" type="curve"/>
      <point x="380" y="420" type="line"/>
      <point x="355" y="433"/>
      <point x="321" y="439"/>
      <point x="278" y="439" type="curve" smooth="yes"/>
      <point x="186" y="439"/>
      <point x="132" y="378"/>
      <point x="132" y="249" type="curve" smooth="yes"/>
      <point x="132" y="136"/>
      <point x="167" y="58"/>
    </contour>
  </outline>
</glyph>
<glyph name="r" format="1">
  <advance width="340"/>
  <unicode hex="0072"/>
  <outline>
    <contour>
      <point x="313" y="423" type="line"/>
      <point x="293" y="430"/>
      <point x="274" y="433"/>
      <point x="256" y="433" type="curve" smooth="yes"/>
      <point x="199" y="433"/>
      <point x="165" y="398"/>
      <point x="157" y="350" type="curve"/>
      <point x="157" y="0" type="line"/>
      <point x="77" y="0" type="line"/>
      <point x="77" y="500" type="line"/>
      <point x="133" y="500" type="line"/>
      <point x="148" y="439" type="line"/>
      <point x="152" y="439" type="line"/>
      <point x="177" y="484"/>
      <point x="210" y="510"/>
      <point x="265" y="510" type="curve" smooth="yes"/>
      <point x="284" y="510"/>
      <point x="306" y="507"/>
      <point x="330" y="500" type="curve"/>
    </contour>
  </outline>
</glyph>
<glyph name="s" format="1">
  <advance width="421"/>
  <unicode hex="0073"/>
  <outline>
    <contour>
      <point x="297" y="136" type="curve" smooth="yes"/>
      <point x="297" y="255"/>
      <point x="56" y="198"/>
      <point x="56" y="373" type="curve" smooth="yes"/>
      <point x="56" y="469"/>
      <point x="114" y="512"/>
      <point x="211" y="512" type="curve" smooth="yes"/>
      <point x="283" y="512"/>
      <point x="329" y="497"/>
      <point x="365" y="480" type="curve"/>
      <point x="346" y="414" type="line"/>
      <point x="315" y="429"/>
      <point x="270" y="442"/>
      <point x="221" y="442" type="curve" smooth="yes"/>
      <point x="162" y="442"/>
      <point x="136" y="424"/>
      <point x="136" y="375" type="curve" smooth="yes"/>
      <point x="136" y="273"/>
      <point x="377" y="318"/>
      <point x="377" y="139" type="curve" smooth="yes"/>
      <point x="377" y="53"/>
      <point x="320" y="-12"/>
      <point x="203" y="-12" type="curve" smooth="yes"/>
      <point x="127" y="-12"/>
      <point x="75" y="5"/>
      <point x="39" y="25" type="curve"/>
      <point x="63" y="93" type="line"/>
      <point x="94" y="76"/>
      <point x="147" y="58"/>
      <point x="198" y="58" type="curve" smooth="yes"/>
      <point x="255" y="58"/>
      <point x="297" y="77"/>
    </contour>
  </outline>
</glyph>
<glyph name="t" format="1">
  <advance width="339"/>
  <unicode hex="0074"/>
  <outline>
    <contour>
      <point x="11" y="500" type="line"/>
      <point x="89" y="500" type="line"/>
      <point x="89" y="599" type="line"/>
      <point x="169" y="622" type="line"/>
      <point x="169" y="500" type="line"/>
      <point x="305" y="500" type="line"/>
      <point x="305" y="430" type="line"/>
      <point x="169" y="430" type="line"/>
      <point x="169" y="153" type="line" smooth="yes"/>
      <point x="169" y="84"/>
      <point x="185" y="58"/>
      <point x="226" y="58" type="curve" smooth="yes"/>
      <point x="261" y="58"/>
      <point x="281" y="66"/>
      <point x="310" y="78" type="curve"/>
      <point x="328" y="17" type="line"/>
      <point x="292" y="0"/>
      <point x="249" y="-12"/>
      <point x="200" y="-12" type="curve" smooth="yes"/>
      <point x="119" y="-12"/>
      <point x="89" y="30"/>
      <point x="89" y="138" type="curve" smooth="yes"/>
      <point x="89" y="430" type="line"/>
      <point x="11" y="430" type="line"/>
    </contour>
  </outline>
</glyph>
<glyph name="u" format="1">
  <advance width="539"/>
  <unicode hex="0075"/>
  <outline>
    <contour>
      <point x="149" y="500" type="line"/>
      <point x="149" y="215" type="line" smooth="yes"/>
      <point x="149" y="111"/>
      <point x="170" y="58"/>
      <point x="247" y="58" type="curve" smooth="yes"/>
      <point x="317" y="58"/>
      <point x="361" y="107"/>
      <point x="382" y="166" type="curve"/>
      <point x="382" y="500" type="line"/>
      <point x="462" y="500" type="line"/>
      <point x="462" y="142" type="line" smooth="yes"/>
      <point x="462" y="94"/>
      <point x="465" y="39"/>
      <point x="473" y="0" type="curve"/>
      <point x="418" y="0" type="line"/>
      <point x="398" y="79" type="line"/>
      <point x="393" y="79" type="line"/>
      <point x="362" y="27"/>
      <point x="312" y="-12"/>
      <point x="232" y="-12" type="curve" smooth="yes"/>
      <point x="125" y="-12"/>
      <point x="69" y="33"/>
      <point x="69" y="198" type="curve" smooth="yes"/>
      <point x="69" y="500" type="line"/>
    </contour>
  </outline>
</glyph>
<glyph name="y" format="1">
  <advance width="466"/>
  <unicode hex="0079"/>
  <outline>
    <contour>
      <point x="224" y="176" type="line"/>
      <point x="252" y="80" type="line"/>
      <point x="257" y="80" type="line"/>
      <point x="279" y="177" type="line"/>
      <point x="376" y="500" type="line"/>
      <point x="457" y="500" type="line"/>
      <point x="309" y="51" type="line"/>
      <point x="264" y="-79"/>
      <point x="225" y="-205"/>
      <point x="136" y="-205" type="curve" smooth="yes"/>
      <point x="112" y="-205"/>
      <point x="92" y="-202"/>
      <point x="77" y="-195" type="curve"/>
      <point x="91" y="-126" type="line"/>
      <point x="100" y="-129"/>
      <point x="108" y="-131"/>
      <point x="116" y="-131" type="curve" smooth="yes"/>
      <point x="153" y="-131"/>
      <point x="190" y="-96"/>
      <point x="213" y="0" type="curve"/>
      <point x="12" y="500" type="line"/>
      <point x="104" y="500" type="line"/>
    </contour>
  </outline>
</glyph>
<glyph name="braceleft" format="1">
  <advance width="346"/>
  <unicode hex="007B"/>
  <outline>
    <contour>
      <point x="137" y="112" type="line" smooth="yes"/>
      <point x="137" y="180"/>
      <point x="108" y="200"/>
      <point x="57" y="200" type="curve"/>
      <point x="57" y="270" type="line"/>
      <point x="108" y="270"/>
      <point x="137" y="295"/>
      <point x="137" y="354" type="curve" smooth="yes"/>
      <point x="137" y="596" type="line" smooth="yes"/>
      <point x="137" y="659"/>
      <point x="168" y="701"/>
      <point x="232" y="701" type="curve" smooth="yes"/>
      <point x="317" y="701" type="line"/>
      <point x="317" y="631" type="line"/>
      <point x="267" y="631" type="line" smooth="yes"/>
      <point x="231" y="631"/>
      <point x="215" y="615"/>
      <point x="215" y="572" type="curve" smooth="yes"/>
      <point x="215" y="335" type="line" smooth="yes"/>
      <point x="215" y="276"/>
      <point x="182" y="247"/>
      <point x="145" y="240" type="curve"/>
      <point x="145" y="234" type="line"/>
      <point x="181" y="229"/>
      <point x="215" y="191"/>
      <point x="215" y="135" type="curve" smooth="yes"/>
      <point x="215" y="-101" type="line" smooth="yes"/>
      <point x="215" y="-142"/>
      <point x="229" y="-160"/>
      <point x="268" y="-160" type="curve" smooth="yes"/>
      <point x="317" y="-160" type="line"/>
      <point x="317" y="-230" type="line"/>
      <point x="232" y="-230" type="line" smooth="yes"/>
      <point x="172" y="-230"/>
      <point x="137" y="-194"/>
      <point x="137" y="-126" type="curve" smooth="yes"/>
    </contour>
  </outline>
</glyph>
<glyph name="braceright" format="1">
  <advance width="346"/>
  <unicode hex="007D"/>
  <outline>
    <contour>
      <point x="235" y="359" type="line" smooth="yes"/>
      <point x="235" y="291"/>
      <point x="264" y="271"/>
      <point x="315" y="271" type="curve"/>
      <point x="315" y="201" type="line"/>
      <point x="264" y="201"/>
      <point x="235" y="176"/>
      <point x="235" y="117" type="curve" smooth="yes"/>
      <point x="235" y="-125" type="line" smooth="yes"/>
      <point x="235" y="-188"/>
      <point x="204" y="-230"/>
      <point x="140" y="-230" type="curve" smooth="yes"/>
      <point x="55" y="-230" type="line"/>
      <point x="55" y="-160" type="line"/>
      <point x="105" y="-160" type="line" smooth="yes"/>
      <point x="141" y="-160"/>
      <point x="157" y="-144"/>
      <point x="157" y="-101" type="curve" smooth="yes"/>
      <point x="157" y="136" type="line" smooth="yes"/>
      <point x="157" y="195"/>
      <point x="189" y="224"/>
      <point x="226" y="231" type="curve"/>
      <point x="226" y="237" type="line"/>
      <point x="190" y="242"/>
      <point x="157" y="280"/>
      <point x="157" y="336" type="curve" smooth="yes"/>
      <point x="157" y="572" type="line" smooth="yes"/>
      <point x="157" y="613"/>
      <point x="142" y="631"/>
      <point x="105" y="631" type="curve" smooth="yes"/>
      <point x="55" y="631" type="line"/>
      <point x="55" y="701" type="line"/>
      <point x="141" y="701" type="line" smooth="yes"/>
      <point x="200" y="701"/>
      <point x="235" y="665"/>
      <point x="235" y="597" type="curve" smooth="yes"/>
    </contour>
  </outline>
</glyph>
<glyph name="asciitilde" format="1">
  <advance width="505"/>
  <unicode hex="007E"/>
  <outline>
    <contour>
      <point x="31" y="361" type="line"/>
      <point x="88" y="405"/>
      <point x="134" y="420"/>
      <point x="173" y="420" type="curve" smooth="yes"/>
      <point x="248" y="420"/>
      <point x="297" y="365"/>
      <point x="358" y="365" type="curve" smooth="yes"/>
      <point x="383" y="365"/>
      <point x="409" y="374"/>
      <point x="440" y="401" type="curve"/>
      <point x="474" y="340" type="line"/>
      <point x="423" y="305"/>
      <point x="383" y="293"/>
      <point x="350" y="293" type="curve" smooth="yes"/>
      <point x="277" y="293"/>
      <point x="236" y="348"/>
      <point x="172" y="348" type="curve" smooth="yes"/>
      <point x="141" y="348"/>
      <point x="108" y="336"/>
      <point x="65" y="301" type="curve"/>
    </contour>
  </outline>
</glyph>
<glyph name="exclamdown" format="1">
  <advance width="304"/>
  <unicode hex="00A1"/>
  <outline>
    <contour>
      <point x="176" y="-200" type="line"/>
      <point x="93" y="-200" type="line"/>
      <point x="93" y="147" type="line"/>
      <point x="110" y="323" type="line"/>
      <point x="159" y="323" type="line"/>
      <point x="176" y="147" type="line"/>
    </contour>
    <contour>
      <point x="74" y="453" type="curve" smooth="yes"/>
      <point x="74" y="489"/>
      <point x="96" y="511"/>
      <point x="131" y="511" type="curve" smooth="yes"/>
      <point x="167" y="511"/>
      <point x="190" y="489"/>
      <point x="190" y="453" type="curve" smooth="yes"/>
      <point x="190" y="418"/>
      <point x="167" y="395"/>
      <point x="131" y="395" type="curve" smooth="yes"/>
      <point x="96" y="395"/>
      <point x="74" y="418"/>
    </contour>
  </outline>
</glyph>
<glyph name="cent" format="1">
  <advance width="545"/>
  <unicode hex="00A2"/>
  <outline>
    <contour>
      <point x="461" y="33" type="line"/>
      <point x="429" y="10"/>
      <point x="388" y="-4"/>
      <point x="341" y="-9" type="curve"/>
      <point x="341" y="-100" type="line"/>
      <point x="270" y="-100" type="line"/>
      <point x="270" y="-10" type="line"/>
      <point x="138" y="3"/>
      <point x="87" y="102"/>
      <point x="87" y="250" type="curve" smooth="yes"/>
      <point x="87" y="403"/>
      <point x="153" y="494"/>
      <point x="270" y="509" type="curve"/>
      <point x="270" y="600" type="line"/>
      <point x="341" y="600" type="line"/>
      <point x="341" y="511" type="line"/>
      <point x="388" y="508"/>
      <point x="423" y="498"/>
      <point x="452" y="483" type="curve"/>
      <point x="429" y="415" type="line"/>
      <point x="402" y="428"/>
      <point x="369" y="438"/>
      <point x="334" y="441" type="curve"/>
      <point x="334" y="58" type="line"/>
      <point x="377" y="61"/>
      <point x="412" y="77"/>
      <point x="435" y="94" type="curve"/>
    </contour>
    <contour>
      <point x="170" y="250" type="curve" smooth="yes"/>
      <point x="170" y="163"/>
      <point x="197" y="81"/>
      <point x="280" y="62" type="curve"/>
      <point x="280" y="439" type="line"/>
      <point x="207" y="425"/>
      <point x="170" y="362"/>
    </contour>
  </outline>
</glyph>
<glyph name="sterling" format="1">
  <advance width="545"/>
  <unicode hex="00A3"/>
  <outline>
    <contour>
      <point x="42" y="383" type="line"/>
      <point x="108" y="383" type="line"/>
      <point x="92" y="418"/>
      <point x="80" y="457"/>
      <point x="80" y="513" type="curve" smooth="yes"/>
      <point x="80" y="644"/>
      <point x="160" y="712"/>
      <point x="289" y="712" type="curve" smooth="yes"/>
      <point x="370" y="712"/>
      <point x="430" y="699"/>
      <point x="469" y="680" type="curve"/>
      <point x="443" y="609" type="line"/>
      <point x="412" y="624"/>
      <point x="361" y="638"/>
      <point x="288" y="638" type="curve" smooth="yes"/>
      <point x="208" y="638"/>
      <point x="163" y="591"/>
      <point x="163" y="518" type="curve" smooth="yes"/>
      <point x="163" y="462"/>
      <point x="178" y="422"/>
      <point x="197" y="383" type="curve"/>
      <point x="358" y="383" type="line"/>
      <point x="358" y="313" type="line"/>
      <point x="227" y="313" type="line"/>
      <point x="238" y="282"/>
      <point x="245" y="250"/>
      <point x="245" y="210" type="curve" smooth="yes"/>
      <point x="245" y="170"/>
      <point x="233" y="124"/>
      <point x="209" y="97" type="curve"/>
      <point x="170" y="64" type="line"/>
      <point x="170" y="60" type="line"/>
      <point x="232" y="74" type="line"/>
      <point x="488" y="74" type="line"/>
      <point x="488" y="0" type="line"/>
      <point x="42" y="0" type="line"/>
      <point x="42" y="72" type="line"/>
      <point x="126" y="72"/>
      <point x="162" y="139"/>
      <point x="162" y="203" type="curve" smooth="yes"/>
      <point x="162" y="247"/>
      <point x="152" y="281"/>
      <point x="139" y="313" type="curve"/>
      <point x="42" y="313" type="line"/>
    </contour>
  </outline>
</glyph>
<glyph name="currency" format="1">
  <advance width="545"/>
  <unicode hex="00A4"/>
  <outline>
    <contour>
      <point x="70" y="596" type="line"/>
      <point x="148" y="519" type="line"/>
      <point x="169" y="484" type="line"/>
      <point x="197" y="506"/>
      <point x="231" y="517"/>
      <point x="272" y="517" type="curve" smooth="yes"/>
      <point x="311" y="517"/>
      <point x="346" y="506"/>
      <point x="375" y="484" type="curve"/>
      <point x="397" y="519" type="line"/>
      <point x="475" y="596" type="line"/>
      <point x="524" y="547" type="line"/>
      <point x="447" y="469" type="line"/>
      <point x="412" y="447" type="line"/>
      <point x="433" y="418"/>
      <point x="444" y="384"/>
      <point x="444" y="345" type="curve" smooth="yes"/>
      <point x="444" y="305"/>
      <point x="433" y="271"/>
      <point x="412" y="242" type="curve"/>
      <point x="447" y="221" type="line"/>
      <point x="524" y="143" type="line"/>
      <point x="475" y="95" type="line"/>
      <point x="397" y="172" type="line"/>
      <point x="376" y="205" type="line"/>
      <point x="347" y="184"/>
      <point x="313" y="174"/>
      <point x="272" y="174" type="curve" smooth="yes"/>
      <point x="231" y="174"/>
      <point x="196" y="184"/>
      <point x="169" y="205" type="curve"/>
      <point x="148" y="172" type="line"/>
      <point x="70" y="95" type="line"/>
      <point x="21" y="143" type="line"/>
      <point x="98" y="221" type="line"/>
      <point x="132" y="243" type="line"/>
      <point x="111" y="271"/>
      <point x="101" y="305"/>
      <point x="101" y="345" type="curve" smooth="yes"/>
      <point x="101" y="384"/>
      <point x="113" y="419"/>
      <point x="132" y="448" type="curve"/>
      <point x="98" y="469" type="line"/>
      <point x="21" y="547" type="line"/>
    </contour>
    <contour>
      <point x="170" y="345" type="curve" smooth="yes"/>
      <point x="170" y="285"/>
      <point x="212" y="240"/>
      <point x="272" y="240" type="curve" smooth="yes"/>
      <point x="332" y="240"/>
      <point x="375" y="285"/>
      <point x="375" y="345" type="curve" smooth="yes"/>
      <point x="375" y="405"/>
      <point x="332" y="451"/>
      <point x="272" y="451" type="curve" smooth="yes"/>
      <point x="212" y="451"/>
      <point x="170" y="405"/>
    </contour>
  </outline>
</glyph>
<glyph name="section" format="1">
  <advance width="497"/>
  <unicode hex="00A7"/>
  <outline>
    <contour>
      <point x="57" y="353" type="curve" smooth="yes"/>
      <point x="57" y="394"/>
      <point x="79" y="435"/>
      <point x="114" y="466" type="curve"/>
      <point x="155" y="480" type="line"/>
      <point x="120" y="501"/>
      <point x="94" y="531"/>
      <point x="94" y="586" type="curve" smooth="yes"/>
      <point x="94" y="661"/>
      <point x="152" y="712"/>
      <point x="251" y="712" type="curve" smooth="yes"/>
      <point x="323" y="712"/>
      <point x="371" y="698"/>
      <point x="407" y="681" type="curve"/>
      <point x="388" y="614" type="line"/>
      <point x="356" y="629"/>
      <point x="310" y="642"/>
      <point x="262" y="642" type="curve" smooth="yes"/>
      <point x="202" y="642"/>
      <point x="174" y="619"/>
      <point x="174" y="583" type="curve" smooth="yes"/>
      <point x="174" y="481"/>
      <point x="440" y="529"/>
      <point x="440" y="347" type="curve" smooth="yes"/>
      <point x="440" y="306"/>
      <point x="419" y="266"/>
      <point x="384" y="235" type="curve"/>
      <point x="339" y="221" type="line"/>
      <point x="375" y="200"/>
      <point x="403" y="169"/>
      <point x="403" y="114" type="curve" smooth="yes"/>
      <point x="403" y="31"/>
      <point x="334" y="-12"/>
      <point x="245" y="-12" type="curve" smooth="yes"/>
      <point x="170" y="-12"/>
      <point x="126" y="2"/>
      <point x="89" y="21" type="curve"/>
      <point x="109" y="86" type="line"/>
      <point x="140" y="71"/>
      <point x="184" y="58"/>
      <point x="235" y="58" type="curve" smooth="yes"/>
      <point x="291" y="58"/>
      <point x="323" y="74"/>
      <point x="323" y="117" type="curve" smooth="yes"/>
      <point x="323" y="221"/>
      <point x="57" y="172"/>
    </contour>
    <contour>
      <point x="360" y="345" type="curve" smooth="yes"/>
      <point x="360" y="412"/>
      <point x="283" y="425"/>
      <point x="210" y="452" type="curve"/>
      <point x="171" y="435"/>
      <point x="137" y="403"/>
      <point x="137" y="355" type="curve" smooth="yes"/>
      <point x="137" y="288"/>
      <point x="212" y="276"/>
      <point x="284" y="249" type="curve"/>
      <point x="321" y="265"/>
      <point x="360" y="303"/>
    </contour>
  </outline>
</glyph>
<glyph name="dieresis" format="1">
  <advance width="411"/>
  <unicode hex="00A8"/>
  <outline>
    <contour>
      <point x="60" y="653" type="curve" smooth="yes"/>
      <point x="60" y="684"/>
      <point x="80" y="704"/>
      <point x="109" y="704" type="curve" smooth="yes"/>
      <point x="138" y="704"/>
      <point x="158" y="684"/>
      <point x="158" y="653" type="curve" smooth="yes"/>
      <point x="158" y="625"/>
      <point x="138" y="604"/>
      <point x="109" y="604" type="curve" smooth="yes"/>
      <point x="80" y="604"/>
      <point x="60" y="625"/>
    </contour>
    <contour>
      <point x="252" y="653" type="curve" smooth="yes"/>
      <point x="252" y="684"/>
      <point x="272" y="704"/>
      <point x="301" y="704" type="curve" smooth="yes"/>
      <point x="332" y="704"/>
      <point x="351" y="684"/>
      <point x="351" y="653" type="curve" smooth="yes"/>
      <point x="351" y="625"/>
      <point x="332" y="604"/>
      <point x="301" y="604" type="curve" smooth="yes"/>
      <point x="272" y="604"/>
      <point x="252" y="625"/>
    </contour>
  </outline>
</glyph>
<glyph name="copyright" format="1">
  <advance width="806"/>
  <unicode hex="00A9"/>
  <outline>
    <contour>
      <point x="51" y="290" type="curve" smooth="yes"/>
      <point x="51" y="511"/>
      <point x="211" y="642"/>
      <point x="403" y="642" type="curve" smooth="yes"/>
      <point x="595" y="642"/>
      <point x="755" y="511"/>
      <point x="755" y="290" type="curve" smooth="yes"/>
      <point x="755" y="69"/>
      <point x="595" y="-62"/>
      <point x="403" y="-62" type="curve" smooth="yes"/>
      <point x="190" y="-62"/>
      <point x="51" y="69"/>
    </contour>
    <contour>
      <point x="121" y="290" type="curve" smooth="yes"/>
      <point x="121" y="106"/>
      <point x="246" y="4"/>
      <point x="403" y="4" type="curve" smooth="yes"/>
      <point x="560" y="4"/>
      <point x="685" y="106"/>
      <point x="685" y="290" type="curve" smooth="yes"/>
      <point x="685" y="474"/>
      <point x="560" y="576"/>
      <point x="403" y="576" type="curve" smooth="yes"/>
      <point x="246" y="576"/>
      <point x="121" y="474"/>
    </contour>
    <contour>
      <point x="519" y="127" type="line"/>
      <point x="488" y="110"/>
      <point x="452" y="100"/>
      <point x="401" y="100" type="curve" smooth="yes"/>
      <point x="293" y="100"/>
      <point x="235" y="173"/>
      <point x="235" y="290" type="curve" smooth="yes"/>
      <point x="235" y="411"/>
      <point x="301" y="480"/>
      <point x="401" y="480" type="curve" smooth="yes"/>
      <point x="450" y="480"/>
      <point x="473" y="469"/>
      <point x="512" y="453" type="curve"/>
      <point x="486" y="392" type="line"/>
      <point x="457" y="407"/>
      <point x="429" y="411"/>
      <point x="410" y="411" type="curve" smooth="yes"/>
      <point x="354" y="411"/>
      <point x="315" y="382"/>
      <point x="315" y="290" type="curve" smooth="yes"/>
      <point x="315" y="213"/>
      <point x="350" y="169"/>
      <point x="418" y="168" type="curve" smooth="yes"/>
      <point x="449" y="168"/>
      <point x="476" y="174"/>
      <point x="498" y="186" type="curve"/>
    </contour>
  </outline>
</glyph>
<glyph name="ordfeminine" format="1">
  <advance width="386"/>
  <unicode hex="00AA"/>
  <outline>
    <contour>
      <point x="68" y="677" type="line"/>
      <point x="101" y="694"/>
      <point x="158" y="708"/>
      <point x="225" y="708" type="curve" smooth="yes"/>
      <point x="308" y="708"/>
      <point x="333" y="672"/>
      <point x="333" y="607" type="curve" smooth="yes"/>
      <point x="333" y="556"/>
      <point x="330" y="510"/>
      <point x="330" y="467" type="curve" smooth="yes"/>
      <point x="330" y="435"/>
      <point x="331" y="405"/>
      <point x="338" y="380" type="curve"/>
      <point x="283" y="380" type="line"/>
      <point x="270" y="426" type="line"/>
      <point x="266" y="426" type="line"/>
      <point x="249" y="403"/>
      <point x="219" y="376"/>
      <point x="162" y="376" type="curve" smooth="yes"/>
      <point x="93" y="376"/>
      <point x="48" y="412"/>
      <point x="48" y="471" type="curve" smooth="yes"/>
      <point x="48" y="553"/>
      <point x="132" y="582"/>
      <point x="238" y="582" type="curve" smooth="yes"/>
      <point x="247" y="582"/>
      <point x="256" y="581"/>
      <point x="265" y="581" type="curve"/>
      <point x="266" y="589"/>
      <point x="266" y="596"/>
      <point x="266" y="603" type="curve" smooth="yes"/>
      <point x="266" y="639"/>
      <point x="253" y="652"/>
      <point x="208" y="652" type="curve" smooth="yes"/>
      <point x="155" y="652"/>
      <point x="108" y="640"/>
      <point x="83" y="627" type="curve"/>
    </contour>
    <contour>
      <point x="173" y="432" type="curve" smooth="yes"/>
      <point x="229" y="432"/>
      <point x="254" y="463"/>
      <point x="265" y="487" type="curve"/>
      <point x="265" y="529" type="line"/>
      <point x="250" y="530"/>
      <point x="238" y="530"/>
      <point x="223" y="530" type="curve" smooth="yes"/>
      <point x="167" y="530"/>
      <point x="118" y="521"/>
      <point x="118" y="476" type="curve" smooth="yes"/>
      <point x="118" y="449"/>
      <point x="138" y="432"/>
    </contour>
  </outline>
</glyph>
<glyph name="uni00AD" format="1">
  <advance width="360"/>
  <unicode hex="00AD"/>
  <outline>
    <contour>
      <point x="59" y="325" type="line"/>
      <point x="301" y="325" type="line"/>
      <point x="301" y="251" type="line"/>
      <point x="59" y="251" type="line"/>
    </contour>
  </outline>
</glyph>
<glyph name="registered" format="1">
  <advance width="700"/>
  <unicode hex="00AE"/>
  <outline>
    <contour>
      <point x="85" y="451" type="curve" smooth="yes"/>
      <point x="85" y="622"/>
      <point x="206" y="716"/>
      <point x="350" y="716" type="curve" smooth="yes"/>
      <point x="498" y="716"/>
      <point x="615" y="622"/>
      <point x="615" y="451" type="curve" smooth="yes"/>
      <point x="615" y="280"/>
      <point x="494" y="186"/>
      <point x="350" y="186" type="curve" smooth="yes"/>
      <point x="202" y="186"/>
      <point x="85" y="280"/>
    </contour>
    <contour>
      <point x="148" y="451" type="curve" smooth="yes"/>
      <point x="148" y="313"/>
      <point x="240" y="245"/>
      <point x="350" y="245" type="curve" smooth="yes"/>
      <point x="465" y="245"/>
      <point x="552" y="311"/>
      <point x="552" y="451" type="curve" smooth="yes"/>
      <point x="552" y="589"/>
      <point x="461" y="657"/>
      <point x="350" y="657" type="curve" smooth="yes"/>
      <point x="233" y="657"/>
      <point x="148" y="589"/>
    </contour>
    <contour>
      <point x="247" y="581" type="line"/>
      <point x="268" y="588"/>
      <point x="312" y="591"/>
      <point x="347" y="591" type="curve" smooth="yes"/>
      <point x="403" y="591"/>
      <point x="449" y="570"/>
      <point x="449" y="513" type="curve" smooth="yes"/>
      <point x="449" y="470"/>
      <point x="418" y="448"/>
      <point x="378" y="445" type="curve"/>
      <point x="406" y="431" type="line"/>
      <point x="480" y="322" type="line"/>
      <point x="419" y="322" type="line"/>
      <point x="347" y="426" type="line"/>
      <point x="299" y="441" type="line"/>
      <point x="299" y="322" type="line"/>
      <point x="247" y="322" type="line"/>
    </contour>
    <contour>
      <point x="336" y="546" type="curve" smooth="yes"/>
      <point x="321" y="546"/>
      <point x="307" y="546"/>
      <point x="299" y="542" type="curve"/>
      <point x="299" y="471" type="line"/>
      <point x="333" y="471" type="line" smooth="yes"/>
      <point x="372" y="471"/>
      <point x="394" y="482"/>
      <point x="394" y="511" type="curve" smooth="yes"/>
      <point x="394" y="534"/>
      <point x="375" y="546"/>
    </contour>
  </outline>
</glyph>
<glyph name="degree" format="1">
  <advance width="425"/>
  <unicode hex="00B0"/>
  <outline>
    <contour>
      <point x="85" y="571" type="curve" smooth="yes"/>
      <point x="85" y="654"/>
      <point x="148" y="712"/>
      <point x="226" y="712" type="curve" smooth="yes"/>
      <point x="304" y="712"/>
      <point x="367" y="659"/>
      <point x="367" y="571" type="curve" smooth="yes"/>
      <point x="367" y="483"/>
      <point x="304" y="430"/>
      <point x="226" y="430" type="curve" smooth="yes"/>
      <point x="148" y="430"/>
      <point x="85" y="483"/>
    </contour>
    <contour>
      <point x="148" y="571" type="curve" smooth="yes"/>
      <point x="148" y="520"/>
      <point x="185" y="490"/>
      <point x="226" y="490" type="curve" smooth="yes"/>
      <point x="267" y="490"/>
      <point x="304" y="520"/>
      <point x="304" y="571" type="curve" smooth="yes"/>
      <point x="304" y="622"/>
      <point x="267" y="652"/>
      <point x="226" y="652" type="curve" smooth="yes"/>
      <point x="185" y="652"/>
      <point x="148" y="622"/>
    </contour>
  </outline>
</glyph>
<glyph name="mu" format="1">
  <advance width="552"/>
  <unicode hex="00B5"/>
  <unicode hex="03BC"/>
  <outline>
    <contour>
      <point x="148" y="500" type="line"/>
      <point x="148" y="217" type="line" smooth="yes"/>
      <point x="148" y="112"/>
      <point x="177" y="58"/>
      <point x="258" y="58" type="curve" smooth="yes"/>
      <point x="331" y="58"/>
      <point x="384" y="105"/>
      <point x="404" y="176" type="curve"/>
      <point x="404" y="500" type="line"/>
      <point x="484" y="500" type="line"/>
      <point x="484" y="163" type="line" smooth="yes"/>
      <point x="484" y="108"/>
      <point x="486" y="52"/>
      <point x="499" y="0" type="curve"/>
      <point x="444" y="0" type="line"/>
      <point x="416" y="74" type="line"/>
      <point x="412" y="74" type="line"/>
      <point x="385" y="27"/>
      <point x="329" y="-12"/>
      <point x="249" y="-12" type="curve" smooth="yes"/>
      <point x="185" y="-12"/>
      <point x="156" y="9"/>
      <point x="132" y="38" type="curve"/>
      <point x="127" y="38" type="line"/>
      <point x="148" y="-67" type="line"/>
      <point x="148" y="-200" type="line"/>
      <point x="68" y="-200" type="line"/>
      <point x="68" y="500" type="line"/>
    </contour>
  </outline>
</glyph>
<glyph name="paragraph" format="1">
  <advance width="494"/>
  <unicode hex="00B6"/>
  <outline>
    <contour>
      <point x="341" y="700" type="line"/>
      <point x="409" y="700" type="line"/>
      <point x="409" y="-130" type="line"/>
      <point x="341" y="-130" type="line"/>
    </contour>
    <contour>
      <point x="185" y="310" type="line"/>
      <point x="101" y="310"/>
      <point x="37" y="406"/>
      <point x="37" y="506" type="curve" smooth="yes"/>
      <point x="37" y="605"/>
      <point x="100" y="700"/>
      <point x="208" y="700" type="curve" smooth="yes"/>
      <point x="253" y="700" type="line"/>
      <point x="253" y="-130" type="line"/>
      <point x="185" y="-130" type="line"/>
    </contour>
  </outline>
</glyph>
<glyph name="cedilla" format="1">
  <advance width="287"/>
  <unicode hex="00B8"/>
  <outline>
    <contour>
      <point x="148" y="-43" type="line"/>
      <point x="204" y="-54"/>
      <point x="227" y="-77"/>
      <point x="227" y="-118" type="curve" smooth="yes"/>
      <point x="227" y="-173"/>
      <point x="180" y="-208"/>
      <point x="105" y="-208" type="curve" smooth="yes"/>
      <point x="90" y="-208"/>
      <point x="76" y="-207"/>
      <point x="60" y="-204" type="curve"/>
      <point x="67" y="-155" type="line"/>
      <point x="75" y="-156"/>
      <point x="77" y="-157"/>
      <point x="101" y="-158" type="curve"/>
      <point x="137" y="-161"/>
      <point x="156" y="-143"/>
      <point x="153" y="-127" type="curve"/>
      <point x="154" y="-108"/>
      <point x="125" y="-95"/>
      <point x="67" y="-90" type="curve"/>
      <point x="115" y="0" type="line"/>
      <point x="172" y="0" type="line"/>
    </contour>
  </outline>
</glyph>
<glyph name="ordmasculine" format="1">
  <advance width="398"/>
  <unicode hex="00BA"/>
  <outline>
    <contour>
      <point x="44" y="542" type="curve" smooth="yes"/>
      <point x="44" y="662"/>
      <point x="111" y="712"/>
      <point x="199" y="712" type="curve" smooth="yes"/>
      <point x="287" y="712"/>
      <point x="354" y="667"/>
      <point x="354" y="542" type="curve" smooth="yes"/>
      <point x="354" y="417"/>
      <point x="287" y="372"/>
      <point x="199" y="372" type="curve" smooth="yes"/>
      <point x="111" y="372"/>
      <point x="44" y="417"/>
    </contour>
    <contour>
      <point x="118" y="542" type="curve" smooth="yes"/>
      <point x="118" y="462"/>
      <point x="148" y="430"/>
      <point x="199" y="430" type="curve" smooth="yes"/>
      <point x="250" y="430"/>
      <point x="280" y="455"/>
      <point x="280" y="542" type="curve" smooth="yes"/>
      <point x="280" y="629"/>
      <point x="250" y="654"/>
      <point x="199" y="654" type="curve" smooth="yes"/>
      <point x="148" y="654"/>
      <point x="118" y="629"/>
    </contour>
  </outline>
</glyph>
<glyph name="questiondown" format="1">
  <advance width="436"/>
  <unicode hex="00BF"/>
  <outline>
    <contour>
      <point x="286" y="323" type="line"/>
      <point x="287" y="316"/>
      <point x="287" y="308"/>
      <point x="287" y="301" type="curve" smooth="yes"/>
      <point x="287" y="133"/>
      <point x="120" y="97"/>
      <point x="120" y="-38" type="curve" smooth="yes"/>
      <point x="120" y="-99"/>
      <point x="152" y="-142"/>
      <point x="235" y="-142" type="curve" smooth="yes"/>
      <point x="283" y="-142"/>
      <point x="336" y="-123"/>
      <point x="372" y="-100" type="curve"/>
      <point x="399" y="-162" type="line"/>
      <point x="348" y="-193"/>
      <point x="298" y="-212"/>
      <point x="215" y="-212" type="curve" smooth="yes"/>
      <point x="97" y="-212"/>
      <point x="37" y="-141"/>
      <point x="37" y="-49" type="curve" smooth="yes"/>
      <point x="37" y="131"/>
      <point x="220" y="156"/>
      <point x="220" y="323" type="curve"/>
    </contour>
    <contour>
      <point x="191" y="454" type="curve" smooth="yes"/>
      <point x="191" y="490"/>
      <point x="213" y="512"/>
      <point x="248" y="512" type="curve" smooth="yes"/>
      <point x="284" y="512"/>
      <point x="307" y="490"/>
      <point x="307" y="454" type="curve" smooth="yes"/>
      <point x="307" y="419"/>
      <point x="284" y="396"/>
      <point x="248" y="396" type="curve" smooth="yes"/>
      <point x="213" y="396"/>
      <point x="191" y="419"/>
    </contour>
  </outline>
</glyph>
<glyph name="Aring" format="1">
  <advance width="585"/>
  <unicode hex="00C5"/>
  <outline>
    <contour>
      <point x="188" y="768" type="curve" smooth="yes"/>
      <point x="188" y="817"/>
      <point x="220" y="853"/>
      <point x="293" y="853" type="curve" smooth="yes"/>
      <point x="360" y="853"/>
      <point x="399" y="824"/>
      <point x="399" y="768" type="curve" smooth="yes"/>
      <point x="399" y="725"/>
      <point x="372" y="695"/>
      <point x="320" y="687" type="curve"/>
      <point x="577" y="0" type="line"/>
      <point x="490" y="0" type="line"/>
      <point x="418" y="194" type="line"/>
      <point x="160" y="194" type="line"/>
      <point x="90" y="0" type="line"/>
      <point x="8" y="0" type="line"/>
      <point x="264" y="687" type="line"/>
      <point x="213" y="695"/>
      <point x="188" y="725"/>
    </contour>
    <contour>
      <point x="187" y="266" type="line"/>
      <point x="393" y="266" type="line"/>
      <point x="315" y="479" type="line"/>
      <point x="290" y="585" type="line"/>
      <point x="289" y="585" type="line"/>
      <point x="264" y="477" type="line"/>
    </contour>
    <contour>
      <point x="249" y="768" type="curve" smooth="yes"/>
      <point x="249" y="745"/>
      <point x="262" y="728"/>
      <point x="293" y="728" type="curve" smooth="yes"/>
      <point x="322" y="728"/>
      <point x="338" y="744"/>
      <point x="338" y="768" type="curve" smooth="yes"/>
      <point x="338" y="793"/>
      <point x="324" y="810"/>
      <point x="293" y="810" type="curve" smooth="yes"/>
      <point x="264" y="810"/>
      <point x="249" y="793"/>
    </contour>
  </outline>
</glyph>
<glyph name="Ccedilla" format="1">
  <advance width="575"/>
  <unicode hex="00C7"/>
  <outline>
    <contour>
      <point x="537" y="29" type="line"/>
      <point x="502" y="2"/>
      <point x="450" y="-8"/>
      <point x="390" y="-11" type="curve"/>
      <point x="373" y="-43" type="line"/>
      <point x="429" y="-54"/>
      <point x="452" y="-77"/>
      <point x="452" y="-118" type="curve" smooth="yes"/>
      <point x="452" y="-170"/>
      <point x="407" y="-208"/>
      <point x="330" y="-208" type="curve" smooth="yes"/>
      <point x="315" y="-208"/>
      <point x="301" y="-207"/>
      <point x="285" y="-204" type="curve"/>
      <point x="294" y="-165" type="line"/>
      <point x="302" y="-166"/>
      <point x="308" y="-166"/>
      <point x="315" y="-166" type="curve" smooth="yes"/>
      <point x="374" y="-166"/>
      <point x="378" y="-143"/>
      <point x="378" y="-127" type="curve" smooth="yes"/>
      <point x="378" y="-108"/>
      <point x="349" y="-96"/>
      <point x="292" y="-90" type="curve"/>
      <point x="334" y="-10" type="line"/>
      <point x="179" y="1"/>
      <point x="60" y="113"/>
      <point x="60" y="350" type="curve" smooth="yes"/>
      <point x="60" y="610"/>
      <point x="216" y="712"/>
      <point x="364" y="712" type="curve" smooth="yes"/>
      <point x="444" y="712"/>
      <point x="491" y="703"/>
      <point x="527" y="688" type="curve"/>
      <point x="507" y="615" type="line"/>
      <point x="475" y="630"/>
      <point x="429" y="638"/>
      <point x="370" y="638" type="curve" smooth="yes"/>
      <point x="260" y="638"/>
      <point x="148" y="563"/>
      <point x="148" y="350" type="curve" smooth="yes"/>
      <point x="148" y="158"/>
      <point x="250" y="62"/>
      <point x="382" y="62" type="curve" smooth="yes"/>
      <point x="442" y="62"/>
      <point x="486" y="75"/>
      <point x="517" y="94" type="curve"/>
    </contour>
  </outline>
</glyph>
<glyph name="Eth" format="1">
  <advance width="658"/>
  <unicode hex="00D0"/>
  <outline>
    <contour>
      <point x="-1" y="392" type="line"/>
      <point x="89" y="392" type="line"/>
      <point x="89" y="700" type="line"/>
      <point x="139" y="708"/>
      <point x="221" y="708"/>
      <point x="276" y="708" type="curve" smooth="yes"/>
      <point x="500" y="708"/>
      <point x="602" y="563"/>
      <point x="602" y="355" type="curve" smooth="yes"/>
      <point x="602" y="167"/>
      <point x="509" y="-9"/>
      <point x="266" y="-9" type="curve" smooth="yes"/>
      <point x="225" y="-9"/>
      <point x="115" y="-6"/>
      <point x="89" y="-1" type="curve"/>
      <point x="89" y="332" type="line"/>
      <point x="-1" y="332" type="line"/>
    </contour>
    <contour>
      <point x="278" y="634" type="curve" smooth="yes"/>
      <point x="243" y="634"/>
      <point x="191" y="632"/>
      <point x="172" y="629" type="curve"/>
      <point x="172" y="392" type="line"/>
      <point x="319" y="392" type="line"/>
      <point x="319" y="332" type="line"/>
      <point x="172" y="332" type="line"/>
      <point x="172" y="69" type="line"/>
      <point x="186" y="66"/>
      <point x="254" y="65"/>
      <point x="268" y="65" type="curve" smooth="yes"/>
      <point x="456" y="65"/>
      <point x="514" y="205"/>
      <point x="514" y="355" type="curve" smooth="yes"/>
      <point x="514" y="485"/>
      <point x="462" y="634"/>
    </contour>
  </outline>
</glyph>
<glyph name="Oslash" format="1">
  <advance width="684"/>
  <unicode hex="00D8"/>
  <outline>
    <contour>
      <point x="122" y="91" type="line"/>
      <point x="77" y="155"/>
      <point x="56" y="242"/>
      <point x="56" y="350" type="curve" smooth="yes"/>
      <point x="56" y="583"/>
      <point x="158" y="712"/>
      <point x="341" y="712" type="curve" smooth="yes"/>
      <point x="417" y="712"/>
      <point x="475" y="692"/>
      <point x="520" y="653" type="curve"/>
      <point x="562" y="713" type="line"/>
      <point x="614" y="678" type="line"/>
      <point x="563" y="606" type="line"/>
      <point x="607" y="542"/>
      <point x="628" y="455"/>
      <point x="628" y="350" type="curve" smooth="yes"/>
      <point x="628" y="117"/>
      <point x="525" y="-12"/>
      <point x="341" y="-12" type="curve" smooth="yes"/>
      <point x="270" y="-12"/>
      <point x="211" y="7"/>
      <point x="166" y="44" type="curve"/>
      <point x="127" y="-12" type="line"/>
      <point x="75" y="24" type="line"/>
    </contour>
    <contour>
      <point x="144" y="350" type="curve" smooth="yes"/>
      <point x="144" y="282"/>
      <point x="155" y="222"/>
      <point x="179" y="171" type="curve"/>
      <point x="469" y="582" type="line"/>
      <point x="438" y="617"/>
      <point x="397" y="638"/>
      <point x="341" y="638" type="curve" smooth="yes"/>
      <point x="218" y="638"/>
      <point x="144" y="546"/>
    </contour>
    <contour>
      <point x="540" y="350" type="curve" smooth="yes"/>
      <point x="540" y="414"/>
      <point x="529" y="476"/>
      <point x="506" y="525" type="curve"/>
      <point x="216" y="114" type="line"/>
      <point x="247" y="81"/>
      <point x="288" y="62"/>
      <point x="341" y="62" type="curve" smooth="yes"/>
      <point x="465" y="62"/>
      <point x="540" y="154"/>
    </contour>
  </outline>
</glyph>
<glyph name="Thorn" format="1">
  <advance width="559"/>
  <unicode hex="00DE"/>
  <outline>
    <contour>
      <point x="85" y="800" type="line"/>
      <point x="168" y="800" type="line"/>
      <point x="168" y="625" type="line"/>
      <point x="196" y="627"/>
      <point x="225" y="628"/>
      <point x="254" y="628" type="curve" smooth="yes"/>
      <point x="377" y="628"/>
      <point x="522" y="587"/>
      <point x="522" y="413" type="curve" smooth="yes"/>
      <point x="522" y="242"/>
      <point x="389" y="182"/>
      <point x="250" y="182" type="curve" smooth="yes"/>
      <point x="236" y="182"/>
      <point x="183" y="183"/>
      <point x="168" y="186" type="curve"/>
      <point x="168" y="0" type="line"/>
      <point x="85" y="0" type="line"/>
    </contour>
    <contour>
      <point x="256" y="556" type="curve" smooth="yes"/>
      <point x="221" y="556"/>
      <point x="187" y="555"/>
      <point x="168" y="550" type="curve"/>
      <point x="168" y="260" type="line"/>
      <point x="181" y="255"/>
      <point x="233" y="256"/>
      <point x="246" y="256" type="curve" smooth="yes"/>
      <point x="337" y="256"/>
      <point x="434" y="284"/>
      <point x="434" y="413" type="curve" smooth="yes"/>
      <point x="434" y="522"/>
      <point x="342" y="556"/>
    </contour>
  </outline>
</glyph>
<glyph name="germandbls" format="1">
  <advance width="592"/>
  <unicode hex="00DF"/>
  <outline>
    <contour>
      <point x="384" y="559" type="curve" smooth="yes"/>
      <point x="384" y="604"/>
      <point x="327" y="636"/>
      <point x="282" y="636" type="curve" smooth="yes"/>
      <point x="207" y="636"/>
      <point x="180" y="602"/>
      <point x="180" y="498" type="curve" smooth="yes"/>
      <point x="180" y="0" type="line"/>
      <point x="100" y="0" type="line"/>
      <point x="100" y="430" type="line"/>
      <point x="22" y="430" type="line"/>
      <point x="22" y="500" type="line"/>
      <point x="100" y="500" type="line"/>
      <point x="100" y="523" type="line" smooth="yes"/>
      <point x="100" y="652"/>
      <point x="167" y="706"/>
      <point x="279" y="706" type="curve" smooth="yes"/>
      <point x="388" y="706"/>
      <point x="464" y="647"/>
      <point x="464" y="560" type="curve" smooth="yes"/>
      <point x="464" y="460"/>
      <point x="343" y="448"/>
      <point x="343" y="381" type="curve" smooth="yes"/>
      <point x="343" y="292"/>
      <point x="547" y="335"/>
      <point x="547" y="159" type="curve" smooth="yes"/>
      <point x="547" y="75"/>
      <point x="483" y="-12"/>
      <point x="367" y="-12" type="curve" smooth="yes"/>
      <point x="307" y="-12"/>
      <point x="275" y="-5"/>
      <point x="241" y="16" type="curve"/>
      <point x="264" y="83" type="line"/>
      <point x="296" y="67"/>
      <point x="308" y="58"/>
      <point x="360" y="58" type="curve" smooth="yes"/>
      <point x="417" y="58"/>
      <point x="467" y="99"/>
      <point x="467" y="156" type="curve" smooth="yes"/>
      <point x="467" y="276"/>
      <point x="264" y="225"/>
      <point x="264" y="376" type="curve" smooth="yes"/>
      <point x="264" y="479"/>
      <point x="384" y="490"/>
    </contour>
  </outline>
</glyph>
<glyph name="ae" format="1">
  <advance width="796"/>
  <unicode hex="00E6"/>
  <outline>
    <contour>
      <point x="211" y="62" type="curve" smooth="yes"/>
      <point x="286" y="62"/>
      <point x="328" y="106"/>
      <point x="341" y="141" type="curve"/>
      <point x="341" y="224" type="line"/>
      <point x="322" y="225"/>
      <point x="303" y="226"/>
      <point x="284" y="226" type="curve" smooth="yes"/>
      <point x="200" y="226"/>
      <point x="122" y="210"/>
      <point x="122" y="142" type="curve" smooth="yes"/>
      <point x="122" y="95"/>
      <point x="159" y="62"/>
    </contour>
    <contour>
      <point x="367" y="84" type="line"/>
      <point x="333" y="37"/>
      <point x="278" y="-8"/>
      <point x="189" y="-8" type="curve" smooth="yes"/>
      <point x="104" y="-8"/>
      <point x="39" y="47"/>
      <point x="39" y="134" type="curve" smooth="yes"/>
      <point x="39" y="251"/>
      <point x="139" y="287"/>
      <point x="286" y="287" type="curve" smooth="yes"/>
      <point x="305" y="287"/>
      <point x="322" y="288"/>
      <point x="341" y="285" type="curve"/>
      <point x="342" y="305"/>
      <point x="344" y="323"/>
      <point x="344" y="339" type="curve" smooth="yes"/>
      <point x="344" y="412"/>
      <point x="319" y="439"/>
      <point x="242" y="438" type="curve" smooth="yes"/>
      <point x="198" y="438"/>
      <point x="131" y="424"/>
      <point x="94" y="403" type="curve"/>
      <point x="69" y="463" type="line"/>
      <point x="120" y="494"/>
      <point x="190" y="508"/>
      <point x="263" y="508" type="curve" smooth="yes"/>
      <point x="333" y="508"/>
      <point x="378" y="486"/>
      <point x="399" y="443" type="curve"/>
      <point x="434" y="491"/>
      <point x="498" y="512"/>
      <point x="557" y="512" type="curve" smooth="yes"/>
      <point x="648" y="512"/>
      <point x="747" y="481"/>
      <point x="747" y="313" type="curve" smooth="yes"/>
      <point x="747" y="292"/>
      <point x="745" y="269"/>
      <point x="742" y="242" type="curve"/>
      <point x="419" y="242" type="line"/>
      <point x="419" y="126"/>
      <point x="463" y="58"/>
      <point x="580" y="58" type="curve" smooth="yes"/>
      <point x="627" y="58"/>
      <point x="676" y="78"/>
      <point x="700" y="98" type="curve"/>
      <point x="730" y="40" type="line"/>
      <point x="690" y="8"/>
      <point x="626" y="-12"/>
      <point x="558" y="-12" type="curve" smooth="yes"/>
      <point x="477" y="-12"/>
      <point x="406" y="23"/>
      <point x="374" y="84" type="curve"/>
    </contour>
    <contour>
      <point x="558" y="442" type="curve" smooth="yes"/>
      <point x="479" y="442"/>
      <point x="429" y="405"/>
      <point x="421" y="305" type="curve"/>
      <point x="669" y="305" type="line"/>
      <point x="669" y="317" type="line" smooth="yes"/>
      <point x="669" y="408"/>
      <point x="625" y="442"/>
    </contour>
  </outline>
</glyph>
<glyph name="ccedilla" format="1">
  <advance width="451"/>
  <unicode hex="00E7"/>
  <outline>
    <contour>
      <point x="418" y="33" type="line"/>
      <point x="385" y="10"/>
      <point x="345" y="-5"/>
      <point x="297" y="-10" type="curve"/>
      <point x="279" y="-43" type="line"/>
      <point x="335" y="-54"/>
      <point x="358" y="-77"/>
      <point x="358" y="-118" type="curve" smooth="yes"/>
      <point x="358" y="-170"/>
      <point x="313" y="-208"/>
      <point x="236" y="-208" type="curve" smooth="yes"/>
      <point x="221" y="-208"/>
      <point x="207" y="-207"/>
      <point x="191" y="-204" type="curve"/>
      <point x="200" y="-165" type="line"/>
      <point x="208" y="-166"/>
      <point x="214" y="-166"/>
      <point x="221" y="-166" type="curve" smooth="yes"/>
      <point x="280" y="-166"/>
      <point x="284" y="-143"/>
      <point x="284" y="-127" type="curve" smooth="yes"/>
      <point x="284" y="-108"/>
      <point x="255" y="-96"/>
      <point x="198" y="-90" type="curve"/>
      <point x="240" y="-11" type="line"/>
      <point x="102" y="-3"/>
      <point x="49" y="99"/>
      <point x="49" y="250" type="curve" smooth="yes"/>
      <point x="49" y="419"/>
      <point x="126" y="512"/>
      <point x="266" y="512" type="curve" smooth="yes"/>
      <point x="330" y="512"/>
      <point x="372" y="502"/>
      <point x="408" y="483" type="curve"/>
      <point x="385" y="414" type="line"/>
      <point x="354" y="431"/>
      <point x="317" y="442"/>
      <point x="274" y="442" type="curve" smooth="yes"/>
      <point x="179" y="442"/>
      <point x="132" y="378"/>
      <point x="132" y="250" type="curve" smooth="yes"/>
      <point x="132" y="149"/>
      <point x="169" y="59"/>
      <point x="281" y="59" type="curve" smooth="yes"/>
      <point x="329" y="59"/>
      <point x="368" y="75"/>
      <point x="392" y="94" type="curve"/>
    </contour>
  </outline>
</glyph>
<glyph name="eth" format="1">
  <advance width="561"/>
  <unicode hex="00F0"/>
  <outline>
    <contour>
      <point x="220" y="596" type="line"/>
      <point x="277" y="627" type="line"/>
      <point x="252" y="642"/>
      <point x="226" y="653"/>
      <point x="201" y="659" type="curve"/>
      <point x="236" y="713" type="line"/>
      <point x="260" y="704"/>
      <point x="300" y="689"/>
      <point x="340" y="661" type="curve"/>
      <point x="408" y="698" type="line"/>
      <point x="434" y="653" type="line"/>
      <point x="384" y="626" type="line"/>
      <point x="448" y="565"/>
      <point x="506" y="465"/>
      <point x="506" y="295" type="curve" smooth="yes"/>
      <point x="506" y="79"/>
      <point x="404" y="-12"/>
      <point x="282" y="-12" type="curve" smooth="yes"/>
      <point x="119" y="-12"/>
      <point x="56" y="108"/>
      <point x="56" y="251" type="curve" smooth="yes"/>
      <point x="56" y="390"/>
      <point x="134" y="510"/>
      <point x="280" y="510" type="curve" smooth="yes"/>
      <point x="340" y="510"/>
      <point x="389" y="488"/>
      <point x="408" y="464" type="curve"/>
      <point x="393" y="513"/>
      <point x="362" y="558"/>
      <point x="323" y="593" type="curve"/>
      <point x="247" y="552" type="line"/>
    </contour>
    <contour>
      <point x="138" y="250" type="curve" smooth="yes"/>
      <point x="138" y="119"/>
      <point x="200" y="58"/>
      <point x="286" y="58" type="curve" smooth="yes"/>
      <point x="365" y="58"/>
      <point x="427" y="125"/>
      <point x="427" y="290" type="curve" smooth="yes"/>
      <point x="427" y="317"/>
      <point x="425" y="360"/>
      <point x="420" y="381" type="curve"/>
      <point x="398" y="419"/>
      <point x="339" y="439"/>
      <point x="288" y="439" type="curve" smooth="yes"/>
      <point x="183" y="439"/>
      <point x="138" y="357"/>
    </contour>
  </outline>
</glyph>
<glyph name="divide" format="1">
  <advance width="505"/>
  <unicode hex="00F7"/>
  <outline>
    <contour>
      <point x="40" y="374" type="line"/>
      <point x="464" y="374" type="line"/>
      <point x="464" y="302" type="line"/>
      <point x="40" y="302" type="line"/>
    </contour>
    <contour>
      <point x="194" y="525" type="curve" smooth="yes"/>
      <point x="194" y="561"/>
      <point x="216" y="583"/>
      <point x="251" y="583" type="curve" smooth="yes"/>
      <point x="287" y="583"/>
      <point x="310" y="561"/>
      <point x="310" y="525" type="curve" smooth="yes"/>
      <point x="310" y="490"/>
      <point x="287" y="467"/>
      <point x="251" y="467" type="curve" smooth="yes"/>
      <point x="216" y="467"/>
      <point x="194" y="490"/>
    </contour>
    <contour>
      <point x="194" y="150" type="curve" smooth="yes"/>
      <point x="194" y="186"/>
      <point x="216" y="208"/>
      <point x="251" y="208" type="curve" smooth="yes"/>
      <point x="287" y="208"/>
      <point x="310" y="186"/>
      <point x="310" y="150" type="curve" smooth="yes"/>
      <point x="310" y="115"/>
      <point x="287" y="92"/>
      <point x="251" y="92" type="curve" smooth="yes"/>
      <point x="216" y="92"/>
      <point x="194" y="115"/>
    </contour>
  </outline>
</glyph>
<glyph name="oslash" format="1">
  <advance width="536"/>
  <unicode hex="00F8"/>
  <outline>
    <contour>
      <point x="49" y="250" type="curve" smooth="yes"/>
      <point x="49" y="419"/>
      <point x="127" y="512"/>
      <point x="268" y="512" type="curve" smooth="yes"/>
      <point x="317" y="512"/>
      <point x="357" y="501"/>
      <point x="390" y="480" type="curve"/>
      <point x="416" y="515" type="line"/>
      <point x="466" y="478" type="line"/>
      <point x="437" y="436" type="line"/>
      <point x="472" y="391"/>
      <point x="487" y="327"/>
      <point x="487" y="250" type="curve" smooth="yes"/>
      <point x="487" y="81"/>
      <point x="409" y="-12"/>
      <point x="268" y="-12" type="curve" smooth="yes"/>
      <point x="216" y="-12"/>
      <point x="173" y="0"/>
      <point x="140" y="23" type="curve"/>
      <point x="113" y="-14" type="line"/>
      <point x="61" y="24" type="line"/>
      <point x="94" y="70" type="line"/>
      <point x="63" y="115"/>
      <point x="49" y="177"/>
    </contour>
    <contour>
      <point x="404" y="250" type="curve" smooth="yes"/>
      <point x="404" y="293"/>
      <point x="398" y="333"/>
      <point x="383" y="365" type="curve"/>
      <point x="184" y="88" type="line"/>
      <point x="205" y="71"/>
      <point x="232" y="58"/>
      <point x="268" y="58" type="curve" smooth="yes"/>
      <point x="359" y="57"/>
      <point x="404" y="121"/>
    </contour>
    <contour>
      <point x="132" y="250" type="curve" smooth="yes"/>
      <point x="132" y="210"/>
      <point x="138" y="172"/>
      <point x="150" y="141" type="curve"/>
      <point x="347" y="415" type="line"/>
      <point x="327" y="431"/>
      <point x="301" y="442"/>
      <point x="268" y="442" type="curve" smooth="yes"/>
      <point x="177" y="443"/>
      <point x="132" y="379"/>
    </contour>
  </outline>
</glyph>
<glyph name="thorn" format="1">
  <advance width="541"/>
  <unicode hex="00FE"/>
  <outline>
    <contour>
      <point x="77" y="700" type="line"/>
      <point x="157" y="700" type="line"/>
      <point x="157" y="450" type="line"/>
      <point x="161" y="450" type="line"/>
      <point x="188" y="489"/>
      <point x="231" y="512"/>
      <point x="294" y="512" type="curve" smooth="yes"/>
      <point x="427" y="512"/>
      <point x="492" y="439"/>
      <point x="492" y="260" type="curve" smooth="yes"/>
      <point x="492" y="92"/>
      <point x="401" y="-12"/>
      <point x="262" y="-12" type="curve" smooth="yes"/>
      <point x="213" y="-12"/>
      <point x="190" y="-7"/>
      <point x="157" y="8" type="curve"/>
      <point x="157" y="-200" type="line"/>
      <point x="77" y="-200" type="line"/>
    </contour>
    <contour>
      <point x="279" y="442" type="curve"/>
      <point x="214" y="443"/>
      <point x="173" y="407"/>
      <point x="157" y="335" type="curve"/>
      <point x="157" y="86" type="line"/>
      <point x="181" y="67"/>
      <point x="208" y="58"/>
      <point x="259" y="58" type="curve" smooth="yes"/>
      <point x="351" y="58"/>
      <point x="409" y="128"/>
      <point x="409" y="261" type="curve" smooth="yes"/>
      <point x="409" y="370"/>
      <point x="374" y="442"/>
    </contour>
  </outline>
</glyph>
<glyph name="Aogonek" format="1">
  <advance width="585"/>
  <unicode hex="0104"/>
  <outline>
    <contour>
      <point x="418" y="194" type="line"/>
      <point x="160" y="194" type="line"/>
      <point x="90" y="0" type="line"/>
      <point x="8" y="0" type="line"/>
      <point x="273" y="711" type="line"/>
      <point x="311" y="711" type="line"/>
      <point x="577" y="0" type="line"/>
      <point x="555" y="0" type="line"/>
      <point x="520" y="-21"/>
      <point x="498" y="-49"/>
      <point x="498" y="-88" type="curve" smooth="yes"/>
      <point x="498" y="-115"/>
      <point x="517" y="-138"/>
      <point x="550" y="-138" type="curve" smooth="yes"/>
      <point x="563" y="-138"/>
      <point x="576" y="-135"/>
      <point x="590" y="-129" type="curve"/>
      <point x="601" y="-171" type="line"/>
      <point x="581" y="-187"/>
      <point x="543" y="-195"/>
      <point x="515" y="-195" type="curve" smooth="yes"/>
      <point x="456" y="-195"/>
      <point x="416" y="-162"/>
      <point x="416" y="-107" type="curve" smooth="yes"/>
      <point x="416" y="-60"/>
      <point x="446" y="-23"/>
      <point x="497" y="0" type="curve"/>
      <point x="490" y="0" type="line"/>
    </contour>
    <contour>
      <point x="187" y="266" type="line"/>
      <point x="393" y="266" type="line"/>
      <point x="315" y="479" type="line"/>
      <point x="290" y="585" type="line"/>
      <point x="289" y="585" type="line"/>
      <point x="264" y="477" type="line"/>
    </contour>
  </outline>
</glyph>
<glyph name="aogonek" format="1">
  <advance width="496"/>
  <unicode hex="0105"/>
  <outline>
    <contour>
      <point x="69" y="463" type="line"/>
      <point x="120" y="494"/>
      <point x="190" y="508"/>
      <point x="263" y="508" type="curve" smooth="yes"/>
      <point x="402" y="508"/>
      <point x="422" y="425"/>
      <point x="422" y="354" type="curve" smooth="yes"/>
      <point x="422" y="274"/>
      <point x="416" y="197"/>
      <point x="416" y="129" type="curve" smooth="yes"/>
      <point x="416" y="80"/>
      <point x="419" y="35"/>
      <point x="430" y="-2" type="curve"/>
      <point x="407" y="-2" type="line"/>
      <point x="374" y="-23"/>
      <point x="354" y="-52"/>
      <point x="354" y="-87" type="curve" smooth="yes"/>
      <point x="354" y="-114"/>
      <point x="372" y="-138"/>
      <point x="405" y="-138" type="curve" smooth="yes"/>
      <point x="418" y="-138"/>
      <point x="431" y="-135"/>
      <point x="445" y="-128" type="curve"/>
      <point x="456" y="-171" type="line"/>
      <point x="436" y="-187"/>
      <point x="398" y="-195"/>
      <point x="370" y="-195" type="curve" smooth="yes"/>
      <point x="310" y="-195"/>
      <point x="271" y="-161"/>
      <point x="271" y="-106" type="curve" smooth="yes"/>
      <point x="271" y="-54"/>
      <point x="308" y="-16"/>
      <point x="368" y="7" type="curve"/>
      <point x="350" y="68" type="line"/>
      <point x="345" y="68" type="line"/>
      <point x="321" y="31"/>
      <point x="274" y="-8"/>
      <point x="189" y="-8" type="curve" smooth="yes"/>
      <point x="104" y="-8"/>
      <point x="39" y="47"/>
      <point x="39" y="134" type="curve" smooth="yes"/>
      <point x="39" y="251"/>
      <point x="139" y="287"/>
      <point x="286" y="287" type="curve" smooth="yes"/>
      <point x="305" y="287"/>
      <point x="322" y="288"/>
      <point x="341" y="285" type="curve"/>
      <point x="343" y="305"/>
      <point x="344" y="323"/>
      <point x="344" y="339" type="curve" smooth="yes"/>
      <point x="344" y="412"/>
      <point x="319" y="438"/>
      <point x="242" y="438" type="curve" smooth="yes"/>
      <point x="198" y="438"/>
      <point x="131" y="426"/>
      <point x="94" y="405" type="curve"/>
    </contour>
    <contour>
      <point x="211" y="62" type="curve" smooth="yes"/>
      <point x="286" y="62"/>
      <point x="328" y="106"/>
      <point x="341" y="141" type="curve"/>
      <point x="341" y="224" type="line"/>
      <point x="322" y="225"/>
      <point x="303" y="226"/>
      <point x="284" y="226" type="curve" smooth="yes"/>
      <point x="200" y="226"/>
      <point x="122" y="210"/>
      <point x="122" y="142" type="curve" smooth="yes"/>
      <point x="122" y="95"/>
      <point x="159" y="62"/>
    </contour>
  </outline>
</glyph>
<glyph name="Eogonek" format="1">
  <advance width="536"/>
  <unicode hex="0118"/>
  <outline>
    <contour>
      <point x="85" y="700" type="line"/>
      <point x="466" y="700" type="line"/>
      <point x="466" y="626" type="line"/>
      <point x="168" y="626" type="line"/>
      <point x="168" y="397" type="line"/>
      <point x="441" y="397" type="line"/>
      <point x="441" y="323" type="line"/>
      <point x="168" y="323" type="line"/>
      <point x="168" y="74" type="line"/>
      <point x="471" y="74" type="line"/>
      <point x="471" y="0" type="line"/>
      <point x="435" y="0" type="line"/>
      <point x="400" y="-21"/>
      <point x="378" y="-48"/>
      <point x="378" y="-87" type="curve" smooth="yes"/>
      <point x="378" y="-114"/>
      <point x="396" y="-138"/>
      <point x="429" y="-138" type="curve" smooth="yes"/>
      <point x="442" y="-138"/>
      <point x="455" y="-135"/>
      <point x="469" y="-128" type="curve"/>
      <point x="480" y="-171" type="line"/>
      <point x="460" y="-187"/>
      <point x="422" y="-195"/>
      <point x="394" y="-195" type="curve" smooth="yes"/>
      <point x="334" y="-195"/>
      <point x="295" y="-161"/>
      <point x="295" y="-106" type="curve" smooth="yes"/>
      <point x="295" y="-59"/>
      <point x="324" y="-23"/>
      <point x="375" y="0" type="curve"/>
      <point x="85" y="0" type="line"/>
    </contour>
  </outline>
</glyph>
<glyph name="eogonek" format="1">
  <advance width="508"/>
  <unicode hex="0119"/>
  <outline>
    <contour>
      <point x="442" y="40" type="line"/>
      <point x="427" y="28"/>
      <point x="410" y="19"/>
      <point x="391" y="11" type="curve"/>
      <point x="346" y="-12"/>
      <point x="319" y="-44"/>
      <point x="318" y="-87" type="curve"/>
      <point x="319" y="-115"/>
      <point x="338" y="-138"/>
      <point x="371" y="-139" type="curve"/>
      <point x="384" y="-138"/>
      <point x="397" y="-135"/>
      <point x="411" y="-129" type="curve"/>
      <point x="422" y="-172" type="line"/>
      <point x="402" y="-188"/>
      <point x="363" y="-195"/>
      <point x="335" y="-195" type="curve" smooth="yes"/>
      <point x="275" y="-194"/>
      <point x="237" y="-161"/>
      <point x="236" y="-106" type="curve" smooth="yes"/>
      <point x="236" y="-66"/>
      <point x="257" y="-34"/>
      <point x="292" y="-11" type="curve"/>
      <point x="285" y="-12"/>
      <point x="277" y="-12"/>
      <point x="270" y="-12" type="curve" smooth="yes"/>
      <point x="117" y="-12"/>
      <point x="49" y="91"/>
      <point x="49" y="250" type="curve" smooth="yes"/>
      <point x="49" y="421"/>
      <point x="128" y="512"/>
      <point x="269" y="512" type="curve" smooth="yes"/>
      <point x="360" y="512"/>
      <point x="459" y="482"/>
      <point x="459" y="315" type="curve" smooth="yes"/>
      <point x="459" y="293"/>
      <point x="457" y="269"/>
      <point x="453" y="242" type="curve"/>
      <point x="132" y="242" type="line"/>
      <point x="132" y="125"/>
      <point x="177" y="58"/>
      <point x="293" y="58" type="curve" smooth="yes"/>
      <point x="338" y="58"/>
      <point x="389" y="77"/>
      <point x="412" y="98" type="curve"/>
    </contour>
    <contour>
      <point x="270" y="442" type="curve" smooth="yes"/>
      <point x="191" y="442"/>
      <point x="142" y="405"/>
      <point x="133" y="305" type="curve"/>
      <point x="381" y="305" type="line"/>
      <point x="381" y="406"/>
      <point x="341" y="442"/>
    </contour>
  </outline>
</glyph>
<glyph name="hbar" format="1">
  <advance width="549"/>
  <unicode hex="0127"/>
  <outline>
    <contour>
      <point x="-1" y="632" type="line"/>
      <point x="79" y="632" type="line"/>
      <point x="79" y="700" type="line"/>
      <point x="159" y="700" type="line"/>
      <point x="159" y="632" type="line"/>
      <point x="319" y="632" type="line"/>
      <point x="319" y="572" type="line"/>
      <point x="159" y="572" type="line"/>
      <point x="159" y="444" type="line"/>
      <point x="163" y="444" type="line"/>
      <point x="198" y="485"/>
      <point x="244" y="512"/>
      <point x="316" y="512" type="curve" smooth="yes"/>
      <point x="429" y="512"/>
      <point x="480" y="467"/>
      <point x="480" y="302" type="curve" smooth="yes"/>
      <point x="480" y="0" type="line"/>
      <point x="400" y="0" type="line"/>
      <point x="400" y="285" type="line" smooth="yes"/>
      <point x="400" y="389"/>
      <point x="380" y="442"/>
      <point x="293" y="442" type="curve" smooth="yes"/>
      <point x="230" y="442"/>
      <point x="174" y="397"/>
      <point x="159" y="333" type="curve"/>
      <point x="159" y="0" type="line"/>
      <point x="79" y="0" type="line"/>
      <point x="79" y="572" type="line"/>
      <point x="-1" y="572" type="line"/>
    </contour>
  </outline>
</glyph>
<glyph name="Iogonek" format="1">
  <advance width="291"/>
  <unicode hex="012E"/>
  <outline>
    <contour>
      <point x="104" y="700" type="line"/>
      <point x="187" y="700" type="line"/>
      <point x="187" y="0" type="line"/>
      <point x="173" y="0" type="line"/>
      <point x="138" y="-21"/>
      <point x="117" y="-49"/>
      <point x="117" y="-88" type="curve" smooth="yes"/>
      <point x="117" y="-115"/>
      <point x="135" y="-139"/>
      <point x="168" y="-139" type="curve" smooth="yes"/>
      <point x="181" y="-139"/>
      <point x="194" y="-136"/>
      <point x="208" y="-129" type="curve"/>
      <point x="219" y="-172" type="line"/>
      <point x="199" y="-188"/>
      <point x="161" y="-195"/>
      <point x="133" y="-195" type="curve" smooth="yes"/>
      <point x="73" y="-195"/>
      <point x="34" y="-162"/>
      <point x="34" y="-107" type="curve" smooth="yes"/>
      <point x="34" y="-60"/>
      <point x="63" y="-23"/>
      <point x="114" y="0" type="curve"/>
      <point x="104" y="0" type="line"/>
    </contour>
  </outline>
</glyph>
<glyph name="iogonek" format="1">
  <advance width="269"/>
  <unicode hex="012F"/>
  <outline>
    <contour>
      <point x="94" y="500" type="line"/>
      <point x="174" y="500" type="line"/>
      <point x="174" y="0" type="line"/>
      <point x="156" y="0" type="line"/>
      <point x="123" y="-21"/>
      <point x="102" y="-51"/>
      <point x="102" y="-88" type="curve" smooth="yes"/>
      <point x="102" y="-115"/>
      <point x="120" y="-139"/>
      <point x="153" y="-139" type="curve" smooth="yes"/>
      <point x="166" y="-139"/>
      <point x="179" y="-136"/>
      <point x="193" y="-129" type="curve"/>
      <point x="204" y="-172" type="line"/>
      <point x="184" y="-188"/>
      <point x="146" y="-195"/>
      <point x="117" y="-195" type="curve" smooth="yes"/>
      <point x="57" y="-195"/>
      <point x="19" y="-162"/>
      <point x="19" y="-107" type="curve" smooth="yes"/>
      <point x="19" y="-60"/>
      <point x="48" y="-23"/>
      <point x="99" y="0" type="curve"/>
      <point x="94" y="0" type="line"/>
    </contour>
    <contour>
      <point x="77" y="652" type="curve" smooth="yes"/>
      <point x="77" y="683"/>
      <point x="100" y="708"/>
      <point x="132" y="708" type="curve" smooth="yes"/>
      <point x="164" y="708"/>
      <point x="190" y="683"/>
      <point x="190" y="652" type="curve" smooth="yes"/>
      <point x="190" y="621"/>
      <point x="164" y="599"/>
      <point x="132" y="599" type="curve" smooth="yes"/>
      <point x="100" y="599"/>
      <point x="77" y="621"/>
    </contour>
  </outline>
</glyph>
<glyph name="lslash" format="1">
  <advance width="292"/>
  <unicode hex="0142"/>
  <outline>
    <contour>
      <point x="10" y="285" type="line"/>
      <point x="86" y="344" type="line"/>
      <point x="86" y="700" type="line"/>
      <point x="166" y="700" type="line"/>
      <point x="166" y="407" type="line"/>
      <point x="270" y="489" type="line"/>
      <point x="270" y="409" type="line"/>
      <point x="166" y="329" type="line"/>
      <point x="166" y="123" type="line" smooth="yes"/>
      <point x="166" y="76"/>
      <point x="183" y="58"/>
      <point x="212" y="58" type="curve" smooth="yes"/>
      <point x="229" y="58"/>
      <point x="249" y="60"/>
      <point x="274" y="69" type="curve"/>
      <point x="283" y="6" type="line"/>
      <point x="262" y="-5"/>
      <point x="217" y="-12"/>
      <point x="189" y="-12" type="curve" smooth="yes"/>
      <point x="129" y="-12"/>
      <point x="86" y="19"/>
      <point x="86" y="100" type="curve" smooth="yes"/>
      <point x="86" y="267" type="line"/>
      <point x="10" y="209" type="line"/>
    </contour>
  </outline>
</glyph>
<glyph name="OE" format="1">
  <advance width="932"/>
  <unicode hex="0152"/>
  <outline>
    <contour>
      <point x="481" y="618" type="line"/>
      <point x="444" y="633"/>
      <point x="392" y="638"/>
      <point x="341" y="638" type="curve" smooth="yes"/>
      <point x="218" y="638"/>
      <point x="144" y="546"/>
      <point x="144" y="350" type="curve" smooth="yes"/>
      <point x="144" y="196"/>
      <point x="204" y="62"/>
      <point x="349" y="62" type="curve" smooth="yes"/>
      <point x="388" y="62"/>
      <point x="425" y="62"/>
      <point x="481" y="79" type="curve"/>
    </contour>
    <contour>
      <point x="481" y="0" type="line"/>
      <point x="448" y="-7"/>
      <point x="401" y="-12"/>
      <point x="341" y="-12" type="curve" smooth="yes"/>
      <point x="146" y="-12"/>
      <point x="56" y="132"/>
      <point x="56" y="350" type="curve" smooth="yes"/>
      <point x="56" y="583"/>
      <point x="158" y="712"/>
      <point x="341" y="712" type="curve" smooth="yes"/>
      <point x="404" y="712"/>
      <point x="438" y="707"/>
      <point x="481" y="700" type="curve"/>
      <point x="862" y="700" type="line"/>
      <point x="862" y="626" type="line"/>
      <point x="564" y="626" type="line"/>
      <point x="564" y="397" type="line"/>
      <point x="837" y="397" type="line"/>
      <point x="837" y="323" type="line"/>
      <point x="564" y="323" type="line"/>
      <point x="564" y="74" type="line"/>
      <point x="867" y="74" type="line"/>
      <point x="867" y="0" type="line"/>
    </contour>
  </outline>
</glyph>
<glyph name="oe" format="1">
  <advance width="858"/>
  <unicode hex="0153"/>
  <outline>
    <contour>
      <point x="132" y="250" type="curve" smooth="yes"/>
      <point x="132" y="148"/>
      <point x="169" y="58"/>
      <point x="268" y="58" type="curve"/>
      <point x="358" y="57"/>
      <point x="403" y="121"/>
      <point x="403" y="250" type="curve" smooth="yes"/>
      <point x="403" y="354"/>
      <point x="368" y="442"/>
      <point x="268" y="442" type="curve"/>
      <point x="177" y="443"/>
      <point x="132" y="379"/>
    </contour>
    <contour>
      <point x="442" y="81" type="curve"/>
      <point x="406" y="21"/>
      <point x="348" y="-12"/>
      <point x="268" y="-12" type="curve" smooth="yes"/>
      <point x="118" y="-12"/>
      <point x="49" y="92"/>
      <point x="49" y="250" type="curve" smooth="yes"/>
      <point x="49" y="419"/>
      <point x="127" y="512"/>
      <point x="268" y="512" type="curve" smooth="yes"/>
      <point x="352" y="512"/>
      <point x="409" y="473"/>
      <point x="444" y="420" type="curve"/>
      <point x="479" y="476"/>
      <point x="539" y="512"/>
      <point x="619" y="512" type="curve" smooth="yes"/>
      <point x="710" y="512"/>
      <point x="809" y="482"/>
      <point x="809" y="315" type="curve" smooth="yes"/>
      <point x="809" y="292"/>
      <point x="808" y="269"/>
      <point x="804" y="242" type="curve"/>
      <point x="481" y="242" type="line"/>
      <point x="481" y="124"/>
      <point x="526" y="57"/>
      <point x="643" y="57" type="curve" smooth="yes"/>
      <point x="690" y="57"/>
      <point x="739" y="77"/>
      <point x="762" y="98" type="curve"/>
      <point x="792" y="40" type="line"/>
      <point x="752" y="8"/>
      <point x="688" y="-12"/>
      <point x="620" y="-12" type="curve" smooth="yes"/>
      <point x="537" y="-12"/>
      <point x="477" y="24"/>
    </contour>
    <contour>
      <point x="620" y="443" type="curve" smooth="yes"/>
      <point x="543" y="443"/>
      <point x="492" y="405"/>
      <point x="483" y="305" type="curve"/>
      <point x="731" y="305" type="line"/>
      <point x="731" y="314" type="line" smooth="yes"/>
      <point x="731" y="406"/>
      <point x="688" y="443"/>
    </contour>
  </outline>
</glyph>
<glyph name="Scedilla" format="1">
  <advance width="531"/>
  <unicode hex="015E"/>
  <outline>
    <contour>
      <point x="401" y="178" type="curve" smooth="yes"/>
      <point x="401" y="346"/>
      <point x="63" y="301"/>
      <point x="63" y="534" type="curve" smooth="yes"/>
      <point x="63" y="643"/>
      <point x="142" y="712"/>
      <point x="282" y="712" type="curve" smooth="yes"/>
      <point x="363" y="712"/>
      <point x="434" y="699"/>
      <point x="471" y="680" type="curve"/>
      <point x="446" y="607" type="line"/>
      <point x="415" y="622"/>
      <point x="353" y="638"/>
      <point x="278" y="638" type="curve" smooth="yes"/>
      <point x="190" y="638"/>
      <point x="146" y="592"/>
      <point x="146" y="539" type="curve" smooth="yes"/>
      <point x="146" y="384"/>
      <point x="484" y="406"/>
      <point x="484" y="185" type="curve" smooth="yes"/>
      <point x="484" y="80"/>
      <point x="415" y="8"/>
      <point x="298" y="-8" type="curve"/>
      <point x="279" y="-43" type="line"/>
      <point x="335" y="-54"/>
      <point x="358" y="-77"/>
      <point x="358" y="-118" type="curve" smooth="yes"/>
      <point x="358" y="-170"/>
      <point x="313" y="-208"/>
      <point x="236" y="-208" type="curve" smooth="yes"/>
      <point x="221" y="-208"/>
      <point x="207" y="-207"/>
      <point x="191" y="-204" type="curve"/>
      <point x="200" y="-165" type="line"/>
      <point x="208" y="-166"/>
      <point x="214" y="-166"/>
      <point x="221" y="-166" type="curve" smooth="yes"/>
      <point x="280" y="-166"/>
      <point x="284" y="-143"/>
      <point x="284" y="-127" type="curve" smooth="yes"/>
      <point x="284" y="-108"/>
      <point x="255" y="-96"/>
      <point x="198" y="-90" type="curve"/>
      <point x="239" y="-12" type="line"/>
      <point x="143" y="-11"/>
      <point x="81" y="6"/>
      <point x="46" y="25" type="curve"/>
      <point x="74" y="100" type="line"/>
      <point x="105" y="83"/>
      <point x="168" y="62"/>
      <point x="243" y="62" type="curve" smooth="yes"/>
      <point x="331" y="62"/>
      <point x="401" y="97"/>
    </contour>
  </outline>
</glyph>
<glyph name="scedilla" format="1">
  <advance width="421"/>
  <unicode hex="015F"/>
  <outline>
    <contour>
      <point x="297" y="136" type="curve" smooth="yes"/>
      <point x="297" y="255"/>
      <point x="56" y="198"/>
      <point x="56" y="373" type="curve" smooth="yes"/>
      <point x="56" y="469"/>
      <point x="114" y="512"/>
      <point x="211" y="512" type="curve" smooth="yes"/>
      <point x="283" y="512"/>
      <point x="329" y="497"/>
      <point x="365" y="480" type="curve"/>
      <point x="346" y="415" type="line"/>
      <point x="315" y="430"/>
      <point x="270" y="442"/>
      <point x="221" y="442" type="curve" smooth="yes"/>
      <point x="162" y="442"/>
      <point x="136" y="424"/>
      <point x="136" y="375" type="curve" smooth="yes"/>
      <point x="136" y="273"/>
      <point x="377" y="318"/>
      <point x="377" y="139" type="curve" smooth="yes"/>
      <point x="377" y="60"/>
      <point x="331" y="1"/>
      <point x="235" y="-10" type="curve"/>
      <point x="217" y="-43" type="line"/>
      <point x="273" y="-54"/>
      <point x="296" y="-77"/>
      <point x="296" y="-118" type="curve" smooth="yes"/>
      <point x="296" y="-170"/>
      <point x="251" y="-208"/>
      <point x="174" y="-208" type="curve" smooth="yes"/>
      <point x="159" y="-208"/>
      <point x="145" y="-207"/>
      <point x="129" y="-204" type="curve"/>
      <point x="138" y="-165" type="line"/>
      <point x="146" y="-166"/>
      <point x="152" y="-166"/>
      <point x="159" y="-166" type="curve" smooth="yes"/>
      <point x="218" y="-166"/>
      <point x="222" y="-143"/>
      <point x="222" y="-127" type="curve" smooth="yes"/>
      <point x="222" y="-108"/>
      <point x="193" y="-96"/>
      <point x="136" y="-90" type="curve"/>
      <point x="178" y="-11" type="line"/>
      <point x="115" y="-8"/>
      <point x="71" y="6"/>
      <point x="39" y="25" type="curve"/>
      <point x="63" y="92" type="line"/>
      <point x="94" y="76"/>
      <point x="147" y="59"/>
      <point x="198" y="59" type="curve" smooth="yes"/>
      <point x="255" y="59"/>
      <point x="297" y="77"/>
    </contour>
  </outline>
</glyph>
<glyph name="Uogonek" format="1">
  <advance width="652"/>
  <unicode hex="0172"/>
  <outline>
    <contour>
      <point x="487" y="700" type="line"/>
      <point x="567" y="700" type="line"/>
      <point x="567" y="233" type="line"/>
      <point x="564" y="104"/>
      <point x="515" y="32"/>
      <point x="428" y="4" type="curve"/>
      <point x="388" y="-17"/>
      <point x="366" y="-48"/>
      <point x="366" y="-87" type="curve"/>
      <point x="367" y="-115"/>
      <point x="385" y="-137"/>
      <point x="417" y="-138" type="curve" smooth="yes"/>
      <point x="431" y="-138"/>
      <point x="445" y="-135"/>
      <point x="458" y="-129" type="curve"/>
      <point x="469" y="-172" type="line"/>
      <point x="450" y="-187"/>
      <point x="415" y="-195"/>
      <point x="384" y="-195" type="curve" smooth="yes"/>
      <point x="324" y="-195"/>
      <point x="284" y="-161"/>
      <point x="284" y="-106" type="curve" smooth="yes"/>
      <point x="284" y="-66"/>
      <point x="307" y="-32"/>
      <point x="344" y="-9" type="curve"/>
      <point x="335" y="-9" type="line" smooth="yes"/>
      <point x="170" y="-9"/>
      <point x="85" y="65"/>
      <point x="85" y="217" type="curve" smooth="yes"/>
      <point x="85" y="700" type="line"/>
      <point x="168" y="700" type="line"/>
      <point x="168" y="256" type="line" smooth="yes"/>
      <point x="168" y="115"/>
      <point x="224" y="65"/>
      <point x="336" y="65" type="curve" smooth="yes"/>
      <point x="443" y="65"/>
      <point x="486" y="120"/>
      <point x="487" y="256" type="curve"/>
    </contour>
  </outline>
</glyph>
<glyph name="uogonek" format="1">
  <advance width="539"/>
  <unicode hex="0173"/>
  <outline>
    <contour>
      <point x="149" y="500" type="line"/>
      <point x="149" y="215" type="line" smooth="yes"/>
      <point x="149" y="111"/>
      <point x="170" y="58"/>
      <point x="247" y="58" type="curve" smooth="yes"/>
      <point x="317" y="58"/>
      <point x="361" y="107"/>
      <point x="382" y="166" type="curve"/>
      <point x="382" y="500" type="line"/>
      <point x="462" y="500" type="line"/>
      <point x="462" y="142" type="line" smooth="yes"/>
      <point x="462" y="94"/>
      <point x="465" y="39"/>
      <point x="473" y="0" type="curve"/>
      <point x="455" y="0" type="line"/>
      <point x="415" y="-16"/>
      <point x="391" y="-50"/>
      <point x="394" y="-91" type="curve"/>
      <point x="398" y="-119"/>
      <point x="414" y="-138"/>
      <point x="447" y="-138" type="curve" smooth="yes"/>
      <point x="460" y="-138"/>
      <point x="473" y="-135"/>
      <point x="486" y="-129" type="curve"/>
      <point x="497" y="-172" type="line"/>
      <point x="477" y="-188"/>
      <point x="440" y="-195"/>
      <point x="412" y="-195" type="curve" smooth="yes"/>
      <point x="353" y="-195"/>
      <point x="316" y="-166"/>
      <point x="312" y="-110" type="curve"/>
      <point x="312" y="-55"/>
      <point x="346" y="-15"/>
      <point x="414" y="10" type="curve"/>
      <point x="397" y="79" type="line"/>
      <point x="392" y="79" type="line"/>
      <point x="363" y="27"/>
      <point x="308" y="-12"/>
      <point x="232" y="-12" type="curve" smooth="yes"/>
      <point x="125" y="-12"/>
      <point x="69" y="33"/>
      <point x="69" y="198" type="curve" smooth="yes"/>
      <point x="69" y="500" type="line"/>
    </contour>
  </outline>
</glyph>
<glyph name="longs" format="1">
  <advance width="249"/>
  <unicode hex="017F"/>
  <outline>
    <contour>
      <point x="22" y="500" type="line"/>
      <point x="100" y="500" type="line"/>
      <point x="100" y="528" type="line" smooth="yes"/>
      <point x="100" y="652"/>
      <point x="137" y="706"/>
      <point x="244" y="706" type="curve" smooth="yes"/>
      <point x="287" y="706"/>
      <point x="315" y="702"/>
      <point x="351" y="687" type="curve"/>
      <point x="333" y="620" type="line"/>
      <point x="302" y="633"/>
      <point x="275" y="636"/>
      <point x="251" y="636" type="curve" smooth="yes"/>
      <point x="186" y="636"/>
      <point x="180" y="600"/>
      <point x="180" y="529" type="curve" smooth="yes"/>
      <point x="180" y="0" type="line"/>
      <point x="100" y="0" type="line"/>
      <point x="100" y="431" type="line"/>
      <point x="22" y="431" type="line"/>
    </contour>
  </outline>
</glyph>
<glyph name="florin" format="1">
  <advance width="545"/>
  <unicode hex="0192"/>
  <outline>
    <contour>
      <point x="316" y="430" type="line"/>
      <point x="237" y="-34" type="line" smooth="yes"/>
      <point x="221" y="-132"/>
      <point x="181" y="-208"/>
      <point x="81" y="-208" type="curve" smooth="yes"/>
      <point x="42" y="-208"/>
      <point x="-2" y="-197"/>
      <point x="-34" y="-184" type="curve"/>
      <point x="-13" y="-118" type="line"/>
      <point x="18" y="-131"/>
      <point x="43" y="-138"/>
      <point x="75" y="-138" type="curve" smooth="yes"/>
      <point x="126" y="-138"/>
      <point x="148" y="-97"/>
      <point x="165" y="8" type="curve" smooth="yes"/>
      <point x="233" y="430" type="line"/>
      <point x="148" y="430" type="line"/>
      <point x="148" y="500" type="line"/>
      <point x="244" y="500" type="line"/>
      <point x="255" y="567" type="line" smooth="yes"/>
      <point x="271" y="666"/>
      <point x="306" y="712"/>
      <point x="402" y="712" type="curve" smooth="yes"/>
      <point x="446" y="712"/>
      <point x="490" y="702"/>
      <point x="523" y="687" type="curve"/>
      <point x="500" y="622" type="line"/>
      <point x="468" y="635"/>
      <point x="437" y="642"/>
      <point x="408" y="642" type="curve" smooth="yes"/>
      <point x="359" y="642"/>
      <point x="345" y="616"/>
      <point x="334" y="541" type="curve"/>
      <point x="327" y="500" type="line"/>
      <point x="447" y="500" type="line"/>
      <point x="447" y="430" type="line"/>
    </contour>
  </outline>
</glyph>
<glyph name="uni0237" format="1">
  <advance width="267"/>
  <unicode hex="0237"/>
  <outline>
    <contour>
      <point x="93" y="500" type="line"/>
      <point x="173" y="500" type="line"/>
      <point x="173" y="-27" type="line" smooth="yes"/>
      <point x="173" y="-151"/>
      <point x="132" y="-212"/>
      <point x="39" y="-212" type="curve" smooth="yes"/>
      <point x="28" y="-212"/>
      <point x="20" y="-211"/>
      <point x="9" y="-210" type="curve"/>
      <point x="9" y="-142" type="line"/>
      <point x="84" y="-142"/>
      <point x="93" y="-97"/>
      <point x="93" y="3" type="curve" smooth="yes"/>
    </contour>
  </outline>
</glyph>
<glyph name="breve" format="1">
  <advance width="425"/>
  <unicode hex="02D8"/>
  <outline>
    <contour>
      <point x="105" y="720" type="line"/>
      <point x="129" y="672"/>
      <point x="172" y="643"/>
      <point x="217" y="643" type="curve" smooth="yes"/>
      <point x="262" y="643"/>
      <point x="300" y="671"/>
      <point x="323" y="720" type="curve"/>
      <point x="365" y="702" type="line"/>
      <point x="357" y="637"/>
      <point x="296" y="573"/>
      <point x="216" y="573" type="curve" smooth="yes"/>
      <point x="143" y="573"/>
      <point x="78" y="621"/>
      <point x="60" y="697" type="curve"/>
    </contour>
  </outline>
</glyph>
<glyph name="dotaccent" format="1">
  <advance width="233"/>
  <unicode hex="02D9"/>
  <outline>
    <contour>
      <point x="60" y="652" type="curve" smooth="yes"/>
      <point x="60" y="683"/>
      <point x="83" y="708"/>
      <point x="115" y="708" type="curve" smooth="yes"/>
      <point x="147" y="708"/>
      <point x="173" y="683"/>
      <point x="173" y="652" type="curve" smooth="yes"/>
      <point x="173" y="621"/>
      <point x="147" y="599"/>
      <point x="115" y="599" type="curve" smooth="yes"/>
      <point x="83" y="599"/>
      <point x="60" y="621"/>
    </contour>
  </outline>
</glyph>
<glyph name="ring" format="1">
  <advance width="315"/>
  <unicode hex="02DA"/>
  <outline>
    <contour>
      <point x="60" y="643" type="curve" smooth="yes"/>
      <point x="60" y="699"/>
      <point x="98" y="734"/>
      <point x="157" y="734" type="curve" smooth="yes"/>
      <point x="213" y="734"/>
      <point x="255" y="706"/>
      <point x="255" y="643" type="curve" smooth="yes"/>
      <point x="255" y="591"/>
      <point x="213" y="553"/>
      <point x="157" y="553" type="curve" smooth="yes"/>
      <point x="101" y="553"/>
      <point x="60" y="586"/>
    </contour>
    <contour>
      <point x="114" y="643" type="curve" smooth="yes"/>
      <point x="114" y="616"/>
      <point x="134" y="601"/>
      <point x="157" y="601" type="curve" smooth="yes"/>
      <point x="182" y="601"/>
      <point x="201" y="614"/>
      <point x="201" y="643" type="curve" smooth="yes"/>
      <point x="201" y="672"/>
      <point x="180" y="686"/>
      <point x="157" y="686" type="curve" smooth="yes"/>
      <point x="134" y="686"/>
      <point x="114" y="674"/>
    </contour>
  </outline>
</glyph>
<glyph name="ogonek" format="1">
  <advance width="305"/>
  <unicode hex="02DB"/>
  <outline>
    <contour>
      <point x="218" y="10" type="line"/>
      <point x="171" y="-11"/>
      <point x="143" y="-44"/>
      <point x="143" y="-87" type="curve" smooth="yes"/>
      <point x="143" y="-114"/>
      <point x="161" y="-138"/>
      <point x="194" y="-138" type="curve" smooth="yes"/>
      <point x="207" y="-138"/>
      <point x="220" y="-135"/>
      <point x="234" y="-128" type="curve"/>
      <point x="245" y="-171" type="line"/>
      <point x="225" y="-187"/>
      <point x="187" y="-195"/>
      <point x="159" y="-195" type="curve" smooth="yes"/>
      <point x="99" y="-195"/>
      <point x="60" y="-161"/>
      <point x="60" y="-106" type="curve" smooth="yes"/>
      <point x="60" y="-51"/>
      <point x="99" y="-13"/>
      <point x="163" y="10" type="curve"/>
    </contour>
  </outline>
</glyph>
<glyph name="tilde" format="1">
  <advance width="399"/>
  <unicode hex="02DC"/>
  <outline>
    <contour>
      <point x="60" y="656" type="line"/>
      <point x="99" y="700"/>
      <point x="130" y="714"/>
      <point x="157" y="714" type="curve" smooth="yes"/>
      <point x="202" y="714"/>
      <point x="233" y="674"/>
      <point x="269" y="674" type="curve" smooth="yes"/>
      <point x="284" y="674"/>
      <point x="299" y="682"/>
      <point x="315" y="698" type="curve"/>
      <point x="339" y="655" type="line"/>
      <point x="304" y="616"/>
      <point x="276" y="605"/>
      <point x="252" y="605" type="curve" smooth="yes"/>
      <point x="210" y="605"/>
      <point x="178" y="645"/>
      <point x="140" y="645" type="curve" smooth="yes"/>
      <point x="123" y="645"/>
      <point x="106" y="637"/>
      <point x="83" y="614" type="curve"/>
    </contour>
  </outline>
</glyph>
<glyph name="uni03A9" format="1">
  <advance width="802"/>
  <unicode hex="03A9"/>
  <unicode hex="2126"/>
  <outline>
    <contour>
      <point x="76" y="70" type="line"/>
      <point x="192" y="70" type="line"/>
      <point x="286" y="60" type="line"/>
      <point x="286" y="86" type="line"/>
      <point x="232" y="96" type="line"/>
      <point x="146" y="136"/>
      <point x="76" y="238"/>
      <point x="76" y="376" type="curve" smooth="yes"/>
      <point x="76" y="583"/>
      <point x="203" y="712"/>
      <point x="400" y="712" type="curve" smooth="yes"/>
      <point x="608" y="712"/>
      <point x="726" y="572"/>
      <point x="726" y="372" type="curve" smooth="yes"/>
      <point x="726" y="228"/>
      <point x="643" y="137"/>
      <point x="571" y="97" type="curve"/>
      <point x="514" y="86" type="line"/>
      <point x="514" y="60" type="line"/>
      <point x="610" y="70" type="line"/>
      <point x="726" y="70" type="line"/>
      <point x="726" y="0" type="line"/>
      <point x="439" y="0" type="line"/>
      <point x="439" y="125" type="line"/>
      <point x="518" y="141"/>
      <point x="638" y="205"/>
      <point x="638" y="377" type="curve" smooth="yes"/>
      <point x="638" y="504"/>
      <point x="568" y="638"/>
      <point x="399" y="638" type="curve" smooth="yes"/>
      <point x="248" y="638"/>
      <point x="164" y="549"/>
      <point x="164" y="374" type="curve" smooth="yes"/>
      <point x="164" y="207"/>
      <point x="274" y="138"/>
      <point x="362" y="125" type="curve"/>
      <point x="362" y="0" type="line"/>
      <point x="76" y="0" type="line"/>
    </contour>
  </outline>
</glyph>
<glyph name="pi" format="1">
  <advance width="664"/>
  <unicode hex="03C0"/>
  <outline>
    <contour>
      <point x="514" y="116" type="line" smooth="yes"/>
      <point x="514" y="79"/>
      <point x="527" y="66"/>
      <point x="546" y="66" type="curve" smooth="yes"/>
      <point x="559" y="66"/>
      <point x="578" y="69"/>
      <point x="590" y="72" type="curve"/>
      <point x="609" y="18" type="line"/>
      <point x="588" y="9"/>
      <point x="556" y="-4"/>
      <point x="516" y="-4" type="curve" smooth="yes"/>
      <point x="449" y="-4"/>
      <point x="434" y="37"/>
      <point x="434" y="106" type="curve" smooth="yes"/>
      <point x="434" y="430" type="line"/>
      <point x="244" y="430" type="line"/>
      <point x="244" y="0" type="line"/>
      <point x="164" y="0" type="line"/>
      <point x="164" y="430" type="line"/>
      <point x="150" y="430" type="line" smooth="yes"/>
      <point x="122" y="430"/>
      <point x="108" y="414"/>
      <point x="89" y="385" type="curve"/>
      <point x="36" y="417" type="line"/>
      <point x="61" y="468"/>
      <point x="93" y="500"/>
      <point x="164" y="500" type="curve" smooth="yes"/>
      <point x="597" y="500" type="line"/>
      <point x="597" y="430" type="line"/>
      <point x="514" y="430" type="line"/>
    </contour>
  </outline>
</glyph>
<glyph name="afii10051" format="1">
  <advance width="728"/>
  <unicode hex="0402"/>
  <outline>
    <contour>
      <point x="319" y="0" type="line"/>
      <point x="236" y="0" type="line"/>
      <point x="236" y="626" type="line"/>
      <point x="18" y="626" type="line"/>
      <point x="18" y="700" type="line"/>
      <point x="537" y="700" type="line"/>
      <point x="537" y="626" type="line"/>
      <point x="319" y="626" type="line"/>
      <point x="319" y="415" type="line"/>
      <point x="335" y="420"/>
      <point x="383" y="436"/>
      <point x="458" y="436" type="curve" smooth="yes"/>
      <point x="565" y="436"/>
      <point x="672" y="391"/>
      <point x="672" y="226" type="curve" smooth="yes"/>
      <point x="672" y="66"/>
      <point x="587" y="-8"/>
      <point x="439" y="-8" type="curve" smooth="yes"/>
      <point x="395" y="-8"/>
      <point x="380" y="-8"/>
      <point x="369" y="-5" type="curve"/>
      <point x="369" y="67" type="line"/>
      <point x="386" y="64"/>
      <point x="403" y="64"/>
      <point x="442" y="64" type="curve" smooth="yes"/>
      <point x="537" y="64"/>
      <point x="584" y="116"/>
      <point x="584" y="220" type="curve" smooth="yes"/>
      <point x="584" y="333"/>
      <point x="516" y="364"/>
      <point x="432" y="364" type="curve" smooth="yes"/>
      <point x="384" y="364"/>
      <point x="335" y="347"/>
      <point x="319" y="342" type="curve"/>
    </contour>
  </outline>
</glyph>
<glyph name="afii10053" format="1">
  <advance width="583"/>
  <unicode hex="0404"/>
  <outline>
    <contour>
      <point x="544" y="29" type="line"/>
      <point x="504" y="-2"/>
      <point x="434" y="-12"/>
      <point x="365" y="-12" type="curve" smooth="yes"/>
      <point x="197" y="-12"/>
      <point x="56" y="99"/>
      <point x="56" y="350" type="curve" smooth="yes"/>
      <point x="56" y="610"/>
      <point x="217" y="712"/>
      <point x="365" y="712" type="curve" smooth="yes"/>
      <point x="445" y="712"/>
      <point x="498" y="703"/>
      <point x="534" y="688" type="curve"/>
      <point x="514" y="614" type="line"/>
      <point x="483" y="629"/>
      <point x="432" y="638"/>
      <point x="372" y="638" type="curve" smooth="yes"/>
      <point x="268" y="638"/>
      <point x="164" y="575"/>
      <point x="145" y="398" type="curve"/>
      <point x="451" y="398" type="line"/>
      <point x="451" y="324" type="line"/>
      <point x="144" y="324" type="line"/>
      <point x="152" y="149"/>
      <point x="260" y="62"/>
      <point x="384" y="62" type="curve" smooth="yes"/>
      <point x="444" y="62"/>
      <point x="494" y="75"/>
      <point x="523" y="94" type="curve"/>
    </contour>
  </outline>
</glyph>
<glyph name="afii10056" format="1">
  <advance width="293"/>
  <unicode hex="0407"/>
  <outline>
    <contour>
      <point x="32" y="793" type="curve" smooth="yes"/>
      <point x="32" y="822"/>
      <point x="54" y="841"/>
      <point x="83" y="841" type="curve" smooth="yes"/>
      <point x="111" y="841"/>
      <point x="133" y="822"/>
      <point x="133" y="793" type="curve" smooth="yes"/>
      <point x="133" y="764"/>
      <point x="111" y="746"/>
      <point x="83" y="746" type="curve" smooth="yes"/>
      <point x="54" y="746"/>
      <point x="32" y="764"/>
    </contour>
    <contour>
      <point x="161" y="793" type="curve" smooth="yes"/>
      <point x="161" y="822"/>
      <point x="183" y="841"/>
      <point x="211" y="841" type="curve" smooth="yes"/>
      <point x="240" y="841"/>
      <point x="262" y="822"/>
      <point x="262" y="793" type="curve" smooth="yes"/>
      <point x="262" y="764"/>
      <point x="240" y="746"/>
      <point x="211" y="746" type="curve" smooth="yes"/>
      <point x="183" y="746"/>
      <point x="161" y="764"/>
    </contour>
    <contour>
      <point x="105" y="700" type="line"/>
      <point x="188" y="700" type="line"/>
      <point x="188" y="0" type="line"/>
      <point x="105" y="0" type="line"/>
    </contour>
  </outline>
</glyph>
<glyph name="afii10058" format="1">
  <advance width="926"/>
  <unicode hex="0409"/>
  <outline>
    <contour>
      <point x="456" y="626" type="line"/>
      <point x="247" y="626" type="line"/>
      <point x="234" y="359"/>
      <point x="215" y="186"/>
      <point x="171" y="87" type="curve" smooth="yes"/>
      <point x="142" y="23"/>
      <point x="101" y="-5"/>
      <point x="54" y="-5" type="curve" smooth="yes"/>
      <point x="30" y="-5"/>
      <point x="14" y="-2"/>
      <point x="-2" y="5" type="curve"/>
      <point x="9" y="77" type="line"/>
      <point x="16" y="75"/>
      <point x="23" y="74"/>
      <point x="30" y="74" type="curve" smooth="yes"/>
      <point x="53" y="74"/>
      <point x="75" y="86"/>
      <point x="96" y="126" type="curve" smooth="yes"/>
      <point x="134" y="199"/>
      <point x="161" y="358"/>
      <point x="169" y="700" type="curve"/>
      <point x="539" y="700" type="line"/>
      <point x="539" y="428" type="line"/>
      <point x="553" y="431"/>
      <point x="606" y="436"/>
      <point x="638" y="436" type="curve" smooth="yes"/>
      <point x="765" y="436"/>
      <point x="892" y="391"/>
      <point x="892" y="226" type="curve" smooth="yes"/>
      <point x="892" y="66"/>
      <point x="773" y="-8"/>
      <point x="619" y="-8" type="curve" smooth="yes"/>
      <point x="582" y="-8"/>
      <point x="506" y="-6"/>
      <point x="456" y="7" type="curve"/>
    </contour>
    <contour>
      <point x="630" y="64" type="curve" smooth="yes"/>
      <point x="726" y="64"/>
      <point x="804" y="115"/>
      <point x="804" y="220" type="curve" smooth="yes"/>
      <point x="804" y="333"/>
      <point x="718" y="364"/>
      <point x="627" y="364" type="curve" smooth="yes"/>
      <point x="603" y="364"/>
      <point x="553" y="358"/>
      <point x="539" y="355" type="curve"/>
      <point x="539" y="70" type="line"/>
      <point x="558" y="66"/>
      <point x="597" y="64"/>
    </contour>
  </outline>
</glyph>
<glyph name="afii10059" format="1">
  <advance width="974"/>
  <unicode hex="040A"/>
  <outline>
    <contour>
      <point x="504" y="336" type="line"/>
      <point x="168" y="336" type="line"/>
      <point x="168" y="0" type="line"/>
      <point x="85" y="0" type="line"/>
      <point x="85" y="700" type="line"/>
      <point x="168" y="700" type="line"/>
      <point x="168" y="410" type="line"/>
      <point x="504" y="410" type="line"/>
      <point x="504" y="700" type="line"/>
      <point x="587" y="700" type="line"/>
      <point x="587" y="409" type="line"/>
      <point x="601" y="412"/>
      <point x="656" y="417"/>
      <point x="687" y="417" type="curve" smooth="yes"/>
      <point x="812" y="417"/>
      <point x="940" y="382"/>
      <point x="940" y="217" type="curve" smooth="yes"/>
      <point x="940" y="56"/>
      <point x="821" y="-8"/>
      <point x="667" y="-8" type="curve" smooth="yes"/>
      <point x="630" y="-8"/>
      <point x="555" y="-5"/>
      <point x="504" y="6" type="curve"/>
    </contour>
    <contour>
      <point x="678" y="64" type="curve" smooth="yes"/>
      <point x="775" y="64"/>
      <point x="852" y="106"/>
      <point x="852" y="210" type="curve" smooth="yes"/>
      <point x="852" y="323"/>
      <point x="768" y="345"/>
      <point x="675" y="345" type="curve" smooth="yes"/>
      <point x="651" y="345"/>
      <point x="601" y="339"/>
      <point x="587" y="336" type="curve"/>
      <point x="587" y="70" type="line"/>
      <point x="606" y="66"/>
      <point x="645" y="64"/>
    </contour>
  </outline>
</glyph>
<glyph name="afii10060" format="1">
  <advance width="750"/>
  <unicode hex="040B"/>
  <outline>
    <contour>
      <point x="319" y="0" type="line"/>
      <point x="236" y="0" type="line"/>
      <point x="236" y="626" type="line"/>
      <point x="18" y="626" type="line"/>
      <point x="18" y="700" type="line"/>
      <point x="537" y="700" type="line"/>
      <point x="537" y="626" type="line"/>
      <point x="319" y="626" type="line"/>
      <point x="319" y="395" type="line"/>
      <point x="355" y="415"/>
      <point x="416" y="440"/>
      <point x="491" y="440" type="curve" smooth="yes"/>
      <point x="604" y="440"/>
      <point x="682" y="394"/>
      <point x="682" y="244" type="curve" smooth="yes"/>
      <point x="682" y="0" type="line"/>
      <point x="599" y="0" type="line"/>
      <point x="599" y="229" type="line" smooth="yes"/>
      <point x="599" y="320"/>
      <point x="558" y="366"/>
      <point x="475" y="366" type="curve" smooth="yes"/>
      <point x="411" y="366"/>
      <point x="354" y="348"/>
      <point x="319" y="320" type="curve"/>
    </contour>
  </outline>
</glyph>
<glyph name="afii10018" format="1">
  <advance width="550"/>
  <unicode hex="0411"/>
  <outline>
    <contour>
      <point x="85" y="700" type="line"/>
      <point x="465" y="700" type="line"/>
      <point x="465" y="626" type="line"/>
      <point x="168" y="626" type="line"/>
      <point x="168" y="416" type="line"/>
      <point x="191" y="420"/>
      <point x="227" y="425"/>
      <point x="258" y="425" type="curve" smooth="yes"/>
      <point x="394" y="425"/>
      <point x="512" y="381"/>
      <point x="512" y="221" type="curve" smooth="yes"/>
      <point x="512" y="61"/>
      <point x="392" y="-8"/>
      <point x="256" y="-8" type="curve" smooth="yes"/>
      <point x="212" y="-8"/>
      <point x="134" y="-6"/>
      <point x="85" y="7" type="curve"/>
    </contour>
    <contour>
      <point x="266" y="64" type="curve" smooth="yes"/>
      <point x="352" y="64"/>
      <point x="424" y="111"/>
      <point x="424" y="207" type="curve" smooth="yes"/>
      <point x="424" y="330"/>
      <point x="341" y="353"/>
      <point x="250" y="353" type="curve" smooth="yes"/>
      <point x="226" y="353"/>
      <point x="181" y="348"/>
      <point x="168" y="345" type="curve"/>
      <point x="168" y="70" type="line"/>
      <point x="187" y="65"/>
      <point x="232" y="64"/>
    </contour>
  </outline>
</glyph>
<glyph name="afii10021" format="1">
  <advance width="669"/>
  <unicode hex="0414"/>
  <outline>
    <contour>
      <point x="641" y="-129" type="line"/>
      <point x="584" y="-129" type="line"/>
      <point x="569" y="0" type="line"/>
      <point x="78" y="0" type="line"/>
      <point x="63" y="-129" type="line"/>
      <point x="5" y="-129" type="line"/>
      <point x="5" y="74" type="line"/>
      <point x="76" y="74" type="line"/>
      <point x="97" y="103"/>
      <point x="176" y="284"/>
      <point x="176" y="700" type="curve"/>
      <point x="550" y="700" type="line"/>
      <point x="550" y="74" type="line"/>
      <point x="641" y="74" type="line"/>
    </contour>
    <contour>
      <point x="467" y="74" type="line"/>
      <point x="467" y="626" type="line"/>
      <point x="254" y="626" type="line"/>
      <point x="246" y="332"/>
      <point x="207" y="162"/>
      <point x="164" y="74" type="curve"/>
    </contour>
  </outline>
</glyph>
<glyph name="afii10025" format="1">
  <advance width="541"/>
  <unicode hex="0417"/>
  <outline>
    <contour>
      <point x="139" y="331" type="line"/>
      <point x="139" y="401" type="line"/>
      <point x="155" y="401" type="line" smooth="yes"/>
      <point x="179" y="401"/>
      <point x="229" y="401"/>
      <point x="250" y="406" type="curve"/>
      <point x="319" y="417"/>
      <point x="376" y="458"/>
      <point x="376" y="523" type="curve" smooth="yes"/>
      <point x="376" y="611"/>
      <point x="312" y="638"/>
      <point x="235" y="638" type="curve" smooth="yes"/>
      <point x="163" y="638"/>
      <point x="113" y="627"/>
      <point x="82" y="612" type="curve"/>
      <point x="60" y="678" type="line"/>
      <point x="87" y="693"/>
      <point x="162" y="712"/>
      <point x="249" y="712" type="curve" smooth="yes"/>
      <point x="356" y="712"/>
      <point x="464" y="672"/>
      <point x="464" y="540" type="curve" smooth="yes"/>
      <point x="464" y="473"/>
      <point x="420" y="406"/>
      <point x="332" y="379" type="curve"/>
      <point x="332" y="375" type="line"/>
      <point x="427" y="362"/>
      <point x="485" y="303"/>
      <point x="485" y="207" type="curve" smooth="yes"/>
      <point x="485" y="54"/>
      <point x="355" y="-12"/>
      <point x="223" y="-12" type="curve" smooth="yes"/>
      <point x="135" y="-12"/>
      <point x="81" y="-1"/>
      <point x="44" y="14" type="curve"/>
      <point x="65" y="89" type="line"/>
      <point x="96" y="74"/>
      <point x="151" y="62"/>
      <point x="230" y="62" type="curve" smooth="yes"/>
      <point x="313" y="62"/>
      <point x="397" y="107"/>
      <point x="397" y="202" type="curve" smooth="yes"/>
      <point x="397" y="286"/>
      <point x="333" y="322"/>
      <point x="238" y="329" type="curve" smooth="yes"/>
      <point x="222" y="330"/>
      <point x="209" y="331"/>
      <point x="194" y="331" type="curve" smooth="yes"/>
    </contour>
  </outline>
</glyph>
<glyph name="afii10037" format="1">
  <advance width="553"/>
  <unicode hex="0423"/>
  <outline>
    <contour>
      <point x="282" y="331" type="line"/>
      <point x="308" y="242" type="line"/>
      <point x="313" y="242" type="line"/>
      <point x="333" y="334" type="line"/>
      <point x="467" y="700" type="line"/>
      <point x="552" y="700" type="line"/>
      <point x="375" y="245" type="line"/>
      <point x="303" y="57"/>
      <point x="274" y="-5"/>
      <point x="182" y="-5" type="curve" smooth="yes"/>
      <point x="138" y="-5"/>
      <point x="116" y="2"/>
      <point x="93" y="17" type="curve"/>
      <point x="118" y="86" type="line"/>
      <point x="145" y="71"/>
      <point x="167" y="69"/>
      <point x="186" y="69" type="curve" smooth="yes"/>
      <point x="223" y="69"/>
      <point x="247" y="107"/>
      <point x="266" y="182" type="curve"/>
      <point x="7" y="700" type="line"/>
      <point x="103" y="700" type="line"/>
    </contour>
  </outline>
</glyph>
<glyph name="afii10038" format="1">
  <advance width="780"/>
  <unicode hex="0424"/>
  <outline>
    <contour>
      <point x="349" y="78" type="line"/>
      <point x="326" y="74"/>
      <point x="294" y="73"/>
      <point x="267" y="73" type="curve" smooth="yes"/>
      <point x="141" y="73"/>
      <point x="41" y="157"/>
      <point x="41" y="350" type="curve" smooth="yes"/>
      <point x="41" y="531"/>
      <point x="139" y="638"/>
      <point x="286" y="638" type="curve" smooth="yes"/>
      <point x="303" y="638"/>
      <point x="334" y="637"/>
      <point x="349" y="634" type="curve"/>
      <point x="349" y="720" type="line"/>
      <point x="431" y="720" type="line"/>
      <point x="431" y="631" type="line"/>
      <point x="455" y="638"/>
      <point x="493" y="638"/>
      <point x="514" y="638" type="curve" smooth="yes"/>
      <point x="642" y="638"/>
      <point x="739" y="545"/>
      <point x="739" y="360" type="curve" smooth="yes"/>
      <point x="739" y="170"/>
      <point x="628" y="73"/>
      <point x="496" y="73" type="curve" smooth="yes"/>
      <point x="481" y="73"/>
      <point x="446" y="75"/>
      <point x="431" y="80" type="curve"/>
      <point x="431" y="-20" type="line"/>
      <point x="349" y="-20" type="line"/>
    </contour>
    <contour>
      <point x="502" y="568" type="curve" smooth="yes"/>
      <point x="483" y="568"/>
      <point x="449" y="568"/>
      <point x="430" y="561" type="curve"/>
      <point x="430" y="146" type="line"/>
      <point x="443" y="143"/>
      <point x="468" y="143"/>
      <point x="489" y="143" type="curve" smooth="yes"/>
      <point x="579" y="143"/>
      <point x="653" y="212"/>
      <point x="653" y="360" type="curve" smooth="yes"/>
      <point x="653" y="484"/>
      <point x="595" y="568"/>
    </contour>
    <contour>
      <point x="282" y="143" type="curve" smooth="yes"/>
      <point x="295" y="143"/>
      <point x="331" y="144"/>
      <point x="350" y="149" type="curve"/>
      <point x="350" y="564" type="line"/>
      <point x="334" y="567"/>
      <point x="308" y="568"/>
      <point x="289" y="568" type="curve" smooth="yes"/>
      <point x="198" y="568"/>
      <point x="127" y="495"/>
      <point x="127" y="350" type="curve" smooth="yes"/>
      <point x="127" y="221"/>
      <point x="189" y="143"/>
    </contour>
  </outline>
</glyph>
<glyph name="afii10041" format="1">
  <advance width="605"/>
  <unicode hex="0427"/>
  <outline>
    <contour>
      <point x="158" y="700" type="line"/>
      <point x="158" y="468" type="line" smooth="yes"/>
      <point x="158" y="377"/>
      <point x="199" y="331"/>
      <point x="282" y="331" type="curve" smooth="yes"/>
      <point x="345" y="331"/>
      <point x="402" y="349"/>
      <point x="437" y="377" type="curve"/>
      <point x="437" y="700" type="line"/>
      <point x="520" y="700" type="line"/>
      <point x="520" y="0" type="line"/>
      <point x="437" y="0" type="line"/>
      <point x="437" y="302" type="line"/>
      <point x="401" y="282"/>
      <point x="341" y="257"/>
      <point x="265" y="257" type="curve" smooth="yes"/>
      <point x="153" y="257"/>
      <point x="75" y="303"/>
      <point x="75" y="453" type="curve" smooth="yes"/>
      <point x="75" y="700" type="line"/>
    </contour>
  </outline>
</glyph>
<glyph name="afii10044" format="1">
  <advance width="630"/>
  <unicode hex="042A"/>
  <outline>
    <contour>
      <point x="159" y="626" type="line"/>
      <point x="-1" y="626" type="line"/>
      <point x="-1" y="700" type="line"/>
      <point x="242" y="700" type="line"/>
      <point x="242" y="428" type="line"/>
      <point x="256" y="431"/>
      <point x="311" y="436"/>
      <point x="342" y="436" type="curve" smooth="yes"/>
      <point x="467" y="436"/>
      <point x="596" y="391"/>
      <point x="596" y="226" type="curve" smooth="yes"/>
      <point x="596" y="66"/>
      <point x="477" y="-8"/>
      <point x="323" y="-8" type="curve" smooth="yes"/>
      <point x="286" y="-8"/>
      <point x="210" y="-6"/>
      <point x="159" y="7" type="curve"/>
    </contour>
    <contour>
      <point x="334" y="64" type="curve" smooth="yes"/>
      <point x="429" y="64"/>
      <point x="508" y="115"/>
      <point x="508" y="220" type="curve" smooth="yes"/>
      <point x="508" y="333"/>
      <point x="421" y="364"/>
      <point x="330" y="364" type="curve" smooth="yes"/>
      <point x="306" y="364"/>
      <point x="256" y="358"/>
      <point x="242" y="355" type="curve"/>
      <point x="242" y="70" type="line"/>
      <point x="261" y="66"/>
      <point x="299" y="64"/>
    </contour>
  </outline>
</glyph>
<glyph name="afii10045" format="1">
  <advance width="769"/>
  <unicode hex="042B"/>
  <outline>
    <contour>
      <point x="601" y="700" type="line"/>
      <point x="684" y="700" type="line"/>
      <point x="684" y="0" type="line"/>
      <point x="601" y="0" type="line"/>
    </contour>
    <contour>
      <point x="85" y="700" type="line"/>
      <point x="168" y="700" type="line"/>
      <point x="168" y="428" type="line"/>
      <point x="182" y="431"/>
      <point x="223" y="436"/>
      <point x="254" y="436" type="curve" smooth="yes"/>
      <point x="380" y="436"/>
      <point x="499" y="391"/>
      <point x="499" y="226" type="curve" smooth="yes"/>
      <point x="499" y="65"/>
      <point x="393" y="-8"/>
      <point x="238" y="-8" type="curve" smooth="yes"/>
      <point x="201" y="-8"/>
      <point x="136" y="-6"/>
      <point x="85" y="7" type="curve"/>
    </contour>
    <contour>
      <point x="245" y="64" type="curve" smooth="yes"/>
      <point x="341" y="64"/>
      <point x="411" y="116"/>
      <point x="411" y="220" type="curve" smooth="yes"/>
      <point x="411" y="333"/>
      <point x="331" y="364"/>
      <point x="241" y="364" type="curve" smooth="yes"/>
      <point x="217" y="364"/>
      <point x="183" y="359"/>
      <point x="168" y="355" type="curve"/>
      <point x="168" y="70" type="line"/>
      <point x="186" y="66"/>
      <point x="212" y="64"/>
    </contour>
  </outline>
</glyph>
<glyph name="afii10046" format="1">
  <advance width="555"/>
  <unicode hex="042C"/>
  <outline>
    <contour>
      <point x="85" y="700" type="line"/>
      <point x="168" y="700" type="line"/>
      <point x="168" y="428" type="line"/>
      <point x="182" y="431"/>
      <point x="235" y="436"/>
      <point x="267" y="436" type="curve" smooth="yes"/>
      <point x="394" y="436"/>
      <point x="521" y="391"/>
      <point x="521" y="226" type="curve" smooth="yes"/>
      <point x="521" y="66"/>
      <point x="402" y="-8"/>
      <point x="248" y="-8" type="curve" smooth="yes"/>
      <point x="211" y="-8"/>
      <point x="135" y="-6"/>
      <point x="85" y="7" type="curve"/>
    </contour>
    <contour>
      <point x="259" y="64" type="curve" smooth="yes"/>
      <point x="355" y="64"/>
      <point x="433" y="115"/>
      <point x="433" y="220" type="curve" smooth="yes"/>
      <point x="433" y="333"/>
      <point x="347" y="364"/>
      <point x="256" y="364" type="curve" smooth="yes"/>
      <point x="232" y="364"/>
      <point x="182" y="358"/>
      <point x="168" y="355" type="curve"/>
      <point x="168" y="70" type="line"/>
      <point x="187" y="66"/>
      <point x="226" y="64"/>
    </contour>
  </outline>
</glyph>
<glyph name="afii10047" format="1">
  <advance width="577"/>
  <unicode hex="042D"/>
  <outline>
    <contour>
      <point x="150" y="395" type="line"/>
      <point x="438" y="395" type="line"/>
      <point x="424" y="561"/>
      <point x="333" y="638"/>
      <point x="210" y="638" type="curve" smooth="yes"/>
      <point x="147" y="638"/>
      <point x="98" y="627"/>
      <point x="67" y="608" type="curve"/>
      <point x="45" y="673" type="line"/>
      <point x="86" y="697"/>
      <point x="151" y="712"/>
      <point x="220" y="712" type="curve" smooth="yes"/>
      <point x="391" y="712"/>
      <point x="521" y="610"/>
      <point x="521" y="350" type="curve" smooth="yes"/>
      <point x="521" y="88"/>
      <point x="371" y="-12"/>
      <point x="199" y="-12" type="curve" smooth="yes"/>
      <point x="132" y="-12"/>
      <point x="81" y="-2"/>
      <point x="45" y="13" type="curve"/>
      <point x="67" y="86" type="line"/>
      <point x="98" y="71"/>
      <point x="151" y="62"/>
      <point x="204" y="62" type="curve" smooth="yes"/>
      <point x="312" y="62"/>
      <point x="428" y="126"/>
      <point x="439" y="321" type="curve"/>
      <point x="150" y="321" type="line"/>
    </contour>
  </outline>
</glyph>
<glyph name="afii10048" format="1">
  <advance width="893"/>
  <unicode hex="042E"/>
  <outline>
    <contour>
      <point x="168" y="395" type="line"/>
      <point x="292" y="395" type="line"/>
      <point x="303" y="599"/>
      <point x="395" y="712"/>
      <point x="566" y="712" type="curve" smooth="yes"/>
      <point x="762" y="712"/>
      <point x="837" y="568"/>
      <point x="837" y="350" type="curve" smooth="yes"/>
      <point x="837" y="117"/>
      <point x="749" y="-12"/>
      <point x="566" y="-12" type="curve" smooth="yes"/>
      <point x="380" y="-12"/>
      <point x="299" y="118"/>
      <point x="291" y="321" type="curve"/>
      <point x="168" y="321" type="line"/>
      <point x="168" y="0" type="line"/>
      <point x="85" y="0" type="line"/>
      <point x="85" y="700" type="line"/>
      <point x="168" y="700" type="line"/>
    </contour>
    <contour>
      <point x="379" y="350" type="curve" smooth="yes"/>
      <point x="379" y="196"/>
      <point x="428" y="62"/>
      <point x="566" y="62" type="curve" smooth="yes"/>
      <point x="690" y="62"/>
      <point x="749" y="153"/>
      <point x="749" y="350" type="curve" smooth="yes"/>
      <point x="749" y="503"/>
      <point x="705" y="638"/>
      <point x="566" y="638" type="curve" smooth="yes"/>
      <point x="442" y="638"/>
      <point x="379" y="546"/>
    </contour>
  </outline>
</glyph>
<glyph name="afii10049" format="1">
  <advance width="569"/>
  <unicode hex="042F"/>
  <outline>
    <contour>
      <point x="484" y="0" type="line"/>
      <point x="401" y="0" type="line"/>
      <point x="401" y="305" type="line"/>
      <point x="298" y="283" type="line"/>
      <point x="124" y="0" type="line"/>
      <point x="26" y="0" type="line"/>
      <point x="182" y="249" type="line"/>
      <point x="243" y="292" type="line"/>
      <point x="147" y="313"/>
      <point x="76" y="380"/>
      <point x="76" y="496" type="curve" smooth="yes"/>
      <point x="76" y="658"/>
      <point x="194" y="708"/>
      <point x="336" y="708" type="curve" smooth="yes"/>
      <point x="381" y="708"/>
      <point x="435" y="705"/>
      <point x="484" y="693" type="curve"/>
    </contour>
    <contour>
      <point x="332" y="636" type="curve" smooth="yes"/>
      <point x="245" y="636"/>
      <point x="164" y="605"/>
      <point x="164" y="496" type="curve" smooth="yes"/>
      <point x="164" y="395"/>
      <point x="241" y="353"/>
      <point x="333" y="353" type="curve" smooth="yes"/>
      <point x="401" y="353" type="line"/>
      <point x="401" y="630" type="line"/>
      <point x="382" y="634"/>
      <point x="365" y="636"/>
    </contour>
  </outline>
</glyph>
<glyph name="afii10066" format="1">
  <advance width="536"/>
  <unicode hex="0431"/>
  <outline>
    <contour>
      <point x="123" y="411" type="line"/>
      <point x="167" y="475"/>
      <point x="216" y="498"/>
      <point x="296" y="498" type="curve" smooth="yes"/>
      <point x="419" y="498"/>
      <point x="487" y="417"/>
      <point x="487" y="261" type="curve" smooth="yes"/>
      <point x="487" y="81"/>
      <point x="406" y="-12"/>
      <point x="269" y="-12" type="curve" smooth="yes"/>
      <point x="122" y="-12"/>
      <point x="49" y="86"/>
      <point x="49" y="303" type="curve" smooth="yes"/>
      <point x="49" y="648"/>
      <point x="156" y="674"/>
      <point x="315" y="690" type="curve" smooth="yes"/>
      <point x="384" y="697"/>
      <point x="420" y="702"/>
      <point x="444" y="725" type="curve"/>
      <point x="453" y="653" type="line"/>
      <point x="427" y="630"/>
      <point x="391" y="621"/>
      <point x="307" y="616" type="curve" smooth="yes"/>
      <point x="192" y="608"/>
      <point x="133" y="586"/>
      <point x="120" y="411" type="curve"/>
    </contour>
    <contour>
      <point x="132" y="249" type="curve" smooth="yes"/>
      <point x="132" y="146"/>
      <point x="174" y="58"/>
      <point x="268" y="58" type="curve" smooth="yes"/>
      <point x="360" y="58"/>
      <point x="404" y="125"/>
      <point x="404" y="254" type="curve" smooth="yes"/>
      <point x="404" y="356"/>
      <point x="367" y="428"/>
      <point x="282" y="428" type="curve" smooth="yes"/>
      <point x="178" y="429"/>
      <point x="132" y="365"/>
    </contour>
  </outline>
</glyph>
<glyph name="afii10067" format="1">
  <advance width="499"/>
  <unicode hex="0432"/>
  <outline>
    <contour>
      <point x="77" y="499" type="line"/>
      <point x="124" y="502"/>
      <point x="170" y="507"/>
      <point x="246" y="507" type="curve" smooth="yes"/>
      <point x="378" y="507"/>
      <point x="431" y="467"/>
      <point x="431" y="384" type="curve" smooth="yes"/>
      <point x="431" y="337"/>
      <point x="406" y="287"/>
      <point x="343" y="266" type="curve"/>
      <point x="343" y="262" type="line"/>
      <point x="422" y="247"/>
      <point x="450" y="208"/>
      <point x="450" y="141" type="curve" smooth="yes"/>
      <point x="450" y="37"/>
      <point x="375" y="-7"/>
      <point x="226" y="-7" type="curve" smooth="yes"/>
      <point x="170" y="-7"/>
      <point x="124" y="-3"/>
      <point x="77" y="1" type="curve"/>
    </contour>
    <contour>
      <point x="157" y="67" type="line"/>
      <point x="182" y="64"/>
      <point x="205" y="63"/>
      <point x="238" y="63" type="curve" smooth="yes"/>
      <point x="327" y="63"/>
      <point x="370" y="86"/>
      <point x="370" y="147" type="curve" smooth="yes"/>
      <point x="370" y="195"/>
      <point x="338" y="228"/>
      <point x="245" y="228" type="curve" smooth="yes"/>
      <point x="157" y="228" type="line"/>
    </contour>
    <contour>
      <point x="255" y="289" type="line" smooth="yes"/>
      <point x="302" y="289"/>
      <point x="351" y="323"/>
      <point x="351" y="366" type="curve" smooth="yes"/>
      <point x="351" y="419"/>
      <point x="323" y="437"/>
      <point x="243" y="437" type="curve" smooth="yes"/>
      <point x="200" y="437"/>
      <point x="180" y="435"/>
      <point x="157" y="434" type="curve"/>
      <point x="157" y="289" type="line"/>
    </contour>
  </outline>
</glyph>
<glyph name="afii10069" format="1">
  <advance width="541"/>
  <unicode hex="0434"/>
  <outline>
    <contour>
      <point x="519" y="-127" type="line"/>
      <point x="465" y="-127" type="line"/>
      <point x="450" y="0" type="line"/>
      <point x="74" y="0" type="line"/>
      <point x="59" y="-127" type="line"/>
      <point x="5" y="-127" type="line"/>
      <point x="5" y="70" type="line"/>
      <point x="64" y="70" type="line"/>
      <point x="86" y="100"/>
      <point x="139" y="216"/>
      <point x="144" y="500" type="curve"/>
      <point x="446" y="500" type="line"/>
      <point x="446" y="70" type="line"/>
      <point x="519" y="70" type="line"/>
    </contour>
    <contour>
      <point x="366" y="70" type="line"/>
      <point x="366" y="430" type="line"/>
      <point x="216" y="430" type="line"/>
      <point x="211" y="317"/>
      <point x="189" y="155"/>
      <point x="144" y="70" type="curve"/>
    </contour>
  </outline>
</glyph>
<glyph name="afii10073" format="1">
  <advance width="441"/>
  <unicode hex="0437"/>
  <outline>
    <contour>
      <point x="125" y="223" type="line"/>
      <point x="125" y="288" type="line"/>
      <point x="195" y="288" type="line" smooth="yes"/>
      <point x="243" y="288"/>
      <point x="293" y="322"/>
      <point x="293" y="366" type="curve" smooth="yes"/>
      <point x="293" y="418"/>
      <point x="257" y="437"/>
      <point x="185" y="437" type="curve" smooth="yes"/>
      <point x="133" y="437"/>
      <point x="87" y="417"/>
      <point x="63" y="402" type="curve"/>
      <point x="40" y="464" type="line"/>
      <point x="80" y="487"/>
      <point x="132" y="507"/>
      <point x="207" y="507" type="curve" smooth="yes"/>
      <point x="318" y="507"/>
      <point x="373" y="466"/>
      <point x="373" y="384" type="curve" smooth="yes"/>
      <point x="373" y="337"/>
      <point x="342" y="287"/>
      <point x="286" y="268" type="curve"/>
      <point x="286" y="264" type="line"/>
      <point x="365" y="249"/>
      <point x="392" y="208"/>
      <point x="392" y="140" type="curve" smooth="yes"/>
      <point x="392" y="56"/>
      <point x="323" y="-9"/>
      <point x="183" y="-9" type="curve" smooth="yes"/>
      <point x="115" y="-9"/>
      <point x="74" y="5"/>
      <point x="38" y="22" type="curve"/>
      <point x="61" y="88" type="line"/>
      <point x="92" y="71"/>
      <point x="136" y="61"/>
      <point x="187" y="61" type="curve" smooth="yes"/>
      <point x="268" y="61"/>
      <point x="312" y="89"/>
      <point x="312" y="146" type="curve" smooth="yes"/>
      <point x="312" y="194"/>
      <point x="275" y="223"/>
      <point x="183" y="223" type="curve" smooth="yes"/>
    </contour>
  </outline>
</glyph>
<glyph name="afii10084" format="1">
  <advance width="397"/>
  <unicode hex="0442"/>
  <outline>
    <contour>
      <point x="395" y="430" type="line"/>
      <point x="239" y="430" type="line"/>
      <point x="239" y="0" type="line"/>
      <point x="159" y="0" type="line"/>
      <point x="159" y="430" type="line"/>
      <point x="3" y="430" type="line"/>
      <point x="3" y="500" type="line"/>
      <point x="395" y="500" type="line"/>
    </contour>
  </outline>
</glyph>
<glyph name="afii10086" format="1">
  <advance width="680"/>
  <unicode hex="0444"/>
  <outline>
    <contour>
      <point x="302" y="-4" type="line"/>
      <point x="279" y="-12"/>
      <point x="253" y="-12"/>
      <point x="233" y="-12" type="curve" smooth="yes"/>
      <point x="112" y="-12"/>
      <point x="44" y="71"/>
      <point x="44" y="250" type="curve" smooth="yes"/>
      <point x="44" y="421"/>
      <point x="118" y="508"/>
      <point x="254" y="508" type="curve" smooth="yes"/>
      <point x="273" y="508"/>
      <point x="289" y="507"/>
      <point x="302" y="504" type="curve"/>
      <point x="302" y="700" type="line"/>
      <point x="378" y="700" type="line"/>
      <point x="378" y="503" type="line"/>
      <point x="402" y="507"/>
      <point x="420" y="508"/>
      <point x="437" y="508" type="curve" smooth="yes"/>
      <point x="569" y="508"/>
      <point x="636" y="437"/>
      <point x="636" y="260" type="curve" smooth="yes"/>
      <point x="636" y="92"/>
      <point x="563" y="-12"/>
      <point x="433" y="-12" type="curve" smooth="yes"/>
      <point x="421" y="-12"/>
      <point x="393" y="-10"/>
      <point x="378" y="-5" type="curve"/>
      <point x="378" y="-200" type="line"/>
      <point x="302" y="-200" type="line"/>
    </contour>
    <contour>
      <point x="422" y="442" type="curve" smooth="yes"/>
      <point x="406" y="442"/>
      <point x="396" y="442"/>
      <point x="377" y="437" type="curve"/>
      <point x="377" y="57" type="line"/>
      <point x="390" y="54"/>
      <point x="407" y="54"/>
      <point x="427" y="54" type="curve" smooth="yes"/>
      <point x="512" y="54"/>
      <point x="556" y="127"/>
      <point x="556" y="260" type="curve" smooth="yes"/>
      <point x="556" y="373"/>
      <point x="522" y="442"/>
    </contour>
    <contour>
      <point x="253" y="54" type="curve" smooth="yes"/>
      <point x="269" y="54"/>
      <point x="284" y="55"/>
      <point x="303" y="59" type="curve"/>
      <point x="303" y="438" type="line"/>
      <point x="287" y="441"/>
      <point x="275" y="442"/>
      <point x="255" y="442" type="curve" smooth="yes"/>
      <point x="172" y="442"/>
      <point x="124" y="382"/>
      <point x="124" y="250" type="curve" smooth="yes"/>
      <point x="124" y="137"/>
      <point x="164" y="54"/>
    </contour>
  </outline>
</glyph>
<glyph name="afii10089" format="1">
  <advance width="490"/>
  <unicode hex="0447"/>
  <outline>
    <contour>
      <point x="129" y="500" type="line"/>
      <point x="129" y="364" type="line" smooth="yes"/>
      <point x="129" y="293"/>
      <point x="140" y="246"/>
      <point x="215" y="246" type="curve" smooth="yes"/>
      <point x="275" y="246"/>
      <point x="313" y="262"/>
      <point x="333" y="278" type="curve"/>
      <point x="333" y="500" type="line"/>
      <point x="413" y="500" type="line"/>
      <point x="413" y="0" type="line"/>
      <point x="333" y="0" type="line"/>
      <point x="333" y="210" type="line"/>
      <point x="312" y="197"/>
      <point x="272" y="176"/>
      <point x="199" y="176" type="curve" smooth="yes"/>
      <point x="100" y="176"/>
      <point x="49" y="215"/>
      <point x="49" y="348" type="curve" smooth="yes"/>
      <point x="49" y="500" type="line"/>
    </contour>
  </outline>
</glyph>
<glyph name="afii10092" format="1">
  <advance width="497"/>
  <unicode hex="044A"/>
  <outline>
    <contour>
      <point x="191" y="70" type="line"/>
      <point x="217" y="66"/>
      <point x="240" y="64"/>
      <point x="261" y="64" type="curve" smooth="yes"/>
      <point x="345" y="64"/>
      <point x="384" y="98"/>
      <point x="384" y="158" type="curve" smooth="yes"/>
      <point x="384" y="211"/>
      <point x="347" y="250"/>
      <point x="264" y="250" type="curve" smooth="yes"/>
      <point x="241" y="250"/>
      <point x="215" y="250"/>
      <point x="191" y="243" type="curve"/>
    </contour>
    <contour>
      <point x="191" y="309" type="line"/>
      <point x="223" y="314"/>
      <point x="251" y="316"/>
      <point x="278" y="316" type="curve" smooth="yes"/>
      <point x="417" y="316"/>
      <point x="467" y="251"/>
      <point x="467" y="167" type="curve" smooth="yes"/>
      <point x="467" y="46"/>
      <point x="396" y="-6"/>
      <point x="243" y="-6" type="curve" smooth="yes"/>
      <point x="199" y="-6"/>
      <point x="158" y="-4"/>
      <point x="111" y="0" type="curve"/>
      <point x="111" y="430" type="line"/>
      <point x="1" y="430" type="line"/>
      <point x="1" y="500" type="line"/>
      <point x="191" y="500" type="line"/>
    </contour>
  </outline>
</glyph>
<glyph name="afii10093" format="1">
  <advance width="660"/>
  <unicode hex="044B"/>
  <outline>
    <contour>
      <point x="157" y="70" type="line"/>
      <point x="182" y="66"/>
      <point x="205" y="64"/>
      <point x="228" y="64" type="curve" smooth="yes"/>
      <point x="312" y="64"/>
      <point x="341" y="98"/>
      <point x="341" y="158" type="curve" smooth="yes"/>
      <point x="341" y="211"/>
      <point x="312" y="250"/>
      <point x="231" y="250" type="curve" smooth="yes"/>
      <point x="208" y="250"/>
      <point x="180" y="250"/>
      <point x="157" y="243" type="curve"/>
    </contour>
    <contour>
      <point x="157" y="309" type="line"/>
      <point x="189" y="314"/>
      <point x="218" y="316"/>
      <point x="245" y="316" type="curve" smooth="yes"/>
      <point x="382" y="316"/>
      <point x="424" y="251"/>
      <point x="424" y="167" type="curve" smooth="yes"/>
      <point x="424" y="46"/>
      <point x="361" y="-6"/>
      <point x="210" y="-6" type="curve" smooth="yes"/>
      <point x="167" y="-6"/>
      <point x="123" y="-4"/>
      <point x="77" y="0" type="curve"/>
      <point x="77" y="500" type="line"/>
      <point x="157" y="500" type="line"/>
    </contour>
    <contour>
      <point x="503" y="500" type="line"/>
      <point x="583" y="500" type="line"/>
      <point x="583" y="0" type="line"/>
      <point x="503" y="0" type="line"/>
    </contour>
  </outline>
</glyph>
<glyph name="afii10094" format="1">
  <advance width="464"/>
  <unicode hex="044C"/>
  <outline>
    <contour>
      <point x="157" y="70" type="line"/>
      <point x="182" y="66"/>
      <point x="205" y="64"/>
      <point x="228" y="64" type="curve" smooth="yes"/>
      <point x="312" y="64"/>
      <point x="351" y="98"/>
      <point x="351" y="158" type="curve" smooth="yes"/>
      <point x="351" y="211"/>
      <point x="314" y="250"/>
      <point x="231" y="250" type="curve" smooth="yes"/>
      <point x="208" y="250"/>
      <point x="180" y="250"/>
      <point x="157" y="243" type="curve"/>
    </contour>
    <contour>
      <point x="157" y="309" type="line"/>
      <point x="189" y="314"/>
      <point x="218" y="316"/>
      <point x="245" y="316" type="curve" smooth="yes"/>
      <point x="384" y="316"/>
      <point x="434" y="251"/>
      <point x="434" y="167" type="curve" smooth="yes"/>
      <point x="434" y="46"/>
      <point x="363" y="-6"/>
      <point x="210" y="-6" type="curve" smooth="yes"/>
      <point x="167" y="-6"/>
      <point x="123" y="-4"/>
      <point x="77" y="0" type="curve"/>
      <point x="77" y="500" type="line"/>
      <point x="157" y="500" type="line"/>
    </contour>
  </outline>
</glyph>
<glyph name="afii10095" format="1">
  <advance width="465"/>
  <unicode hex="044D"/>
  <outline>
    <contour>
      <point x="121" y="285" type="line"/>
      <point x="333" y="285" type="line"/>
      <point x="326" y="380"/>
      <point x="277" y="442"/>
      <point x="188" y="442" type="curve" smooth="yes"/>
      <point x="133" y="442"/>
      <point x="92" y="424"/>
      <point x="67" y="407" type="curve"/>
      <point x="39" y="468" type="line"/>
      <point x="80" y="496"/>
      <point x="132" y="512"/>
      <point x="203" y="512" type="curve" smooth="yes"/>
      <point x="351" y="512"/>
      <point x="416" y="415"/>
      <point x="416" y="250" type="curve" smooth="yes"/>
      <point x="416" y="79"/>
      <point x="333" y="-12"/>
      <point x="193" y="-12" type="curve" smooth="yes"/>
      <point x="130" y="-12"/>
      <point x="76" y="-2"/>
      <point x="40" y="18" type="curve"/>
      <point x="63" y="86" type="line"/>
      <point x="94" y="69"/>
      <point x="142" y="58"/>
      <point x="185" y="58" type="curve" smooth="yes"/>
      <point x="278" y="57"/>
      <point x="328" y="111"/>
      <point x="334" y="219" type="curve"/>
      <point x="121" y="219" type="line"/>
    </contour>
  </outline>
</glyph>
<glyph name="afii10096" format="1">
  <advance width="719"/>
  <unicode hex="044E"/>
  <outline>
    <contour>
      <point x="465" y="-12" type="curve" smooth="yes"/>
      <point x="320" y="-12"/>
      <point x="265" y="80"/>
      <point x="257" y="221" type="curve"/>
      <point x="157" y="221" type="line"/>
      <point x="157" y="0" type="line"/>
      <point x="77" y="0" type="line"/>
      <point x="77" y="500" type="line"/>
      <point x="157" y="500" type="line"/>
      <point x="157" y="291" type="line"/>
      <point x="258" y="291" type="line"/>
      <point x="269" y="434"/>
      <point x="334" y="512"/>
      <point x="467" y="512" type="curve" smooth="yes"/>
      <point x="614" y="512"/>
      <point x="670" y="408"/>
      <point x="670" y="250" type="curve" smooth="yes"/>
      <point x="670" y="81"/>
      <point x="604" y="-12"/>
    </contour>
    <contour>
      <point x="336" y="250" type="curve" smooth="yes"/>
      <point x="336" y="145"/>
      <point x="365" y="58"/>
      <point x="467" y="58" type="curve" smooth="yes"/>
      <point x="552" y="58"/>
      <point x="587" y="118"/>
      <point x="587" y="250" type="curve" smooth="yes"/>
      <point x="587" y="355"/>
      <point x="561" y="442"/>
      <point x="466" y="442" type="curve" smooth="yes"/>
      <point x="374" y="442"/>
      <point x="336" y="382"/>
    </contour>
  </outline>
</glyph>
<glyph name="afii10097" format="1">
  <advance width="475"/>
  <unicode hex="044F"/>
  <outline>
    <contour>
      <point x="326" y="207" type="line"/>
      <point x="249" y="195" type="line"/>
      <point x="117" y="0" type="line"/>
      <point x="20" y="0" type="line"/>
      <point x="140" y="171" type="line"/>
      <point x="180" y="208" type="line"/>
      <point x="111" y="219"/>
      <point x="55" y="265"/>
      <point x="55" y="342" type="curve" smooth="yes"/>
      <point x="55" y="462"/>
      <point x="142" y="512"/>
      <point x="274" y="512" type="curve" smooth="yes"/>
      <point x="323" y="512"/>
      <point x="365" y="504"/>
      <point x="406" y="496" type="curve"/>
      <point x="406" y="0" type="line"/>
      <point x="326" y="0" type="line"/>
    </contour>
    <contour>
      <point x="326" y="432" type="line"/>
      <point x="309" y="439"/>
      <point x="285" y="442"/>
      <point x="269" y="442" type="curve" smooth="yes"/>
      <point x="184" y="442"/>
      <point x="138" y="413"/>
      <point x="138" y="346" type="curve" smooth="yes"/>
      <point x="138" y="286"/>
      <point x="190" y="252"/>
      <point x="267" y="252" type="curve" smooth="yes"/>
      <point x="270" y="252"/>
      <point x="274" y="251"/>
      <point x="326" y="254" type="curve"/>
    </contour>
  </outline>
</glyph>
<glyph name="afii10099" format="1">
  <advance width="548"/>
  <unicode hex="0452"/>
  <outline>
    <contour>
      <point x="-2" y="500" type="line"/>
      <point x="78" y="500" type="line"/>
      <point x="78" y="700" type="line"/>
      <point x="158" y="700" type="line"/>
      <point x="158" y="500" type="line"/>
      <point x="318" y="500" type="line"/>
      <point x="318" y="440" type="line"/>
      <point x="158" y="440" type="line"/>
      <point x="158" y="292" type="line"/>
      <point x="162" y="292" type="line"/>
      <point x="197" y="333"/>
      <point x="243" y="360"/>
      <point x="315" y="360" type="curve" smooth="yes"/>
      <point x="428" y="360"/>
      <point x="479" y="315"/>
      <point x="479" y="150" type="curve" smooth="yes"/>
      <point x="479" y="-27" type="line" smooth="yes"/>
      <point x="479" y="-151"/>
      <point x="438" y="-212"/>
      <point x="345" y="-212" type="curve" smooth="yes"/>
      <point x="334" y="-212"/>
      <point x="326" y="-211"/>
      <point x="315" y="-210" type="curve"/>
      <point x="315" y="-142" type="line"/>
      <point x="390" y="-142"/>
      <point x="399" y="-97"/>
      <point x="399" y="0" type="curve" smooth="yes"/>
      <point x="399" y="132" type="line" smooth="yes"/>
      <point x="399" y="237"/>
      <point x="379" y="290"/>
      <point x="292" y="290" type="curve" smooth="yes"/>
      <point x="229" y="290"/>
      <point x="173" y="245"/>
      <point x="158" y="181" type="curve"/>
      <point x="158" y="0" type="line"/>
      <point x="78" y="0" type="line"/>
      <point x="78" y="440" type="line"/>
      <point x="-2" y="440" type="line"/>
    </contour>
  </outline>
</glyph>
